<?xml version="1.0" encoding="utf-8"?>
<!-- Generator: Adobe Illustrator 15.0.0, SVG Export Plug-In . SVG Version: 6.00 Build 0)  -->
<!DOCTYPE svg PUBLIC "-//W3C//DTD SVG 1.1//EN" "http://www.w3.org/Graphics/SVG/1.1/DTD/svg11.dtd">
<svg version="1.1" id="Layer_1" xmlns="http://www.w3.org/2000/svg" xmlns:xlink="http://www.w3.org/1999/xlink" x="0px" y="0px"
	 width="107.341px" height="31.264px" viewBox="0 0 107.341 31.264" enable-background="new 0 0 107.341 31.264"
	 xml:space="preserve">
<g>
	<defs>
		<rect id="SVGID_1_" x="-0.629" y="-0.329" width="108.476" height="31.593"/>
	</defs>
	<clipPath id="SVGID_2_">
		<use xlink:href="#SVGID_1_"  overflow="visible"/>
	</clipPath>
	<path clip-path="url(#SVGID_2_)" fill="#FFFFFF" d="M2.424,11.326h-0.77v5.416h-2.284V3.629c0.462-0.038,0.983-0.071,1.565-0.1
		C1.518,3.5,2.074,3.486,2.604,3.486c1.36,0,2.393,0.291,3.098,0.87c0.707,0.58,1.059,1.487,1.059,2.723
		c0,0.551-0.061,1.031-0.18,1.439c-0.12,0.409-0.278,0.765-0.475,1.069c-0.197,0.305-0.424,0.561-0.68,0.77
		c-0.257,0.209-0.526,0.385-0.808,0.527c0.333,0.675,0.652,1.311,0.956,1.91s0.607,1.122,0.911,1.568
		c0.304,0.447,0.611,0.8,0.924,1.062c0.313,0.262,0.648,0.392,1.007,0.392h0.077v0.841c-0.18,0.066-0.387,0.121-0.623,0.164
		c-0.235,0.043-0.498,0.064-0.789,0.064c-0.42,0-0.785-0.042-1.097-0.128c-0.313-0.085-0.616-0.271-0.911-0.556
		c-0.295-0.285-0.601-0.703-0.917-1.254c-0.316-0.551-0.685-1.297-1.104-2.238L2.424,11.326z M2.065,10.028
		c0.316,0,0.622-0.045,0.917-0.135c0.295-0.09,0.528-0.202,0.699-0.335c0.085-0.066,0.171-0.152,0.257-0.256
		c0.085-0.104,0.163-0.243,0.231-0.413c0.068-0.172,0.124-0.39,0.167-0.656C4.379,7.967,4.4,7.634,4.4,7.235
		c0-0.446-0.045-0.822-0.135-1.126C4.176,5.805,4.041,5.56,3.861,5.375c-0.18-0.186-0.402-0.318-0.667-0.399
		C2.929,4.895,2.625,4.855,2.283,4.855c-0.094,0-0.199,0.002-0.314,0.006c-0.116,0.005-0.22,0.017-0.314,0.036v5.131H2.065z"/>
	<path clip-path="url(#SVGID_2_)" fill="#FFFFFF" d="M12.932,7.776c0.376,0,0.742,0.06,1.097,0.178
		c0.355,0.119,0.682,0.319,0.982,0.599c0.299,0.281,0.559,0.656,0.776,1.126c0.218,0.47,0.383,1.058,0.494,1.761v0.114
		c-0.068,0.105-0.16,0.199-0.275,0.285c-0.116,0.085-0.268,0.159-0.455,0.221c-0.189,0.063-0.42,0.119-0.693,0.171
		c-0.274,0.053-0.603,0.093-0.988,0.122l-2.489,0.214v0.37c0,0.685,0.163,1.25,0.487,1.697c0.325,0.446,0.813,0.669,1.463,0.669
		c0.265,0,0.543-0.03,0.834-0.092c0.29-0.063,0.565-0.136,0.827-0.221s0.5-0.173,0.719-0.264c0.218-0.09,0.382-0.168,0.494-0.234
		l0.192,0.641c-0.24,0.2-0.509,0.406-0.808,0.62s-0.621,0.406-0.962,0.577c-0.343,0.172-0.704,0.312-1.084,0.421
		c-0.38,0.109-0.772,0.164-1.174,0.164c-0.47,0-0.909-0.078-1.315-0.235c-0.406-0.157-0.757-0.406-1.052-0.749
		c-0.295-0.342-0.528-0.789-0.699-1.339c-0.172-0.551-0.257-1.221-0.257-2.009c0-0.884,0.098-1.633,0.295-2.246
		c0.196-0.613,0.47-1.106,0.821-1.482c0.351-0.376,0.763-0.649,1.237-0.82C11.874,7.862,12.384,7.776,12.932,7.776 M11.867,9.259
		c-0.06,0.057-0.117,0.164-0.173,0.321s-0.105,0.342-0.148,0.556c-0.042,0.213-0.077,0.437-0.103,0.669
		c-0.025,0.233-0.039,0.458-0.039,0.677l2.477-0.128c-0.026-0.256-0.065-0.522-0.116-0.798c-0.051-0.276-0.125-0.528-0.224-0.755
		c-0.099-0.229-0.221-0.418-0.366-0.57c-0.145-0.152-0.32-0.228-0.526-0.228c-0.146,0-0.282,0.019-0.411,0.057
		C12.111,9.098,11.987,9.164,11.867,9.259"/>
	<path clip-path="url(#SVGID_2_)" fill="#FFFFFF" d="M23.067,7.947c0-0.132-0.004-0.261-0.012-0.385
		c-0.009-0.104-0.014-0.211-0.014-0.321V6.964V2.346l2.233-0.513v14.91h-1.527l-0.628-0.827H23.08
		c-0.308,0.247-0.639,0.475-0.994,0.684c-0.354,0.209-0.763,0.314-1.225,0.314c-0.41,0-0.807-0.079-1.187-0.235
		c-0.38-0.156-0.716-0.406-1.007-0.749c-0.291-0.342-0.523-0.788-0.699-1.34c-0.175-0.55-0.264-1.221-0.264-2.009
		c0-0.75,0.086-1.423,0.258-2.017c0.171-0.594,0.42-1.095,0.746-1.504c0.326-0.409,0.72-0.722,1.184-0.94
		c0.463-0.218,0.986-0.328,1.569-0.328c0.24,0,0.499,0.014,0.778,0.043C22.517,7.862,22.793,7.9,23.067,7.947 M20.04,12.438
		c0,1.007,0.149,1.746,0.449,2.216c0.3,0.47,0.697,0.706,1.193,0.706c0.248,0,0.489-0.038,0.725-0.114
		c0.235-0.076,0.442-0.166,0.622-0.271v-5.73c-0.342-0.085-0.684-0.128-1.026-0.128c-0.317,0-0.595,0.029-0.834,0.085
		c-0.239,0.057-0.428,0.152-0.564,0.285c-0.129,0.143-0.254,0.461-0.378,0.956C20.102,10.936,20.04,11.601,20.04,12.438"/>
	<path clip-path="url(#SVGID_2_)" fill="#FFFFFF" d="M29.983,7.961v5.887c0,0.522,0.076,0.91,0.227,1.162
		c0.15,0.251,0.407,0.378,0.77,0.378c0.13,0,0.272-0.022,0.427-0.064c0.155-0.043,0.315-0.1,0.479-0.171
		c0.165-0.071,0.321-0.152,0.473-0.242c0.151-0.09,0.291-0.188,0.421-0.292V7.961h2.245v8.78h-2.014l-0.206-1.026H32.78
		c-0.155,0.114-0.34,0.24-0.559,0.378c-0.218,0.138-0.453,0.271-0.705,0.398c-0.253,0.129-0.519,0.235-0.796,0.321
		c-0.278,0.086-0.549,0.128-0.814,0.128c-0.3,0-0.579-0.055-0.84-0.164c-0.261-0.109-0.49-0.271-0.687-0.485
		c-0.197-0.213-0.353-0.485-0.469-0.813c-0.115-0.327-0.173-0.705-0.173-1.132V7.961H29.983z"/>
	<path clip-path="url(#SVGID_2_)" fill="#FFFFFF" d="M43.172,9.843c-0.282-0.161-0.618-0.318-1.007-0.471
		c-0.389-0.151-0.81-0.228-1.264-0.228c-0.188,0-0.376,0.021-0.564,0.064c-0.188,0.042-0.351,0.122-0.487,0.236
		c-0.154,0.125-0.279,0.418-0.373,0.881c-0.094,0.463-0.141,1.186-0.141,2.169c0,0.544,0.034,1.005,0.103,1.382
		c0.068,0.376,0.171,0.682,0.309,0.916c0.136,0.234,0.307,0.401,0.513,0.501c0.205,0.1,0.44,0.15,0.706,0.15
		c0.419,0,0.855-0.05,1.309-0.15c0.454-0.1,0.864-0.235,1.231-0.406l0.206,0.641c-0.436,0.396-0.935,0.725-1.495,0.988
		c-0.56,0.264-1.174,0.396-1.841,0.396c-0.47,0-0.913-0.078-1.328-0.235c-0.415-0.157-0.772-0.406-1.072-0.749
		c-0.299-0.342-0.536-0.788-0.712-1.34C37.088,14.039,37,13.369,37,12.58c0-0.75,0.092-1.423,0.276-2.017
		c0.184-0.594,0.451-1.097,0.802-1.511c0.35-0.413,0.787-0.729,1.309-0.948c0.521-0.219,1.12-0.328,1.796-0.328
		c0.41,0,0.823,0.033,1.238,0.099c0.416,0.065,0.793,0.141,1.136,0.225L43.172,9.843z"/>
	<path clip-path="url(#SVGID_2_)" fill="#FFFFFF" d="M48.637,7.776c0.376,0,0.742,0.06,1.097,0.178
		c0.356,0.119,0.682,0.319,0.982,0.599c0.299,0.281,0.559,0.656,0.776,1.126c0.218,0.47,0.383,1.058,0.494,1.761v0.114
		c-0.068,0.105-0.16,0.199-0.275,0.285c-0.116,0.085-0.268,0.159-0.455,0.221c-0.189,0.063-0.42,0.119-0.693,0.171
		c-0.274,0.053-0.603,0.093-0.988,0.122l-2.489,0.214v0.37c0,0.685,0.163,1.25,0.488,1.697c0.325,0.446,0.813,0.669,1.462,0.669
		c0.265,0,0.543-0.03,0.834-0.092c0.291-0.063,0.566-0.136,0.827-0.221c0.261-0.085,0.5-0.173,0.719-0.264
		c0.218-0.09,0.382-0.168,0.494-0.234l0.192,0.641c-0.239,0.2-0.509,0.406-0.808,0.62s-0.621,0.406-0.962,0.577
		c-0.343,0.172-0.704,0.312-1.084,0.421c-0.38,0.109-0.772,0.164-1.174,0.164c-0.47,0-0.909-0.078-1.314-0.235
		c-0.407-0.157-0.757-0.406-1.052-0.749c-0.295-0.342-0.528-0.789-0.699-1.339c-0.171-0.551-0.257-1.221-0.257-2.009
		c0-0.884,0.099-1.633,0.295-2.246c0.196-0.613,0.47-1.106,0.821-1.482c0.351-0.376,0.763-0.649,1.238-0.82
		C47.579,7.862,48.089,7.776,48.637,7.776 M47.572,9.259c-0.06,0.057-0.118,0.164-0.173,0.321c-0.056,0.157-0.105,0.342-0.148,0.556
		c-0.043,0.213-0.077,0.437-0.103,0.669c-0.026,0.233-0.039,0.458-0.039,0.677l2.477-0.128c-0.026-0.256-0.065-0.522-0.116-0.798
		c-0.051-0.276-0.125-0.528-0.224-0.755c-0.099-0.229-0.22-0.418-0.366-0.57c-0.145-0.152-0.32-0.228-0.526-0.228
		c-0.145,0-0.282,0.019-0.411,0.057C47.816,9.098,47.692,9.164,47.572,9.259"/>
	<path clip-path="url(#SVGID_2_)" fill="#FFFFFF" d="M63.225,16.813l-7.941-9.222h-0.026c0.018,0.77,0.034,1.478,0.051,2.124
		c0.01,0.276,0.017,0.551,0.021,0.827c0.004,0.275,0.008,0.529,0.013,0.762s0.007,0.439,0.007,0.62v0.385v4.433h-1.335V3.515h1.002
		l7.953,9.18c-0.009-0.703-0.017-1.364-0.025-1.982c0-0.266-0.002-0.534-0.007-0.805c-0.004-0.271-0.008-0.529-0.013-0.777
		c-0.004-0.247-0.006-0.472-0.006-0.676V7.962V3.614h1.334v13.199H63.225z"/>
	<path clip-path="url(#SVGID_2_)" fill="#FFFFFF" d="M73.386,15.445c0.188,0,0.449-0.052,0.782-0.157v0.599
		c-0.12,0.123-0.261,0.245-0.424,0.363c-0.161,0.119-0.335,0.224-0.52,0.313c-0.184,0.091-0.373,0.162-0.57,0.214
		s-0.39,0.079-0.577,0.079c-0.205,0-0.381-0.033-0.526-0.1s-0.271-0.15-0.378-0.25c-0.107-0.099-0.197-0.216-0.27-0.349
		c-0.072-0.133-0.135-0.262-0.187-0.385c-0.188,0.143-0.374,0.283-0.558,0.42c-0.185,0.138-0.377,0.259-0.577,0.363
		c-0.201,0.104-0.413,0.19-0.636,0.256c-0.222,0.066-0.47,0.1-0.744,0.1c-0.616,0-1.102-0.214-1.456-0.641
		c-0.354-0.428-0.532-1.074-0.532-1.939c0-0.456,0.053-0.855,0.16-1.197c0.106-0.342,0.276-0.625,0.512-0.848
		c0.234-0.223,0.537-0.394,0.907-0.513c0.371-0.119,0.826-0.188,1.363-0.207l1.355-0.043v-1.276c0-0.345-0.083-0.598-0.25-0.76
		c-0.167-0.163-0.451-0.244-0.854-0.244c-0.282,0-0.609,0.038-0.981,0.114c-0.372,0.076-0.764,0.204-1.174,0.385l-0.309-0.908
		c0.275-0.131,0.559-0.261,0.854-0.388c0.295-0.127,0.594-0.24,0.897-0.339s0.611-0.179,0.924-0.24
		c0.313-0.061,0.622-0.092,0.931-0.092c0.353,0,0.666,0.036,0.941,0.107s0.505,0.192,0.69,0.364
		c0.185,0.171,0.327,0.399,0.426,0.684c0.1,0.285,0.149,0.637,0.149,1.055v4.048C72.758,14.975,72.967,15.445,73.386,15.445
		 M70.602,15.031c-0.009-0.038-0.018-0.135-0.025-0.292c-0.009-0.156-0.018-0.356-0.025-0.599c-0.009-0.242-0.016-0.518-0.019-0.827
		c-0.006-0.309-0.008-0.634-0.008-0.976c-0.549,0-0.962,0.036-1.24,0.106c-0.279,0.072-0.452,0.159-0.52,0.264
		c-0.034,0.038-0.061,0.109-0.082,0.214s-0.038,0.221-0.051,0.349c-0.013,0.129-0.021,0.261-0.025,0.399
		c-0.004,0.138-0.007,0.263-0.007,0.377c0,0.399,0.049,0.723,0.146,0.97c0.098,0.247,0.261,0.371,0.487,0.371
		c0.245,0,0.48-0.034,0.703-0.1C70.16,15.222,70.382,15.136,70.602,15.031"/>
	<path clip-path="url(#SVGID_2_)" fill="#FFFFFF" d="M75.516,9.173L74.669,8.86V8.333l2.435-1.91h0.619l0.025,1.539h2.399
		l-0.104,0.969c-0.18,0.039-0.399,0.072-0.66,0.1c-0.262,0.028-0.511,0.053-0.751,0.071c-0.281,0.028-0.572,0.057-0.872,0.085v4.932
		c0,0.313,0.052,0.577,0.154,0.791c0.103,0.214,0.316,0.321,0.642,0.321c0.085,0,0.201-0.005,0.346-0.014
		c0.146-0.009,0.297-0.023,0.456-0.043c0.158-0.018,0.313-0.04,0.462-0.063s0.275-0.045,0.378-0.064v0.728
		c-0.188,0.133-0.406,0.269-0.654,0.406c-0.247,0.137-0.511,0.262-0.788,0.37c-0.278,0.11-0.559,0.198-0.842,0.264
		c-0.282,0.066-0.553,0.1-0.812,0.1c-0.197,0-0.392-0.022-0.58-0.064c-0.189-0.043-0.359-0.125-0.51-0.25
		c-0.15-0.124-0.271-0.297-0.361-0.52c-0.091-0.224-0.136-0.516-0.136-0.877V9.173z"/>
	<polygon clip-path="url(#SVGID_2_)" fill="#FFFFFF" points="-0.194,19.369 0.777,19.369 6.224,26.767 6.245,26.767 6.245,19.369 
		7.053,19.369 7.053,28.027 6.115,28.027 0.636,20.631 0.613,20.631 0.613,28.027 -0.194,28.027 	"/>
	<path clip-path="url(#SVGID_2_)" fill="#FFFFFF" d="M8.353,23.662c0.12-1.321,0.764-2.135,2.707-2.135
		c1.899,0,2.598,0.655,2.598,1.867v3.299c0,0.521,0.131,0.704,0.448,0.704c0.142,0,0.284-0.013,0.426-0.024v0.606
		c-0.164,0.036-0.415,0.097-0.677,0.097c-0.818,0-0.862-0.618-0.873-1.116h-0.022c-0.251,0.413-0.796,1.262-2.652,1.262
		c-0.972,0-2.205-0.473-2.205-1.892c0-1.71,1.583-1.904,2.827-1.977c1.768-0.109,1.986-0.219,1.986-0.837
		c0-0.909-0.546-1.237-1.877-1.237c-1.277,0-1.888,0.376-1.943,1.383H8.353z M12.915,24.632c-0.36,0.255-0.906,0.304-2.521,0.474
		C9.455,25.202,8.91,25.518,8.91,26.27c0,0.982,0.764,1.273,1.637,1.273c1.092,0,2.369-0.655,2.369-1.953V24.632z"/>
	<path clip-path="url(#SVGID_2_)" fill="#FFFFFF" d="M15.612,19.733h0.808v1.988h1.604V22.4h-1.604v4.172
		c0,0.546,0.153,0.801,0.808,0.801c0.393,0,0.643-0.037,0.796-0.073v0.752c-0.306,0.048-0.622,0.072-0.884,0.072
		c-1.255,0-1.528-0.545-1.528-1.563V22.4h-1.233v-0.679h1.233V19.733z"/>
	<path clip-path="url(#SVGID_2_)" fill="#FFFFFF" d="M23.732,26.791H23.71c-0.24,0.667-1.091,1.431-2.347,1.431
		c-1.888,0-2.455-1.092-2.455-2.595v-3.905h0.808v4.063c0,1.249,0.687,1.686,1.713,1.686c1.583,0,2.303-0.897,2.303-2.328v-3.42
		h0.808v6.306h-0.808V26.791z"/>
	<path clip-path="url(#SVGID_2_)" fill="#FFFFFF" d="M25.785,21.722h0.808v1.443h0.022c0.295-0.752,0.829-1.638,2.171-1.638
		c0.229,0,0.361,0.024,0.48,0.049v0.922c-0.251-0.049-0.491-0.073-0.742-0.073c-0.873,0-1.932,0.595-1.932,2.39v3.213h-0.808V21.722
		z"/>
	<path clip-path="url(#SVGID_2_)" fill="#FFFFFF" d="M29.78,23.662c0.12-1.321,0.764-2.135,2.707-2.135
		c1.899,0,2.598,0.655,2.598,1.867v3.299c0,0.521,0.131,0.704,0.448,0.704c0.142,0,0.284-0.013,0.426-0.024v0.606
		c-0.164,0.036-0.415,0.097-0.677,0.097c-0.818,0-0.862-0.618-0.873-1.116h-0.022c-0.251,0.413-0.796,1.262-2.652,1.262
		c-0.971,0-2.205-0.473-2.205-1.892c0-1.71,1.583-1.904,2.827-1.977c1.768-0.109,1.986-0.219,1.986-0.837
		c0-0.909-0.546-1.237-1.877-1.237c-1.277,0-1.888,0.376-1.943,1.383H29.78z M34.342,24.632c-0.36,0.255-0.906,0.304-2.521,0.474
		c-0.939,0.097-1.484,0.412-1.484,1.164c0,0.982,0.764,1.273,1.637,1.273c1.091,0,2.368-0.655,2.368-1.953V24.632z"/>
	<rect x="36.471" y="19.297" clip-path="url(#SVGID_2_)" fill="#FFFFFF" width="0.808" height="8.73"/>
	<polygon clip-path="url(#SVGID_2_)" fill="#FFFFFF" points="41.765,19.369 47.964,19.369 47.964,20.193 42.573,20.193 
		42.573,23.128 47.768,23.128 47.768,23.953 42.573,23.953 42.573,27.203 48.052,27.203 48.052,28.027 41.765,28.027 	"/>
	<polygon clip-path="url(#SVGID_2_)" fill="#FFFFFF" points="50.967,24.753 48.544,21.722 49.591,21.722 51.512,24.123 
		53.423,21.722 54.48,21.722 52.025,24.753 54.688,28.027 53.619,28.027 51.512,25.408 49.417,28.027 48.358,28.027 	"/>
	<path clip-path="url(#SVGID_2_)" fill="#FFFFFF" d="M55.824,19.733h0.808v1.988h1.604V22.4h-1.604v4.172
		c0,0.546,0.152,0.801,0.808,0.801c0.393,0,0.644-0.037,0.797-0.073v0.752c-0.306,0.048-0.623,0.072-0.885,0.072
		c-1.255,0-1.527-0.545-1.527-1.563V22.4H54.59v-0.679h1.234V19.733z"/>
	<path clip-path="url(#SVGID_2_)" fill="#FFFFFF" d="M59.121,21.722h0.808v1.443h0.021c0.294-0.752,0.829-1.638,2.172-1.638
		c0.229,0,0.36,0.024,0.48,0.049v0.922c-0.251-0.049-0.491-0.073-0.742-0.073c-0.874,0-1.932,0.595-1.932,2.39v3.213h-0.808V21.722z
		"/>
	<path clip-path="url(#SVGID_2_)" fill="#FFFFFF" d="M63.115,23.662c0.12-1.321,0.765-2.135,2.706-2.135
		c1.899,0,2.598,0.655,2.598,1.867v3.299c0,0.521,0.132,0.704,0.448,0.704c0.142,0,0.283-0.013,0.426-0.024v0.606
		c-0.164,0.036-0.415,0.097-0.677,0.097c-0.818,0-0.862-0.618-0.873-1.116h-0.022c-0.251,0.413-0.796,1.262-2.651,1.262
		c-0.972,0-2.205-0.473-2.205-1.892c0-1.71,1.583-1.904,2.827-1.977c1.768-0.109,1.986-0.219,1.986-0.837
		c0-0.909-0.546-1.237-1.877-1.237c-1.277,0-1.888,0.376-1.943,1.383H63.115z M67.678,24.632c-0.36,0.255-0.906,0.304-2.521,0.474
		c-0.938,0.097-1.484,0.412-1.484,1.164c0,0.982,0.764,1.273,1.638,1.273c1.092,0,2.368-0.655,2.368-1.953V24.632z"/>
	<path clip-path="url(#SVGID_2_)" fill="#FFFFFF" d="M75.603,25.772c-0.152,0.824-0.808,2.449-2.87,2.449
		c-2.053,0-3.199-1.37-3.199-3.347c0-1.892,1.049-3.348,3.199-3.348c1.942,0,2.696,1.347,2.826,2.256h-0.808
		c-0.251-1.079-1.015-1.504-2.019-1.504c-1.627,0-2.391,1.141-2.391,2.596c0,1.564,0.852,2.595,2.391,2.595
		c1.189,0,1.854-0.715,2.063-1.697H75.603z"/>
	<path clip-path="url(#SVGID_2_)" fill="#FFFFFF" d="M77.044,19.733h0.808v1.988h1.604V22.4h-1.604v4.172
		c0,0.546,0.153,0.801,0.808,0.801c0.393,0,0.644-0.037,0.797-0.073v0.752c-0.306,0.048-0.622,0.072-0.885,0.072
		c-1.255,0-1.527-0.545-1.527-1.563V22.4h-1.233v-0.679h1.233V19.733z"/>
	<path clip-path="url(#SVGID_2_)" fill-rule="evenodd" clip-rule="evenodd" fill="#FFFFFF" d="M90.896,8.566
		c-1.067-0.193-1.929-0.176-2.881,0.243c-1.052,0.471-2.103,1.546-2.654,2.587c-0.213,0.404-0.378,0.773-0.537,1.252
		c-0.673,1.974-0.431,4.334,0.121,6.309c0.407,1.452,0.877,2.578,1.52,3.855c0.174,0.327,0.552,0.957,0.635,1.134l0.016,0.025
		l0.016,0.033l0.022,0.025l0.515,0.79c0.203,0.344,0.884,1.201,1.142,1.453c0.211,0.218,0.423,0.428,0.68,0.621
		c0.499,0.378,0.998,0.706,1.754,0.807c0.816,0.109,1.399-0.151,2.05-0.445c0.644-0.286,1.148-0.537,1.95-0.57
		c1.558-0.06,2.669,0.797,4.333,0.066c0.748-0.327,1.55-1.167,2.004-1.89c0.347-0.563,0.627-1.084,0.892-1.73
		c0.129-0.328,0.25-0.631,0.37-0.975c0.938-2.654,1.566-6.561,0.968-9.383c-0.227-1.076-0.627-1.966-1.194-2.789
		c-0.151-0.202-0.582-0.664-0.604-0.706l-0.023-0.025c-0.099-0.075-0.188-0.176-0.295-0.269c-0.681-0.63-1.595-1.159-2.494-1.352
		c-1.792-0.387-2.004,0.345-3.04,0.428c0.809-2.167,1.172-2.251,1.95-3.251l-1.807-2.125c-0.597,0.638-0.982,1.134-1.603,1.764
		c-2.442-3.966-4.386-4.285-8.438-4.78C86.751,5.694,88.037,6.996,90.896,8.566"/>
</g>
<g>
	<defs>
		<path id="SVGID_3_" d="M95.787,4.038c-0.211,0.27-0.628,0.933-0.778,1.228c-0.062,0.109-0.295,0.629-0.349,0.671L94.524,5.61
			c0,0.008-0.015,0.042-0.023,0.042c-0.012,0.028-0.008,0.028-0.008,0.027c0.001,0,0,0-0.014,0.015
			c-0.008,0.185-0.205,0.546-0.287,0.663c-0.069,0.093-0.145,0.185-0.213,0.252c-0.067,0.076-0.15,0.143-0.22,0.218
			c-0.075,0.126-0.482,0.361-0.589,0.412c-0.552,0.294-1.369,0.445-1.981,0.302c-0.121-0.025-0.234-0.084-0.347-0.101l-0.039-0.017
			c-0.091,0-0.03-0.009-0.045-0.025c-0.068,0.008-0.023,0-0.038-0.017c-0.061,0-0.023,0-0.037-0.025
			c-0.03,0.017-0.023,0.025-0.023-0.009c-0.007,0-0.053,0.051-0.06,0.059l-0.214,0.211l-0.059-0.026
			c0.059,0.084,0.279,0.227,0.369,0.294c0.644,0.496,1.407,0.874,2.156,1.135c0.165,0.059,0.332,0.108,0.498,0.151
			c0.136,0.042,0.417,0.067,0.522,0.134l-2.699-0.328c-0.982-0.176-1.776-0.168-2.647,0.218c-0.975,0.429-1.936,1.42-2.435,2.377
			c-0.196,0.369-0.347,0.714-0.498,1.143c-0.621,1.814-0.394,3.99,0.113,5.796c0.37,1.335,0.801,2.369,1.391,3.536
			c0.159,0.311,0.515,0.882,0.59,1.042l0.008,0.024l0.016,0.025l0.021,0.033l0.47,0.715c0.188,0.319,0.816,1.108,1.043,1.344
			c0.204,0.193,0.394,0.395,0.628,0.571c0.461,0.336,0.922,0.646,1.61,0.739c0.749,0.093,1.286-0.143,1.883-0.412
			c0.59-0.26,1.059-0.495,1.792-0.521c0.525-0.021,0.995,0.072,1.455,0.164c0.792,0.16,1.556,0.32,2.522-0.105
			c0.688-0.302,1.421-1.074,1.837-1.738c0.325-0.521,0.575-0.991,0.816-1.588c0.121-0.294,0.234-0.579,0.341-0.891
			c0.862-2.437,1.437-6.023,0.893-8.618c-0.213-0.983-0.575-1.806-1.098-2.554c-0.136-0.193-0.528-0.613-0.559-0.646l-0.016-0.025
			c-0.09-0.076-0.174-0.16-0.271-0.252c-0.621-0.571-1.468-1.058-2.292-1.234c-0.899-0.194-1.7,0.024-2.525,0.335
			c-0.144,0.051-0.611,0.277-0.703,0.286l0.727-2.192c0.211-0.529,0.552-0.958,0.816-1.352c0.098-0.143,0.227-0.261,0.318-0.387
			L96.27,3.493C96.09,3.694,95.961,3.82,95.787,4.038"/>
	</defs>
	<clipPath id="SVGID_4_">
		<use xlink:href="#SVGID_3_"  overflow="visible"/>
	</clipPath>
	<polygon clip-path="url(#SVGID_4_)" fill-rule="evenodd" clip-rule="evenodd" fill="#BED74A" points="81.617,14.698 96.037,2.015 
		96.173,2.208 81.753,14.892 	"/>
	<polygon clip-path="url(#SVGID_4_)" fill-rule="evenodd" clip-rule="evenodd" fill="#BED74A" points="81.686,14.8 96.104,2.107 
		96.24,2.3 81.813,14.984 	"/>
	<polygon clip-path="url(#SVGID_4_)" fill-rule="evenodd" clip-rule="evenodd" fill="#BED74A" points="81.753,14.891 96.172,2.207 
		96.308,2.393 81.883,15.077 	"/>
	<polygon clip-path="url(#SVGID_4_)" fill-rule="evenodd" clip-rule="evenodd" fill="#BDD74A" points="81.813,14.984 96.24,2.3 
		96.377,2.484 81.95,15.169 	"/>
	<polygon clip-path="url(#SVGID_4_)" fill-rule="evenodd" clip-rule="evenodd" fill="#BDD749" points="81.882,15.077 96.308,2.392 
		96.437,2.577 82.018,15.262 	"/>
	<polygon clip-path="url(#SVGID_4_)" fill-rule="evenodd" clip-rule="evenodd" fill="#BDD749" points="81.95,15.169 96.377,2.484 
		96.505,2.669 82.086,15.354 	"/>
	<polygon clip-path="url(#SVGID_4_)" fill-rule="evenodd" clip-rule="evenodd" fill="#BDD74A" points="82.018,15.262 96.437,2.577 
		96.573,2.762 82.146,15.454 	"/>
	<polygon clip-path="url(#SVGID_4_)" fill-rule="evenodd" clip-rule="evenodd" fill="#BDD74A" points="82.086,15.354 96.505,2.669 
		96.642,2.863 82.216,15.547 	"/>
	<polygon clip-path="url(#SVGID_4_)" fill-rule="evenodd" clip-rule="evenodd" fill="#BCD749" points="82.146,15.454 96.573,2.762 
		96.709,2.956 82.283,15.639 	"/>
	<polygon clip-path="url(#SVGID_4_)" fill-rule="evenodd" clip-rule="evenodd" fill="#BCD749" points="82.215,15.547 96.642,2.863 
		96.77,3.048 82.35,15.732 	"/>
	<polygon clip-path="url(#SVGID_4_)" fill-rule="evenodd" clip-rule="evenodd" fill="#BCD749" points="82.283,15.64 96.709,2.956 
		96.838,3.14 82.419,15.825 	"/>
	<polygon clip-path="url(#SVGID_4_)" fill-rule="evenodd" clip-rule="evenodd" fill="#BCD749" points="82.351,15.732 96.77,3.048 
		96.906,3.232 82.486,15.917 	"/>
	<polygon clip-path="url(#SVGID_4_)" fill-rule="evenodd" clip-rule="evenodd" fill="#BCD749" points="82.419,15.825 96.838,3.14 
		96.974,3.325 82.548,16.009 	"/>
	<polygon clip-path="url(#SVGID_4_)" fill-rule="evenodd" clip-rule="evenodd" fill="#BCD749" points="82.486,15.917 96.906,3.232 
		97.042,3.417 82.615,16.109 	"/>
	<polygon clip-path="url(#SVGID_4_)" fill-rule="evenodd" clip-rule="evenodd" fill="#BBD64A" points="82.548,16.009 96.974,3.325 
		97.11,3.518 82.684,16.203 	"/>
	<polygon clip-path="url(#SVGID_4_)" fill-rule="evenodd" clip-rule="evenodd" fill="#BBD64A" points="82.615,16.11 97.042,3.417 
		97.17,3.61 82.751,16.295 	"/>
	<polygon clip-path="url(#SVGID_4_)" fill-rule="evenodd" clip-rule="evenodd" fill="#BBD64B" points="82.684,16.203 97.11,3.518 
		97.238,3.702 82.818,16.387 	"/>
	<polygon clip-path="url(#SVGID_4_)" fill-rule="evenodd" clip-rule="evenodd" fill="#BBD64B" points="82.751,16.295 97.17,3.61 
		97.307,3.795 82.881,16.479 	"/>
	<polygon clip-path="url(#SVGID_4_)" fill-rule="evenodd" clip-rule="evenodd" fill="#BBD64A" points="82.819,16.387 97.238,3.703 
		97.374,3.887 82.948,16.571 	"/>
	<polygon clip-path="url(#SVGID_4_)" fill-rule="evenodd" clip-rule="evenodd" fill="#BBD64A" points="82.88,16.479 97.307,3.794 
		97.442,3.98 83.017,16.665 	"/>
	<polygon clip-path="url(#SVGID_4_)" fill-rule="evenodd" clip-rule="evenodd" fill="#BAD64A" points="82.948,16.572 97.374,3.887 
		97.503,4.073 83.084,16.765 	"/>
	<polygon clip-path="url(#SVGID_4_)" fill-rule="evenodd" clip-rule="evenodd" fill="#BAD64A" points="83.017,16.665 97.442,3.98 
		97.571,4.173 83.152,16.857 	"/>
	<polygon clip-path="url(#SVGID_4_)" fill-rule="evenodd" clip-rule="evenodd" fill="#BAD64A" points="83.084,16.765 97.503,4.072 
		97.64,4.266 83.221,16.95 	"/>
	<polygon clip-path="url(#SVGID_4_)" fill-rule="evenodd" clip-rule="evenodd" fill="#BAD64A" points="83.152,16.857 97.572,4.173 
		97.707,4.358 83.281,17.043 	"/>
	<polygon clip-path="url(#SVGID_4_)" fill-rule="evenodd" clip-rule="evenodd" fill="#BAD64A" points="83.221,16.95 97.64,4.266 
		97.775,4.451 83.35,17.135 	"/>
	<polygon clip-path="url(#SVGID_4_)" fill-rule="evenodd" clip-rule="evenodd" fill="#B9D54A" points="83.281,17.042 97.707,4.357 
		97.844,4.543 83.417,17.227 	"/>
	<polygon clip-path="url(#SVGID_4_)" fill-rule="evenodd" clip-rule="evenodd" fill="#B9D54A" points="83.349,17.134 97.775,4.45 
		97.904,4.635 83.484,17.319 	"/>
	<polygon clip-path="url(#SVGID_4_)" fill-rule="evenodd" clip-rule="evenodd" fill="#B9D54A" points="83.417,17.227 97.844,4.543 
		97.973,4.728 83.554,17.42 	"/>
	<polygon clip-path="url(#SVGID_4_)" fill-rule="evenodd" clip-rule="evenodd" fill="#B9D54A" points="83.484,17.319 97.903,4.635 
		98.04,4.829 83.621,17.513 	"/>
	<polygon clip-path="url(#SVGID_4_)" fill-rule="evenodd" clip-rule="evenodd" fill="#B9D54A" points="83.554,17.42 97.973,4.727 
		98.107,4.921 83.683,17.605 	"/>
	<polygon clip-path="url(#SVGID_4_)" fill-rule="evenodd" clip-rule="evenodd" fill="#B9D54A" points="83.621,17.513 98.04,4.829 
		98.176,5.013 83.75,17.697 	"/>
	<polygon clip-path="url(#SVGID_4_)" fill-rule="evenodd" clip-rule="evenodd" fill="#B8D54B" points="83.682,17.605 98.107,4.92 
		98.237,5.106 83.817,17.79 	"/>
	<polygon clip-path="url(#SVGID_4_)" fill-rule="evenodd" clip-rule="evenodd" fill="#B8D54A" points="83.75,17.698 98.176,5.013 
		98.305,5.198 83.886,17.883 	"/>
	<polygon clip-path="url(#SVGID_4_)" fill-rule="evenodd" clip-rule="evenodd" fill="#B8D54A" points="83.817,17.79 98.237,5.106 
		98.372,5.29 83.954,17.975 	"/>
	<polygon clip-path="url(#SVGID_4_)" fill-rule="evenodd" clip-rule="evenodd" fill="#B8D54A" points="83.886,17.883 98.305,5.198 
		98.44,5.383 84.015,18.075 	"/>
	<polygon clip-path="url(#SVGID_4_)" fill-rule="evenodd" clip-rule="evenodd" fill="#B8D54A" points="83.954,17.975 98.372,5.291 
		98.509,5.484 84.083,18.168 	"/>
	<polygon clip-path="url(#SVGID_4_)" fill-rule="evenodd" clip-rule="evenodd" fill="#B7D54B" points="84.015,18.075 98.44,5.382 
		98.577,5.576 84.15,18.26 	"/>
	<polygon clip-path="url(#SVGID_4_)" fill-rule="evenodd" clip-rule="evenodd" fill="#B7D54B" points="84.082,18.168 98.509,5.484 
		98.638,5.668 84.219,18.353 	"/>
	<polygon clip-path="url(#SVGID_4_)" fill-rule="evenodd" clip-rule="evenodd" fill="#B7D54B" points="84.15,18.26 98.577,5.576 
		98.705,5.761 84.286,18.445 	"/>
	<polygon clip-path="url(#SVGID_4_)" fill-rule="evenodd" clip-rule="evenodd" fill="#B7D54B" points="84.219,18.353 98.637,5.668 
		98.773,5.854 84.354,18.537 	"/>
	<polygon clip-path="url(#SVGID_4_)" fill-rule="evenodd" clip-rule="evenodd" fill="#B7D54B" points="84.286,18.445 98.705,5.761 
		98.842,5.945 84.415,18.63 	"/>
	<polygon clip-path="url(#SVGID_4_)" fill-rule="evenodd" clip-rule="evenodd" fill="#B7D54B" points="84.354,18.537 98.773,5.854 
		98.909,6.038 84.482,18.73 	"/>
	<polygon clip-path="url(#SVGID_4_)" fill-rule="evenodd" clip-rule="evenodd" fill="#B6D44B" points="84.415,18.63 98.842,5.946 
		98.978,6.139 84.551,18.823 	"/>
	<polygon clip-path="url(#SVGID_4_)" fill-rule="evenodd" clip-rule="evenodd" fill="#B6D44B" points="84.482,18.73 98.909,6.038 
		99.038,6.231 84.619,18.916 	"/>
	<polygon clip-path="url(#SVGID_4_)" fill-rule="evenodd" clip-rule="evenodd" fill="#B6D44B" points="84.551,18.823 98.978,6.139 
		99.106,6.324 84.687,19.008 	"/>
	<polygon clip-path="url(#SVGID_4_)" fill-rule="evenodd" clip-rule="evenodd" fill="#B6D44B" points="84.619,18.916 99.038,6.231 
		99.175,6.416 84.748,19.101 	"/>
	<polygon clip-path="url(#SVGID_4_)" fill-rule="evenodd" clip-rule="evenodd" fill="#B6D44B" points="84.687,19.008 99.106,6.324 
		99.242,6.508 84.815,19.192 	"/>
	<polygon clip-path="url(#SVGID_4_)" fill-rule="evenodd" clip-rule="evenodd" fill="#B5D44B" points="84.748,19.101 99.175,6.416 
		99.311,6.601 84.884,19.285 	"/>
	<polygon clip-path="url(#SVGID_4_)" fill-rule="evenodd" clip-rule="evenodd" fill="#B5D44B" points="84.815,19.192 99.242,6.508 
		99.371,6.693 84.951,19.386 	"/>
	<polygon clip-path="url(#SVGID_4_)" fill-rule="evenodd" clip-rule="evenodd" fill="#B5D44B" points="84.884,19.285 99.311,6.601 
		99.439,6.793 85.02,19.479 	"/>
	<polygon clip-path="url(#SVGID_4_)" fill-rule="evenodd" clip-rule="evenodd" fill="#B5D44B" points="84.951,19.386 99.37,6.693 
		99.507,6.887 85.088,19.571 	"/>
	<polygon clip-path="url(#SVGID_4_)" fill-rule="evenodd" clip-rule="evenodd" fill="#B5D44B" points="85.02,19.479 99.438,6.793 
		99.575,6.979 85.148,19.664 	"/>
	<polygon clip-path="url(#SVGID_4_)" fill-rule="evenodd" clip-rule="evenodd" fill="#B5D44B" points="85.088,19.571 99.507,6.887 
		99.643,7.072 85.217,19.756 	"/>
	<polygon clip-path="url(#SVGID_4_)" fill-rule="evenodd" clip-rule="evenodd" fill="#B4D44B" points="85.148,19.663 99.575,6.979 
		99.712,7.164 85.284,19.848 	"/>
	<polygon clip-path="url(#SVGID_4_)" fill-rule="evenodd" clip-rule="evenodd" fill="#B4D44B" points="85.217,19.756 99.643,7.072 
		99.771,7.256 85.353,19.94 	"/>
	<polygon clip-path="url(#SVGID_4_)" fill-rule="evenodd" clip-rule="evenodd" fill="#B4D44B" points="85.284,19.848 99.712,7.164 
		99.84,7.348 85.421,20.033 	"/>
	<polygon clip-path="url(#SVGID_4_)" fill-rule="evenodd" clip-rule="evenodd" fill="#B4D44B" points="85.353,19.94 99.771,7.256 
		99.908,7.449 85.48,20.134 	"/>
	<polygon clip-path="url(#SVGID_4_)" fill-rule="evenodd" clip-rule="evenodd" fill="#B4D44B" points="85.421,20.033 99.84,7.349 
		99.976,7.542 85.549,20.226 	"/>
	<polygon clip-path="url(#SVGID_4_)" fill-rule="evenodd" clip-rule="evenodd" fill="#B3D34C" points="85.48,20.134 99.908,7.449 
		100.044,7.634 85.617,20.318 	"/>
	<polygon clip-path="url(#SVGID_4_)" fill-rule="evenodd" clip-rule="evenodd" fill="#B3D34C" points="85.549,20.226 99.976,7.542 
		100.104,7.726 85.685,20.41 	"/>
	<polygon clip-path="url(#SVGID_4_)" fill-rule="evenodd" clip-rule="evenodd" fill="#B3D34C" points="85.617,20.318 100.044,7.634 
		100.173,7.819 85.754,20.503 	"/>
	<polygon clip-path="url(#SVGID_4_)" fill-rule="evenodd" clip-rule="evenodd" fill="#B3D34C" points="85.686,20.41 100.104,7.726 
		100.24,7.912 85.821,20.596 	"/>
	<polygon clip-path="url(#SVGID_4_)" fill-rule="evenodd" clip-rule="evenodd" fill="#B3D34C" points="85.754,20.503 100.172,7.819 
		100.308,8.003 85.882,20.688 	"/>
	<polygon clip-path="url(#SVGID_4_)" fill-rule="evenodd" clip-rule="evenodd" fill="#B3D34C" points="85.821,20.596 100.241,7.911 
		100.377,8.104 85.95,20.789 	"/>
	<polygon clip-path="url(#SVGID_4_)" fill-rule="evenodd" clip-rule="evenodd" fill="#B2D34C" points="85.882,20.688 100.308,8.003 
		100.444,8.197 86.018,20.881 	"/>
	<polygon clip-path="url(#SVGID_4_)" fill-rule="evenodd" clip-rule="evenodd" fill="#B2D34C" points="85.95,20.789 100.377,8.104 
		100.505,8.289 86.086,20.974 	"/>
	<polygon clip-path="url(#SVGID_4_)" fill-rule="evenodd" clip-rule="evenodd" fill="#B2D34C" points="86.018,20.882 100.444,8.197 
		100.573,8.382 86.154,21.066 	"/>
	<polygon clip-path="url(#SVGID_4_)" fill-rule="evenodd" clip-rule="evenodd" fill="#B2D34C" points="86.086,20.974 100.505,8.289 
		100.641,8.474 86.215,21.159 	"/>
	<polygon clip-path="url(#SVGID_4_)" fill-rule="evenodd" clip-rule="evenodd" fill="#B2D34C" points="86.154,21.066 100.573,8.382 
		100.709,8.566 86.282,21.251 	"/>
	<polygon clip-path="url(#SVGID_4_)" fill-rule="evenodd" clip-rule="evenodd" fill="#B0D24C" points="86.215,21.158 100.641,8.474 
		100.777,8.659 86.351,21.344 	"/>
	<polygon clip-path="url(#SVGID_4_)" fill-rule="evenodd" clip-rule="evenodd" fill="#B0D24C" points="86.282,21.251 100.709,8.566 
		100.838,8.751 86.419,21.444 	"/>
	<polygon clip-path="url(#SVGID_4_)" fill-rule="evenodd" clip-rule="evenodd" fill="#B0D24C" points="86.351,21.343 100.777,8.659 
		100.906,8.852 86.486,21.536 	"/>
	<polygon clip-path="url(#SVGID_4_)" fill-rule="evenodd" clip-rule="evenodd" fill="#B0D24C" points="86.419,21.444 100.838,8.751 
		100.974,8.944 86.555,21.629 	"/>
	<polygon clip-path="url(#SVGID_4_)" fill-rule="evenodd" clip-rule="evenodd" fill="#B0D24C" points="86.486,21.536 100.906,8.853 
		101.042,9.037 86.615,21.722 	"/>
	<polygon clip-path="url(#SVGID_4_)" fill-rule="evenodd" clip-rule="evenodd" fill="#B0D24C" points="86.555,21.629 100.974,8.944 
		101.11,9.129 86.683,21.813 	"/>
	<polygon clip-path="url(#SVGID_4_)" fill-rule="evenodd" clip-rule="evenodd" fill="#AFD24C" points="86.615,21.722 101.042,9.037 
		101.178,9.222 86.751,21.906 	"/>
	<polygon clip-path="url(#SVGID_4_)" fill-rule="evenodd" clip-rule="evenodd" fill="#AFD24C" points="86.683,21.813 101.11,9.129 
		101.238,9.314 86.819,21.998 	"/>
	<polygon clip-path="url(#SVGID_4_)" fill-rule="evenodd" clip-rule="evenodd" fill="#AFD24C" points="86.751,21.906 101.178,9.222 
		101.307,9.406 86.887,22.1 	"/>
	<polygon clip-path="url(#SVGID_4_)" fill-rule="evenodd" clip-rule="evenodd" fill="#AFD24C" points="86.819,21.998 101.238,9.314 
		101.374,9.507 86.955,22.191 	"/>
	<polygon clip-path="url(#SVGID_4_)" fill-rule="evenodd" clip-rule="evenodd" fill="#AFD24C" points="86.888,22.1 101.307,9.406 
		101.442,9.6 87.016,22.284 	"/>
	<polygon clip-path="url(#SVGID_4_)" fill-rule="evenodd" clip-rule="evenodd" fill="#AFD24C" points="86.955,22.191 101.374,9.508 
		101.511,9.692 87.085,22.377 	"/>
	<polygon clip-path="url(#SVGID_4_)" fill-rule="evenodd" clip-rule="evenodd" fill="#AED24D" points="87.016,22.284 101.442,9.6 
		101.571,9.784 87.152,22.469 	"/>
	<polygon clip-path="url(#SVGID_4_)" fill-rule="evenodd" clip-rule="evenodd" fill="#AED24D" points="87.084,22.377 101.511,9.692 
		101.639,9.877 87.221,22.562 	"/>
	<polygon clip-path="url(#SVGID_4_)" fill-rule="evenodd" clip-rule="evenodd" fill="#AED24D" points="87.152,22.469 101.571,9.785 
		101.707,9.969 87.288,22.653 	"/>
	<polygon clip-path="url(#SVGID_4_)" fill-rule="evenodd" clip-rule="evenodd" fill="#AED24D" points="87.221,22.561 101.639,9.877 
		101.775,10.062 87.349,22.754 	"/>
	<polygon clip-path="url(#SVGID_4_)" fill-rule="evenodd" clip-rule="evenodd" fill="#AED24D" points="87.288,22.653 101.707,9.969 
		101.844,10.163 87.417,22.847 	"/>
	<polygon clip-path="url(#SVGID_4_)" fill-rule="evenodd" clip-rule="evenodd" fill="#ADD14E" points="87.349,22.755 
		101.775,10.062 101.911,10.255 87.483,22.939 	"/>
	<polygon clip-path="url(#SVGID_4_)" fill-rule="evenodd" clip-rule="evenodd" fill="#ADD14E" points="87.416,22.847 
		101.844,10.163 101.972,10.347 87.553,23.031 	"/>
	<polygon clip-path="url(#SVGID_4_)" fill-rule="evenodd" clip-rule="evenodd" fill="#ADD14E" points="87.484,22.939 
		101.911,10.255 102.04,10.44 87.621,23.124 	"/>
	<polygon clip-path="url(#SVGID_4_)" fill-rule="evenodd" clip-rule="evenodd" fill="#AED24D" points="87.553,23.032 
		101.972,10.347 102.107,10.533 87.688,23.216 	"/>
	<polygon clip-path="url(#SVGID_4_)" fill-rule="evenodd" clip-rule="evenodd" fill="#AED24D" points="87.621,23.124 102.04,10.44 
		102.176,10.624 87.749,23.309 	"/>
	<polygon clip-path="url(#SVGID_4_)" fill-rule="evenodd" clip-rule="evenodd" fill="#AED24D" points="87.688,23.216 
		102.107,10.533 102.244,10.717 87.817,23.409 	"/>
	<polygon clip-path="url(#SVGID_4_)" fill-rule="evenodd" clip-rule="evenodd" fill="#ADD14D" points="87.749,23.309 
		102.176,10.624 102.313,10.818 87.886,23.502 	"/>
	<polygon clip-path="url(#SVGID_4_)" fill-rule="evenodd" clip-rule="evenodd" fill="#ADD14D" points="87.817,23.409 
		102.244,10.717 102.372,10.91 87.953,23.595 	"/>
	<polygon clip-path="url(#SVGID_4_)" fill-rule="evenodd" clip-rule="evenodd" fill="#ADD14D" points="87.886,23.502 
		102.313,10.818 102.44,11.003 88.021,23.688 	"/>
	<polygon clip-path="url(#SVGID_4_)" fill-rule="evenodd" clip-rule="evenodd" fill="#ADD14E" points="87.953,23.595 102.372,10.91 
		102.509,11.095 88.083,23.779 	"/>
	<polygon clip-path="url(#SVGID_4_)" fill-rule="evenodd" clip-rule="evenodd" fill="#ADD14E" points="88.021,23.688 102.44,11.003 
		102.576,11.187 88.15,23.871 	"/>
	<polygon clip-path="url(#SVGID_4_)" fill-rule="evenodd" clip-rule="evenodd" fill="#ABD14E" points="88.082,23.779 
		102.509,11.095 102.645,11.279 88.219,23.964 	"/>
	<polygon clip-path="url(#SVGID_4_)" fill-rule="evenodd" clip-rule="evenodd" fill="#ABD14E" points="88.15,23.871 102.576,11.187 
		102.705,11.372 88.286,24.064 	"/>
	<polygon clip-path="url(#SVGID_4_)" fill-rule="evenodd" clip-rule="evenodd" fill="#ABD14E" points="88.219,23.964 102.645,11.28 
		102.773,11.473 88.354,24.157 	"/>
	<polygon clip-path="url(#SVGID_4_)" fill-rule="evenodd" clip-rule="evenodd" fill="#ABD14E" points="88.286,24.065 
		102.705,11.372 102.841,11.565 88.422,24.25 	"/>
	<polygon clip-path="url(#SVGID_4_)" fill-rule="evenodd" clip-rule="evenodd" fill="#ABD14E" points="88.354,24.157 
		102.772,11.473 102.909,11.658 88.482,24.343 	"/>
	<polygon clip-path="url(#SVGID_4_)" fill-rule="evenodd" clip-rule="evenodd" fill="#ABD14E" points="88.422,24.25 102.841,11.565 
		102.977,11.75 88.552,24.435 	"/>
	<polygon clip-path="url(#SVGID_4_)" fill-rule="evenodd" clip-rule="evenodd" fill="#AAD04D" points="88.482,24.343 
		102.909,11.658 103.046,11.843 88.619,24.527 	"/>
	<polygon clip-path="url(#SVGID_4_)" fill-rule="evenodd" clip-rule="evenodd" fill="#AAD04E" points="88.551,24.435 102.977,11.75 
		103.105,11.935 88.687,24.619 	"/>
	<polygon clip-path="url(#SVGID_4_)" fill-rule="evenodd" clip-rule="evenodd" fill="#AAD04E" points="88.619,24.527 
		103.046,11.842 103.174,12.027 88.755,24.721 	"/>
	<polygon clip-path="url(#SVGID_4_)" fill-rule="evenodd" clip-rule="evenodd" fill="#AAD04E" points="88.687,24.619 
		103.105,11.935 103.242,12.128 88.815,24.813 	"/>
	<polygon clip-path="url(#SVGID_4_)" fill-rule="evenodd" clip-rule="evenodd" fill="#AAD04E" points="88.755,24.721 
		103.174,12.027 103.31,12.221 88.884,24.905 	"/>
	<polygon clip-path="url(#SVGID_4_)" fill-rule="evenodd" clip-rule="evenodd" fill="#A9D04E" points="88.815,24.813 
		103.242,12.128 103.378,12.313 88.951,24.997 	"/>
	<polygon clip-path="url(#SVGID_4_)" fill-rule="evenodd" clip-rule="evenodd" fill="#A9D04E" points="88.884,24.905 103.31,12.221 
		103.438,12.405 89.02,25.09 	"/>
	<polygon clip-path="url(#SVGID_4_)" fill-rule="evenodd" clip-rule="evenodd" fill="#A9D04E" points="88.951,24.997 
		103.378,12.313 103.507,12.498 89.088,25.182 	"/>
	<polygon clip-path="url(#SVGID_4_)" fill-rule="evenodd" clip-rule="evenodd" fill="#A9D04E" points="89.02,25.09 103.438,12.405 
		103.574,12.59 89.155,25.274 	"/>
	<polygon clip-path="url(#SVGID_4_)" fill-rule="evenodd" clip-rule="evenodd" fill="#A9D04E" points="89.088,25.182 
		103.507,12.498 103.644,12.683 89.218,25.375 	"/>
	<polygon clip-path="url(#SVGID_4_)" fill-rule="evenodd" clip-rule="evenodd" fill="#A9D04E" points="89.155,25.274 103.574,12.59 
		103.711,12.783 89.285,25.468 	"/>
	<polygon clip-path="url(#SVGID_4_)" fill-rule="evenodd" clip-rule="evenodd" fill="#A8D04F" points="89.217,25.375 
		103.644,12.683 103.779,12.876 89.353,25.561 	"/>
	<polygon clip-path="url(#SVGID_4_)" fill-rule="evenodd" clip-rule="evenodd" fill="#A8D04F" points="89.284,25.468 
		103.711,12.783 103.84,12.968 89.42,25.652 	"/>
	<polygon clip-path="url(#SVGID_4_)" fill-rule="evenodd" clip-rule="evenodd" fill="#A8D04F" points="89.353,25.561 
		103.779,12.876 103.908,13.061 89.488,25.745 	"/>
	<polygon clip-path="url(#SVGID_4_)" fill-rule="evenodd" clip-rule="evenodd" fill="#A9D04E" points="89.42,25.652 103.839,12.968 
		103.976,13.153 89.55,25.837 	"/>
	<polygon clip-path="url(#SVGID_4_)" fill-rule="evenodd" clip-rule="evenodd" fill="#A9D04E" points="89.488,25.745 
		103.908,13.061 104.044,13.246 89.617,25.931 	"/>
	<polygon clip-path="url(#SVGID_4_)" fill-rule="evenodd" clip-rule="evenodd" fill="#A8D04F" points="89.549,25.838 
		103.976,13.153 104.111,13.338 89.685,26.03 	"/>
	<polygon clip-path="url(#SVGID_4_)" fill-rule="evenodd" clip-rule="evenodd" fill="#A8D04F" points="89.617,25.931 
		104.044,13.245 104.172,13.438 89.753,26.123 	"/>
	<polygon clip-path="url(#SVGID_4_)" fill-rule="evenodd" clip-rule="evenodd" fill="#A8D04F" points="89.685,26.03 104.111,13.338 
		104.24,13.531 89.821,26.215 	"/>
	<polygon clip-path="url(#SVGID_4_)" fill-rule="evenodd" clip-rule="evenodd" fill="#A8D04F" points="89.753,26.123 
		104.172,13.439 104.308,13.623 89.89,26.308 	"/>
	<polygon clip-path="url(#SVGID_4_)" fill-rule="evenodd" clip-rule="evenodd" fill="#A8D04F" points="89.821,26.215 104.24,13.531 
		104.377,13.716 89.95,26.4 	"/>
	<polygon clip-path="url(#SVGID_4_)" fill-rule="evenodd" clip-rule="evenodd" fill="#A8D04F" points="89.89,26.308 104.308,13.624 
		104.444,13.808 90.018,26.492 	"/>
	<polygon clip-path="url(#SVGID_4_)" fill-rule="evenodd" clip-rule="evenodd" fill="#A6CF4F" points="89.95,26.4 104.377,13.715 
		104.513,13.901 90.086,26.585 	"/>
	<polygon clip-path="url(#SVGID_4_)" fill-rule="evenodd" clip-rule="evenodd" fill="#A6CF4F" points="90.018,26.492 
		104.444,13.808 104.572,13.993 90.153,26.677 	"/>
	<polygon clip-path="url(#SVGID_4_)" fill-rule="evenodd" clip-rule="evenodd" fill="#A6CF4F" points="90.086,26.585 
		104.513,13.901 104.642,14.094 90.222,26.777 	"/>
	<polygon clip-path="url(#SVGID_4_)" fill-rule="evenodd" clip-rule="evenodd" fill="#A6CF4F" points="90.154,26.677 
		104.572,13.993 104.709,14.186 90.29,26.87 	"/>
	<polygon clip-path="url(#SVGID_4_)" fill-rule="evenodd" clip-rule="evenodd" fill="#A6CF4F" points="90.222,26.777 
		104.641,14.094 104.777,14.278 90.351,26.963 	"/>
	<polygon clip-path="url(#SVGID_4_)" fill-rule="evenodd" clip-rule="evenodd" fill="#A5CF4F" points="90.29,26.87 104.709,14.186 
		104.845,14.371 90.419,27.055 	"/>
	<polygon clip-path="url(#SVGID_4_)" fill-rule="evenodd" clip-rule="evenodd" fill="#A5CF4F" points="90.351,26.963 
		104.777,14.278 104.905,14.463 90.486,27.147 	"/>
	<polygon clip-path="url(#SVGID_4_)" fill-rule="evenodd" clip-rule="evenodd" fill="#A5CF4F" points="90.419,27.055 
		104.845,14.371 104.973,14.556 90.555,27.24 	"/>
	<polygon clip-path="url(#SVGID_4_)" fill-rule="evenodd" clip-rule="evenodd" fill="#A5CF4F" points="90.486,27.147 
		104.905,14.463 105.042,14.648 90.623,27.332 	"/>
	<polygon clip-path="url(#SVGID_4_)" fill-rule="evenodd" clip-rule="evenodd" fill="#A6CF4F" points="90.555,27.24 104.973,14.556 
		105.11,14.749 90.684,27.434 	"/>
	<polygon clip-path="url(#SVGID_4_)" fill-rule="evenodd" clip-rule="evenodd" fill="#A6CF4F" points="90.623,27.333 
		105.042,14.648 105.177,14.841 90.752,27.525 	"/>
	<polygon clip-path="url(#SVGID_4_)" fill-rule="evenodd" clip-rule="evenodd" fill="#A4CF4F" points="90.684,27.434 105.11,14.749 
		105.246,14.934 90.819,27.618 	"/>
	<polygon clip-path="url(#SVGID_4_)" fill-rule="evenodd" clip-rule="evenodd" fill="#A4CF4F" points="90.751,27.526 
		105.177,14.842 105.306,15.026 90.887,27.711 	"/>
	<polygon clip-path="url(#SVGID_4_)" fill-rule="evenodd" clip-rule="evenodd" fill="#A4CF4F" points="90.819,27.618 
		105.246,14.934 105.374,15.119 90.955,27.803 	"/>
	<polygon clip-path="url(#SVGID_4_)" fill-rule="evenodd" clip-rule="evenodd" fill="#A4CF4F" points="90.887,27.711 
		105.306,15.027 105.442,15.211 91.023,27.896 	"/>
	<polygon clip-path="url(#SVGID_4_)" fill-rule="evenodd" clip-rule="evenodd" fill="#A4CF4F" points="90.955,27.803 
		105.374,15.119 105.51,15.303 91.085,27.987 	"/>
	<polygon clip-path="url(#SVGID_4_)" fill-rule="evenodd" clip-rule="evenodd" fill="#A4CF4F" points="91.023,27.896 
		105.442,15.211 105.579,15.396 91.152,28.088 	"/>
	<polygon clip-path="url(#SVGID_4_)" fill-rule="evenodd" clip-rule="evenodd" fill="#A3CE4F" points="91.084,27.987 105.51,15.303 
		105.646,15.497 91.22,28.182 	"/>
	<polygon clip-path="url(#SVGID_4_)" fill-rule="evenodd" clip-rule="evenodd" fill="#A3CE4F" points="91.152,28.088 
		105.579,15.396 105.707,15.589 91.288,28.273 	"/>
	<polygon clip-path="url(#SVGID_4_)" fill-rule="evenodd" clip-rule="evenodd" fill="#A3CE50" points="91.22,28.182 105.646,15.496 
		105.775,15.682 91.356,28.366 	"/>
	<polygon clip-path="url(#SVGID_4_)" fill-rule="evenodd" clip-rule="evenodd" fill="#A3CE50" points="91.288,28.273 
		105.707,15.589 105.843,15.774 91.417,28.458 	"/>
	<polygon clip-path="url(#SVGID_4_)" fill-rule="evenodd" clip-rule="evenodd" fill="#A4CF4F" points="91.356,28.365 
		105.775,15.681 105.911,15.866 91.484,28.551 	"/>
	<polygon clip-path="url(#SVGID_4_)" fill-rule="evenodd" clip-rule="evenodd" fill="#A2CE50" points="91.417,28.458 
		105.843,15.774 105.979,15.958 91.553,28.643 	"/>
	<polygon clip-path="url(#SVGID_4_)" fill-rule="evenodd" clip-rule="evenodd" fill="#A2CE50" points="91.484,28.551 
		105.911,15.866 106.039,16.051 91.621,28.744 	"/>
	<polygon clip-path="url(#SVGID_4_)" fill-rule="evenodd" clip-rule="evenodd" fill="#A2CE50" points="91.553,28.644 
		105.979,15.958 106.108,16.151 91.688,28.836 	"/>
	<polygon clip-path="url(#SVGID_4_)" fill-rule="evenodd" clip-rule="evenodd" fill="#A2CE50" points="91.621,28.744 
		106.039,16.051 106.176,16.245 91.757,28.929 	"/>
	<polygon clip-path="url(#SVGID_4_)" fill-rule="evenodd" clip-rule="evenodd" fill="#A2CE50" points="91.688,28.836 
		106.108,16.151 106.244,16.337 91.817,29.021 	"/>
	<polygon clip-path="url(#SVGID_4_)" fill-rule="evenodd" clip-rule="evenodd" fill="#A2CE50" points="91.757,28.929 
		106.176,16.245 106.312,16.429 91.885,29.113 	"/>
	<polygon clip-path="url(#SVGID_4_)" fill-rule="evenodd" clip-rule="evenodd" fill="#A1CE51" points="91.817,29.021 
		106.244,16.337 106.38,16.521 91.953,29.206 	"/>
	<polygon clip-path="url(#SVGID_4_)" fill-rule="evenodd" clip-rule="evenodd" fill="#A1CE51" points="91.885,29.113 
		106.312,16.429 106.44,16.614 92.021,29.299 	"/>
	<polygon clip-path="url(#SVGID_4_)" fill-rule="evenodd" clip-rule="evenodd" fill="#A1CE51" points="91.953,29.206 106.38,16.521 
		106.509,16.706 92.09,29.399 	"/>
	<polygon clip-path="url(#SVGID_4_)" fill-rule="evenodd" clip-rule="evenodd" fill="#A1CE51" points="92.021,29.299 106.44,16.614 
		106.577,16.808 92.15,29.492 	"/>
	<polygon clip-path="url(#SVGID_4_)" fill-rule="evenodd" clip-rule="evenodd" fill="#A1CE51" points="92.09,29.398 106.509,16.706 
		106.645,16.9 92.219,29.584 	"/>
	<polygon clip-path="url(#SVGID_4_)" fill-rule="evenodd" clip-rule="evenodd" fill="#A1CE51" points="92.15,29.491 106.577,16.807 
		106.713,16.992 92.286,29.677 	"/>
	<polygon clip-path="url(#SVGID_4_)" fill-rule="evenodd" clip-rule="evenodd" fill="#A1CE51" points="92.219,29.584 106.645,16.9 
		106.773,17.084 92.354,29.769 	"/>
	<polygon clip-path="url(#SVGID_4_)" fill-rule="evenodd" clip-rule="evenodd" fill="#A1CE51" points="92.286,29.677 
		106.713,16.992 106.842,17.176 92.423,29.861 	"/>
	<polygon clip-path="url(#SVGID_4_)" fill-rule="evenodd" clip-rule="evenodd" fill="#A1CE51" points="92.354,29.769 
		106.773,17.084 106.909,17.269 92.49,29.954 	"/>
	<polygon clip-path="url(#SVGID_4_)" fill-rule="evenodd" clip-rule="evenodd" fill="#A1CE51" points="92.423,29.86 106.842,17.176 
		106.978,17.361 92.551,30.055 	"/>
	<polygon clip-path="url(#SVGID_4_)" fill-rule="evenodd" clip-rule="evenodd" fill="#A1CE51" points="92.49,29.954 106.909,17.269 
		107.046,17.462 92.619,30.146 	"/>
	<polygon clip-path="url(#SVGID_4_)" fill-rule="evenodd" clip-rule="evenodd" fill="#A0CD51" points="92.551,30.055 
		106.978,17.361 107.113,17.555 92.687,30.238 	"/>
	<polygon clip-path="url(#SVGID_4_)" fill-rule="evenodd" clip-rule="evenodd" fill="#A0CD51" points="92.618,30.146 
		107.046,17.462 107.174,17.647 92.755,30.331 	"/>
	<polygon clip-path="url(#SVGID_4_)" fill-rule="evenodd" clip-rule="evenodd" fill="#A0CD51" points="92.687,30.239 
		107.113,17.554 107.242,17.74 92.822,30.424 	"/>
	<polygon clip-path="url(#SVGID_4_)" fill-rule="evenodd" clip-rule="evenodd" fill="#A0CD51" points="92.755,30.331 
		107.174,17.646 107.31,17.832 92.884,30.517 	"/>
	<polygon clip-path="url(#SVGID_4_)" fill-rule="evenodd" clip-rule="evenodd" fill="#A0CD51" points="92.822,30.424 
		107.241,17.739 107.378,17.924 92.951,30.608 	"/>
	<polygon clip-path="url(#SVGID_4_)" fill-rule="evenodd" clip-rule="evenodd" fill="#9FCD51" points="92.883,30.517 107.31,17.832 
		107.446,18.017 93.02,30.71 	"/>
	<polygon clip-path="url(#SVGID_4_)" fill-rule="evenodd" clip-rule="evenodd" fill="#9FCD51" points="92.951,30.608 
		107.378,17.925 107.507,18.117 93.088,30.802 	"/>
	<polygon clip-path="url(#SVGID_4_)" fill-rule="evenodd" clip-rule="evenodd" fill="#9FCD51" points="93.02,30.71 107.446,18.018 
		107.574,18.21 93.155,30.895 	"/>
	<polygon clip-path="url(#SVGID_4_)" fill-rule="evenodd" clip-rule="evenodd" fill="#9FCD51" points="93.088,30.802 
		107.507,18.117 107.643,18.303 93.223,30.986 	"/>
	<polygon clip-path="url(#SVGID_4_)" fill-rule="evenodd" clip-rule="evenodd" fill="#9FCD52" points="93.155,30.895 107.574,18.21 
		107.711,18.395 93.284,31.079 	"/>
	<polygon clip-path="url(#SVGID_4_)" fill-rule="evenodd" clip-rule="evenodd" fill="#9FCD51" points="93.224,30.986 
		107.643,18.303 107.778,18.487 93.352,31.172 	"/>
	<polygon clip-path="url(#SVGID_4_)" fill-rule="evenodd" clip-rule="evenodd" fill="#9ECD51" points="93.284,31.079 
		107.711,18.395 107.847,18.579 93.421,31.264 	"/>
</g>
<g>
	<defs>
		<rect id="SVGID_5_" x="-0.629" y="-0.329" width="108.476" height="31.593"/>
	</defs>
	<clipPath id="SVGID_6_">
		<use xlink:href="#SVGID_5_"  overflow="visible"/>
	</clipPath>
	<path clip-path="url(#SVGID_6_)" fill-rule="evenodd" clip-rule="evenodd" fill="#8DA43C" d="M90.328,7.592l0.06,0.026L90.6,7.407
		c0.008-0.008,0.054-0.059,0.061-0.059c0,0.034-0.007,0.025,0.023,0.009c0.015,0.025-0.023,0.025,0.037,0.025
		c0.016,0.017-0.03,0.025,0.038,0.017c0.016,0.017-0.045,0.025,0.045,0.025l0.038,0.017l-0.038-0.017l-0.045-0.025l-0.038-0.017
		l-0.037-0.025L90.66,7.348c-0.045-0.067-0.136-0.083-0.188-0.176c-0.038-0.067-0.099-0.118-0.151-0.219
		c-0.038-0.075-0.076-0.168-0.099-0.26c-0.151-0.588,0.053-1.033,0.303-1.487c0.12-0.21,0.136-0.168,0.136-0.168
		c0.054-0.008-0.037-0.092,0.016,0.009c0.038,0,0.03,0.008,0.022-0.034c-0.03-0.025-0.045-0.017-0.008-0.017
		c0.046-0.025,0.016,0.009,0.046-0.042c0-0.008,0.015-0.042,0.022-0.05c0.061-0.16,0.341-0.513,0.453-0.597l0.016-0.017l0.015-0.017
		l0.023-0.025l0.016-0.018c0.211-0.201,0.392-0.327,0.649-0.503c0.181-0.076,0.311-0.16,0.537-0.227
		c0.257-0.068,0.408-0.042,0.657-0.076l0.022,0.008l-0.022-0.008c-0.076-0.177-1.088-1.16-1.33-1.277
		c-0.008,0.042,0.03,0.117,0.03,0.176c0.008,0.076,0,0.151-0.008,0.227c0.022-0.05,0.029-0.092,0.029-0.151
		c0.099,0.251,0.009,0.42-0.037,0.622c-0.052,0.092-0.015,0.042-0.091,0.143c-0.234,0.328-0.93,0.429-1.104,0.227
		c-0.182-0.059-0.341-0.235-0.423-0.403c-0.129-0.243-0.122-0.395-0.122-0.696l0.022-0.068l0.03-0.125l0.031-0.009l-0.031,0.009
		c-0.045-0.068,0.054-0.228,0.075-0.294l0.009-0.009c0.067-0.151,0.233-0.336,0.416-0.37L90.6,1.376
		c-0.469-0.252-1.081-0.488-1.641-0.63l-1.995-0.244c-0.061,0.479,0.204,1.806,0.339,2.31c0.189,0.714,0.439,1.319,0.734,1.907
		c0.144,0.302,0.311,0.563,0.476,0.823c0.341,0.538,0.454,0.655,0.824,1.1c0.105,0.126,0.213,0.21,0.318,0.328
		C89.776,7.113,90.192,7.5,90.328,7.592"/>
	<path clip-path="url(#SVGID_6_)" fill-rule="evenodd" clip-rule="evenodd" fill="#FFFFFF" d="M90.819,5.417
		c0.022,0.051,0.03,0.042-0.023,0.034c-0.188,0.218-0.166,0.713,0.114,1.033c0.083,0.101,0.241,0.218,0.393,0.294
		c0.083,0.034,0.16,0.067,0.242,0.084c0.084,0.025,0.197,0.034,0.265,0.059c0.099-0.008,0.204,0,0.31-0.008
		c0.091-0.009,0.197-0.034,0.288-0.034l0.075-0.009l0.045-0.025c0,0,0.016-0.008,0.023-0.008c0.128-0.042,0.355-0.101,0.446-0.168
		c0.007-0.008,0.021-0.025,0.021-0.033c0-0.009,0.008-0.009,0.008-0.009c-0.219-0.067-0.324-0.134-0.438-0.168
		c-0.062-0.017-0.068-0.025-0.114-0.059c-0.007,0-0.015,0-0.015-0.008l-0.099-0.412c-0.091-0.092-0.196-0.15-0.303-0.193
		c0.061-0.092,0.092-0.118,0.197-0.176l0.046-0.017l0.196-0.151c0-0.05-0.008-0.042,0.029-0.025
		C92.475,5.392,90.918,5.399,90.819,5.417"/>
	<path clip-path="url(#SVGID_6_)" fill-rule="evenodd" clip-rule="evenodd" fill="#BCC0C4" d="M100.822,25.602l-0.015,0.025
		l-0.023,0.018l-0.022,0.017l-0.022,0.017l-0.015,0.017c0,0.025,0.007,0.025-0.023,0.018c0,0.033,0.008,0.024-0.022,0.024
		c-0.067,0.109-0.446,0.387-0.59,0.487c-0.181,0.126-0.446,0.269-0.681,0.37c-0.211,0.092-0.159,0.075-0.393,0.143
		c-0.257,0.076-0.605,0.151-0.87,0.159c-0.12,0-0.4-0.025-0.491,0.009c-0.053-0.025-0.233-0.042-0.325-0.025L97.2,26.854
		c0.03,0.016-0.03,0.008,0.061,0.024c0.068,0.017,0.038,0.009,0.068,0c0.045,0.025,0.016,0.009,0.076,0.025
		c0.022,0,0.06,0.009,0.083,0.009c0.067,0.008,0.099,0.008,0.166-0.009c-0.067,0.101-0.265,0.143-0.348,0.193
		c-0.022,0.017-0.038,0.017-0.068,0.033c-0.12,0.051-0.278,0.144-0.393,0.202c-0.114,0.066-0.196,0.084-0.318,0.084
		c0.038,0.033,0.068,0.041,0.114,0.05c0.31,0.093,0.453,0.135,0.794,0.201c0.552,0.109,0.604,0.043,1.036,0.059
		c0.029-0.024,0.151-0.024,0.227-0.066l0.31-0.219c0.022-0.024,0.022-0.024,0.038-0.034c0.03-0.016,0.022-0.016,0.053-0.033
		l0.113-0.092c0.228-0.168,0.612-0.513,0.809-0.697l0.779-0.873c0.053-0.06,0.038-0.009,0.099-0.126l0.022-0.034
		c0.03-0.042,0.038-0.033,0.075-0.101l-0.128,0.117C100.845,25.586,100.845,25.586,100.822,25.602"/>
	<path clip-path="url(#SVGID_6_)" fill-rule="evenodd" clip-rule="evenodd" fill="#868B90" d="M96.527,27.417
		c0.122,0,0.204-0.018,0.318-0.085c0.114-0.059,0.272-0.15,0.393-0.201c0.03-0.017,0.046-0.017,0.068-0.033
		c0.083-0.051,0.28-0.093,0.348-0.193c-0.067,0.017-0.099,0.017-0.166,0.008c-0.023,0-0.061-0.008-0.083-0.008
		c-0.061-0.017-0.031,0-0.076-0.025c-0.03,0.009,0,0.018-0.067,0c-0.092-0.017-0.031-0.009-0.062-0.025
		c-0.598,0.017-1.716-0.579-2.933-0.084c-1.18,0.487-1.293,0.731-2.686,0.757l0.651,0.075c1.089,0.067,1.98-0.681,3.138-0.504
		C95.824,27.173,96.346,27.392,96.527,27.417"/>
	<path clip-path="url(#SVGID_6_)" fill-rule="evenodd" clip-rule="evenodd" fill="#62A143" d="M90.472,7.172
		c0.053,0.092,0.144,0.108,0.188,0.176l0.023,0.008l0.037,0.026l0.038,0.017l0.046,0.025l0.037,0.017
		c0.113,0.017,0.226,0.076,0.348,0.101c0.612,0.143,1.429-0.008,1.981-0.302c0.105-0.051,0.514-0.286,0.589-0.412
		c-0.053-0.025-0.029-0.009-0.075-0.059c-0.075-0.101-0.083-0.16-0.129-0.194l0.038-0.067c-0.082,0.025-0.188,0.076-0.264,0.109
		c-0.219,0.109-0.658,0.252-0.848,0.252l-0.075,0.008c-0.091,0-0.197,0.025-0.288,0.034c-0.105,0.008-0.211,0-0.311,0.008
		c-0.241,0.034-0.521-0.033-0.717-0.117c-0.174-0.067-0.326-0.168-0.432-0.328l-0.045-0.059c0.045,0.134,0.091,0.168,0.173,0.227
		c-0.067,0.109-0.195,0.303-0.219,0.429c-0.007,0.05,0,0.058-0.03,0.092C90.501,7.197,90.555,7.206,90.472,7.172"/>
	<path clip-path="url(#SVGID_6_)" fill-rule="evenodd" clip-rule="evenodd" fill="#62A143" d="M91.931,3.728l-0.022,0.033
		c0.091,0,0.045,0,0.083,0.025c-0.038-0.008-0.029-0.025-0.029,0.017C91.9,3.787,91.938,3.795,91.923,3.82
		c-0.061-0.008-0.022-0.008-0.038,0.018c-0.038-0.008-0.029-0.018-0.029,0.025c0.045,0,0.037,0.017,0.029-0.025
		c0.053,0.008,0.03,0.008,0.038-0.018c0.061,0,0.03,0.009,0.039-0.016c0.037,0.008,0.044,0.025,0.029-0.017
		c0.12,0,0.348-0.168,0.695-0.101c0.045,0.008,0.076,0.016,0.114,0.033c0.105,0.042,0.066,0.025,0.075,0.025l-0.053,0.034
		c0.31-0.05,0.552-0.076,0.793,0.101c0.091,0.059,0.182,0.159,0.22,0.277c0.046,0.125,0.03,0.352-0.061,0.412
		c-0.029,0.058-0.029,0.058-0.075,0.1c-0.046,0.051-0.03,0.034-0.084,0.068L93.602,4.77c0.083,0.009,0.083,0.059,0.151,0.109
		c0.06,0.05,0.098,0.084,0.136,0.159c-0.038-0.017-0.03-0.033-0.03,0.009l0.03-0.009l0.349-0.017l0.037,0.067
		c0.054,0.143,0.016,0.16,0.008,0.278l-0.015,0.05c0.022-0.017,0.022,0.025,0.015-0.05l0.046-0.017
		c0.038,0.076,0.038,0.059,0.075,0.118c0.007,0,0.007,0.008,0.007,0.017l0.022,0.034c0.047,0.092,0.03,0.017,0.039,0.108
		l0.008,0.067c0.03-0.033,0,0.008,0.021-0.042c0.009,0,0.023-0.033,0.023-0.042c-0.053-0.118,0.136-0.311,0.053-0.815
		c-0.128-0.764-0.65-1.311-1.43-1.361l-0.022-0.008c-0.249,0.033-0.4,0.008-0.657,0.076C92.241,3.568,92.111,3.652,91.931,3.728"/>
	<path clip-path="url(#SVGID_6_)" fill-rule="evenodd" clip-rule="evenodd" fill="#FFFFFF" d="M92.822,3.778l-0.279,0.092
		c-0.061,0.076-0.144,0.076-0.182,0.135c0,0.008-0.008,0.008-0.008,0.017l-0.052,0.066c0.044,0.025,0.098,0.034,0.15,0.06
		c0.03,0.017,0.022,0.017,0.038,0.024l0.022,0.009c0.105,0.05,0.31,0.101,0.324,0.109c0.054,0.034,0.017-0.025,0.017,0.042
		l0.453,0.176c0.053,0.026,0.03,0.017,0.068,0.042c0,0.009,0.008,0.009,0.008,0.009c0.06,0.042,0.219,0.084,0.287,0.109l0.106-0.101
		c0.09-0.06,0.105-0.286,0.06-0.412c-0.038-0.118-0.129-0.219-0.22-0.277C93.375,3.703,93.134,3.728,92.822,3.778"/>
	<path clip-path="url(#SVGID_6_)" fill-rule="evenodd" clip-rule="evenodd" fill="#AFCB3A" d="M93.035,5.575
		c0,0.026,0.007,0.026-0.016,0.018c-0.016,0.033-0.007,0.017-0.022,0.042l-0.008,0.009c-0.008,0-0.008,0.008-0.015,0.008
		c0.007,0.042,0.022,0.034-0.015,0.034c-0.023,0.083-0.039,0.15-0.031,0.26c0.075,0.05,0.711,0.076,0.847,0.117
		c0.031,0.034,0.015,0.042,0.015,0.042c0-0.009-0.015,0.008-0.015,0.008c-0.037,0.051-0.008,0.034-0.068,0.076
		c0.008,0.034,0.016,0.025-0.015,0.017c0,0.025,0.008,0.025-0.022,0.017c0,0.025,0.008,0.017-0.022,0.017l-0.023,0.025
		c-0.038,0.033-0.03,0.025-0.083,0.059c-0.045,0.092-0.431,0.302-0.544,0.344c-0.091,0.067-0.317,0.125-0.446,0.168
		c-0.008,0-0.023,0.009-0.023,0.009L92.481,6.87l-0.074,0.008l0.074-0.008c0.19,0,0.629-0.143,0.849-0.252
		c0.075-0.033,0.182-0.084,0.264-0.109c0.084-0.066,0.318-0.193,0.363-0.269c0-0.051-0.008-0.042,0.03-0.034
		c0-0.025-0.008-0.017,0.022-0.009c0-0.033-0.007-0.025,0.022-0.016l0.023-0.034c0-0.034-0.008-0.025,0.022-0.017
		c-0.009-0.034-0.009-0.025,0.022-0.017c-0.008-0.033-0.008-0.025,0.015-0.017c0-0.034,0-0.025,0.023-0.016l0.022-0.018
		c0-0.034-0.008-0.025,0.015-0.025c0-0.026-0.008-0.026,0.023-0.017c-0.007-0.034-0.015-0.025,0.015-0.017
		c-0.007-0.084-0.021-0.126-0.067-0.186l-0.046-0.05c0.008,0.034,0.008,0.025-0.015,0.025l-0.017,0.025
		c0.009,0.034,0.017,0.025-0.014,0.025c0.008,0.034,0.014,0.025-0.016,0.025c0.008,0.034,0.016,0.025-0.015,0.025
		c0.007,0.034,0.015,0.025-0.016,0.017c0.008,0.034,0.008,0.025-0.022,0.017c0.008,0.034,0.016,0.025-0.015,0.025
		c0.007,0.033,0.007,0.025-0.023,0.016c0.008,0.035,0.015,0.026-0.015,0.017c0.007,0.042,0.007,0.025-0.022,0.025
		c-0.024,0.026-0.007,0.017-0.046,0.042l-0.068,0.026c0.038-0.076,0.03-0.076,0.09-0.135l0.107-0.227
		c-0.083,0.008-0.303-0.093-0.401-0.134l-0.211-0.076c-0.061-0.017-0.138-0.017-0.175-0.092c-0.022,0.042-0.044,0.042-0.083,0.075
		C93.08,5.542,93.088,5.551,93.035,5.575"/>
	<path clip-path="url(#SVGID_6_)" fill-rule="evenodd" clip-rule="evenodd" fill="#AFCB3A" d="M91.281,4.232l-0.016,0.017
		l-0.023,0.025l-0.015,0.016l-0.016,0.017c-0.112,0.084-0.393,0.437-0.453,0.597c-0.008,0.008-0.022,0.042-0.022,0.05
		c-0.03,0.05,0,0.016-0.046,0.042l0.007,0.017c0.009,0.043,0.017,0.034-0.021,0.034c-0.091,0.151-0.175,0.437-0.189,0.646
		c-0.029,0.37,0.045,0.462,0.129,0.723l0.045,0.059c0.106,0.16,0.258,0.261,0.431,0.328c0.197,0.084,0.478,0.151,0.719,0.117
		c-0.067-0.025-0.181-0.033-0.265-0.058c-0.082-0.017-0.158-0.051-0.242-0.084c-0.151-0.076-0.31-0.193-0.393-0.294
		c-0.28-0.319-0.303-0.815-0.114-1.034c0-0.05-0.015-0.05,0.023-0.033l-0.008-0.043c0.022-0.209,0.257-0.655,0.356-0.78l0.173-0.261
		c0-0.042-0.008-0.034,0.022-0.034c-0.007-0.025-0.016-0.025,0.016-0.017c-0.008-0.033-0.016-0.025,0.015-0.025
		c-0.007-0.034-0.015-0.025,0.016-0.025c0-0.025-0.008-0.017,0.015-0.017V4.189C91.296,4.189,91.371,4.189,91.281,4.232"/>
	<path clip-path="url(#SVGID_6_)" fill-rule="evenodd" clip-rule="evenodd" fill="#E2ECB5" d="M92.997,6.668
		c0.113-0.042,0.499-0.252,0.544-0.344c0.038-0.059,0-0.008,0.03-0.042c0.008-0.009,0.022-0.017,0.022-0.025
		c0.008,0,0.061-0.033,0.061-0.033c-0.121-0.076-0.59,0.193-0.703-0.194l-0.022-0.083c-0.068,0-0.045,0-0.098-0.025
		c-0.023-0.017-0.054-0.034-0.076-0.042c-0.091-0.034-0.091-0.034-0.167-0.067c-0.061-0.033-0.113-0.042-0.174-0.076l-0.167-0.067
		l0.009-0.017c0.008,0,0.008,0,0.008-0.008l0.038-0.05l-0.046,0.017c-0.105,0.059-0.137,0.084-0.196,0.177
		c0.105,0.042,0.211,0.101,0.303,0.193l0.099,0.412c0,0.008,0.007,0.008,0.014,0.008c0.046,0.033,0.053,0.042,0.113,0.059
		c0.115,0.034,0.22,0.101,0.438,0.168c0,0-0.007,0-0.007,0.008S93.005,6.66,92.997,6.668"/>
	<path clip-path="url(#SVGID_6_)" fill-rule="evenodd" clip-rule="evenodd" fill="#2C8B43" d="M90.697,5.013L90.69,4.996
		C90.653,4.996,90.667,4.988,90.697,5.013 M90.472,7.172c0.083,0.033,0.029,0.025,0.067-0.009c0.03-0.034,0.023-0.042,0.03-0.092
		c0.023-0.126,0.151-0.32,0.219-0.429c-0.082-0.058-0.128-0.092-0.173-0.227c-0.083-0.261-0.158-0.353-0.129-0.723
		c0.015-0.209,0.098-0.495,0.189-0.646c-0.053-0.101,0.038-0.017-0.016-0.009c0,0-0.016-0.042-0.136,0.168
		c-0.25,0.454-0.454,0.899-0.303,1.486c0.022,0.093,0.061,0.185,0.1,0.261C90.373,7.054,90.434,7.105,90.472,7.172"/>
	<path clip-path="url(#SVGID_6_)" fill-rule="evenodd" clip-rule="evenodd" fill="#E2ECB5" d="M91.242,5.072
		c-0.09,0.042-0.211,0.092-0.287,0.168L90.91,5.29c-0.008,0-0.008,0.009-0.016,0.009l-0.03,0.042c-0.007,0-0.015,0.008-0.015,0.008
		l-0.038,0.025l0.008,0.042c-0.038-0.017-0.023-0.017-0.023,0.033c0.054,0.008,0.046,0.017,0.023-0.033
		c0.099-0.017,1.655-0.025,1.708,0c-0.037-0.017-0.029-0.025-0.029,0.025c0.053,0.008,0.045,0.025,0.029-0.025
		c0.069-0.017,0,0.008,0.069-0.042c0.044-0.042,0.037-0.033,0.09-0.059L92.8,5.189c0-0.042-0.007-0.033,0.031-0.025
		c-0.009-0.034-0.017-0.025,0.015-0.016c0-0.034-0.008-0.025,0.022-0.018c-0.008-0.042-0.022-0.033,0.015-0.025
		c-0.007-0.042-0.015-0.034,0.016-0.025l-1.338,0.008l0.03-0.083C91.476,5.105,91.378,5.341,91.242,5.072"/>
	<path clip-path="url(#SVGID_6_)" fill-rule="evenodd" clip-rule="evenodd" fill="#AFCB3A" d="M91.507,1.746l0.03,0.017l0.016,0.017
		l0.015,0.025l0.016,0.017c0.008,0.118,0.083,0.21,0.105,0.336l0.009,0.025l0.021,0.101c0.016,0.059,0.022,0.135-0.015,0.186
		c-0.016,0.167-0.197,0.293-0.349,0.361c-0.211,0.083-0.341,0.067-0.56,0.033c-0.158-0.025-0.264-0.109-0.377-0.16l-0.068-0.05
		c-0.038-0.041-0.03-0.016-0.054-0.083c0.144-0.084,0.288-0.017,0.387-0.076l0.014-0.084l-0.021-0.067
		c-0.113-0.008-0.144,0.017-0.235,0.042c-0.037,0.017-0.074,0.025-0.112,0.042c-0.031,0.017-0.061,0.017-0.084,0.025
		c0.016,0.075,0.008,0.059,0.047,0.109c-0.228-0.202-0.145-0.227-0.183-0.151c0.045,0.353,0.342,0.739,0.688,0.73
		c0.212-0.008,0.349,0.017,0.552-0.083c0.197-0.093,0.235-0.126,0.35-0.261c0.021-0.017,0.037-0.034,0.052-0.05
		c0.022-0.05,0.061-0.109,0.068-0.193c0.008-0.076,0.016-0.151,0.008-0.227c0-0.059-0.038-0.134-0.03-0.176
		c-0.037-0.034-0.068-0.11-0.098-0.168c-0.039-0.06-0.084-0.092-0.114-0.16l-0.016-0.017l-0.015-0.025l-0.016-0.017l-0.113-0.118
		L91.507,1.746z"/>
	<path clip-path="url(#SVGID_6_)" fill-rule="evenodd" clip-rule="evenodd" fill="#C3E9FA" d="M92.104,4.24
		c-0.008,0.084,0,0.034-0.023,0.092c0.069,0.025,0.138,0.059,0.213,0.067c0.045,0.109,0.121,0.092,0.264,0.151
		c0.046,0.018,0.022,0.018,0.054,0.025c0.022,0.009,0.022,0.009,0.053,0.017c0.182,0.058,0.098,0.05,0.234,0.109
		c0.12,0.051,0.144,0.042,0.204,0.117l0.189-0.008c0.12,0,0.233-0.034,0.324-0.076c0.054-0.034,0.038-0.017,0.084-0.067
		c0.045-0.042,0.045-0.042,0.075-0.101L93.67,4.669c-0.068-0.025-0.228-0.067-0.288-0.109c0,0-0.007,0-0.007-0.009
		c-0.037-0.025-0.016-0.016-0.068-0.042l-0.453-0.176c0-0.067,0.037-0.008-0.017-0.042c-0.015-0.009-0.219-0.06-0.324-0.109
		L92.49,4.173c-0.016-0.008-0.009-0.008-0.038-0.024c-0.054-0.025-0.106-0.034-0.151-0.06l0.054-0.066
		c0-0.009,0.007-0.009,0.007-0.017c-0.113,0.075-0.091,0.083-0.174,0.143c-0.037,0.033-0.008,0-0.03,0.024
		C92.111,4.215,92.128,4.189,92.104,4.24"/>
	<path clip-path="url(#SVGID_6_)" fill-rule="evenodd" clip-rule="evenodd" fill="#62A143" d="M91.424,4.215
		c0.008,0.034,0.015,0.025-0.015,0.017c0.008,0.034,0.015,0.034-0.015,0.025c0.007,0.034,0.015,0.025-0.017,0.025
		c0.008,0.034,0.017,0.025-0.015,0.017c0,0.042,0.009,0.034-0.022,0.034l-0.174,0.261l-0.03,0.092c0.121,0,0.083,0.008,0.159-0.059
		c0.022-0.009,0.113-0.101,0.22-0.143c0.052-0.067,0.136-0.017,0.211-0.017h0.235l0.052-0.075c0.015-0.025,0.023-0.042,0.038-0.067
		c0.015-0.026,0.007-0.017,0.022-0.034c0.016-0.025,0.023-0.034,0.03-0.051c0.023-0.05,0.007-0.025,0.053-0.067
		c0.022-0.025-0.007,0.008,0.03-0.025c0.083-0.059,0.061-0.068,0.174-0.143c0.038-0.059,0.12-0.059,0.182-0.135
		c-0.075,0.008-0.681,0.042-0.696,0.025l0.016-0.042c-0.067,0.017-0.061,0.017-0.128,0.076l-0.197,0.185
		C91.492,4.165,91.492,4.19,91.424,4.215"/>
	<path clip-path="url(#SVGID_6_)" fill-rule="evenodd" clip-rule="evenodd" fill="#FFFFFF" d="M91.1,2.384
		c-0.175,0.101-0.326,0.244-0.122,0.403c-0.113,0.025-0.136,0.017-0.182,0.076c0.22,0.034,0.349,0.05,0.561-0.034
		c0.15-0.067,0.332-0.193,0.348-0.361c-0.062-0.101,0.015-0.11-0.099-0.219C91.454,2.224,91.175,2.3,91.1,2.384"/>
	<path clip-path="url(#SVGID_6_)" fill-rule="evenodd" clip-rule="evenodd" fill="#62A143" d="M90.796,3.14
		c-0.014,0.109-0.022,0.076-0.053,0.143c-0.022,0.051-0.022,0.076-0.037,0.126l-0.091-0.017c0.173,0.202,0.869,0.101,1.104-0.228
		c0.075-0.101,0.038-0.05,0.091-0.142c-0.061,0.025-0.076,0.017-0.158-0.067l-0.039-0.051c0.061-0.034,0.054-0.034,0.106-0.101
		l0.03-0.059c-0.016,0.017-0.03,0.034-0.053,0.05c-0.113,0.135-0.15,0.168-0.349,0.261C91.145,3.157,91.008,3.132,90.796,3.14"/>
	<path clip-path="url(#SVGID_6_)" fill-rule="evenodd" clip-rule="evenodd" fill="#2C8B43" d="M94.214,6.004
		c0,0.025,0.008,0.017-0.015,0.017c0,0.034,0.007,0.026-0.023,0.017c0.009,0.034,0.017,0.025-0.014,0.025
		c0,0.026,0.006,0.017-0.022,0.017c0,0.025,0.006,0.017-0.024,0.017c0.008,0.034,0.008,0.025-0.015,0.017
		c0,0.025,0.008,0.017-0.022,0.017c0,0.033,0.008,0.025-0.022,0.017l-0.023,0.033c0,0.025,0.008,0.017-0.022,0.017
		c0,0.025,0.008,0.017-0.022,0.009c0,0.033,0.008,0.025-0.03,0.033c-0.045,0.076-0.279,0.202-0.363,0.27l-0.037,0.067
		c0.046,0.034,0.053,0.093,0.128,0.193c0.046,0.05,0.022,0.034,0.075,0.058c0.068-0.075,0.152-0.143,0.221-0.218
		c0.067-0.067,0.143-0.16,0.212-0.252c0.082-0.118,0.279-0.479,0.287-0.664l-0.008-0.067C94.41,5.761,94.304,5.937,94.214,6.004"/>
	<path clip-path="url(#SVGID_6_)" fill-rule="evenodd" clip-rule="evenodd" fill="#BFD695" d="M92.527,5.417
		c0.016,0.051,0.023,0.034-0.029,0.025l-0.196,0.151l-0.038,0.05c0,0.009,0,0.009-0.008,0.009l-0.008,0.017l0.167,0.067
		c0.06,0.034,0.112,0.042,0.174,0.076c0.075,0.033,0.075,0.033,0.166,0.067c0.022,0.009,0.053,0.025,0.076,0.042
		c0.052,0.025,0.029,0.025,0.098,0.025c-0.008-0.109,0.008-0.176,0.03-0.26l0.016-0.033l0.044-0.059
		c-0.006-0.034-0.021-0.025,0.017-0.017c0.022-0.075,0.029-0.059-0.046-0.092l-0.317-0.134l0.015-0.034
		c-0.053,0.025-0.046,0.017-0.09,0.059C92.527,5.425,92.597,5.399,92.527,5.417"/>
	<path clip-path="url(#SVGID_6_)" fill-rule="evenodd" clip-rule="evenodd" fill="#AFCB3A" d="M93.292,4.812
		c-0.053,0.034-0.099,0.025-0.175,0.025c-0.029,0.059-0.067,0.101-0.098,0.168c0.038,0.067,0.144,0.075,0.226,0.118
		c0.039,0.016,0.085,0.042,0.122,0.058c0.068,0.033,0.076,0.017,0.113,0.067c0.234-0.11,0.144-0.084,0.317-0.185l0.061-0.017
		c0-0.042-0.008-0.025,0.029-0.009c-0.037-0.075-0.074-0.109-0.135-0.159c-0.068-0.05-0.068-0.101-0.15-0.109l0.014-0.034
		C93.525,4.778,93.412,4.812,93.292,4.812"/>
	<path clip-path="url(#SVGID_6_)" fill-rule="evenodd" clip-rule="evenodd" fill="#98DAF6" d="M92.014,4.392L92.006,4.45
		c-0.021,0.151,0.046,0.227,0.175,0.286c0.113,0.042,0.271,0.067,0.393,0.067l0.53,0.016c-0.062-0.076-0.084-0.067-0.205-0.118
		c-0.136-0.059-0.053-0.051-0.234-0.108c-0.03-0.009-0.03-0.009-0.053-0.017c-0.031-0.008-0.008-0.008-0.053-0.026
		c-0.145-0.058-0.22-0.042-0.265-0.151c-0.075-0.008-0.144-0.042-0.212-0.067c0.022-0.059,0.016-0.008,0.022-0.093
		c-0.007,0.017-0.015,0.025-0.03,0.05c-0.015,0.017-0.009,0.009-0.022,0.034C92.037,4.35,92.028,4.366,92.014,4.392"/>
	<path clip-path="url(#SVGID_6_)" fill-rule="evenodd" clip-rule="evenodd" fill="#2C8B43" d="M93.889,5.038l-0.029,0.009
		l-0.061,0.017l-0.045,0.067c0-0.008-0.009,0.017-0.009,0.025l0.228,0.16c0.03,0.034,0.12,0.277,0.045,0.285
		c0,0.051,0.008,0.025-0.008,0.076c-0.007,0.05,0,0.008-0.015,0.042l-0.106,0.227c-0.022,0.093-0.022,0.034,0.023,0.067
		c0-0.034-0.008-0.025,0.023-0.025c-0.009-0.025-0.009-0.025,0.014-0.017c0-0.033-0.008-0.025,0.023-0.016
		c-0.009-0.034-0.016-0.025,0.015-0.025c0-0.025-0.008-0.025,0.022-0.017c-0.007-0.034-0.015-0.025,0.016-0.017
		c-0.008-0.033-0.008-0.033,0.015-0.025c-0.007-0.033-0.007-0.025,0.016-0.025l0.015-0.025l0.016-0.025L94.1,5.769
		c0.016-0.017,0.031-0.058,0.047-0.084c0.038-0.059,0.021-0.008,0.053-0.084c0.03-0.059,0.053-0.109,0.068-0.185l0.015-0.05
		c0.008-0.117,0.046-0.134-0.008-0.277l-0.037-0.067L93.889,5.038z"/>
	<path clip-path="url(#SVGID_6_)" fill-rule="evenodd" clip-rule="evenodd" fill="#88BF49" d="M91.515,4.484l0.174,0.025
		c0.189,0.093,0.061,0.303-0.016,0.396l-0.021,0.066l0.12,0.009c0.031-0.025,0-0.017,0.046-0.025c0.083-0.025,0.234,0,0.378-0.033
		l0.4-0.076c-0.029-0.017-0.007,0-0.022-0.042c-0.121,0-0.279-0.025-0.394-0.067c-0.128-0.06-0.195-0.135-0.174-0.286l0.008-0.059
		l-0.052,0.076h-0.235C91.651,4.467,91.567,4.417,91.515,4.484"/>
	<path clip-path="url(#SVGID_6_)" fill-rule="evenodd" clip-rule="evenodd" fill="#C0D962" d="M92.898,5.08
		c0.022,0.059,0.03,0.051-0.016,0.025c0.024,0.051,0.03,0.042-0.015,0.025c0.015,0.042,0.022,0.042-0.022,0.017
		c0.022,0.05,0.022,0.042-0.015,0.016c0,0.034,0.007,0.025-0.031,0.025l-0.113,0.126l-0.015,0.033l0.316,0.134
		c0.076,0.034,0.069,0.017,0.047,0.092c-0.038-0.008-0.022-0.017-0.016,0.017l-0.046,0.059l-0.015,0.034
		c0.038,0,0.022,0.009,0.015-0.034c0.008,0,0.008-0.008,0.015-0.008l0.009-0.008c0.016-0.026,0.007-0.009,0.022-0.042
		c0.022,0.008,0.016,0.008,0.016-0.017c0.054-0.025,0.044-0.033,0.09-0.083c0.038-0.034,0.062-0.034,0.084-0.076
		c0.044-0.025,0.09-0.059,0.136-0.092c0.067-0.05,0.067-0.05,0.136-0.076c-0.038-0.05-0.046-0.034-0.112-0.067
		c-0.038-0.017-0.084-0.042-0.122-0.059c-0.083-0.042-0.188-0.05-0.227-0.118l-0.038-0.009c0,0,0.007,0-0.008,0.034
		c0,0-0.007,0.017-0.015,0.017C92.913,5.105,92.959,5.072,92.898,5.08"/>
	<path clip-path="url(#SVGID_6_)" fill-rule="evenodd" clip-rule="evenodd" fill="#2C8B43" d="M90.615,3.392l0.091,0.017
		c0.015-0.05,0.015-0.075,0.037-0.126c0.03-0.067,0.039-0.033,0.053-0.143c-0.347,0.009-0.642-0.378-0.688-0.73L90.07,2.292
		c0,0.302-0.007,0.453,0.121,0.696C90.274,3.157,90.434,3.333,90.615,3.392"/>
	<path clip-path="url(#SVGID_6_)" fill-rule="evenodd" clip-rule="evenodd" fill="#E2ECB5" d="M90.697,2.409l-0.014,0.084
		c-0.061,0.134-0.106,0.109-0.311,0.126c0,0.008,0.008,0.008,0.008,0.025c0,0.008,0.007,0.008,0.007,0.017
		c0.008,0,0.008,0.008,0.008,0.017c0.008,0,0.008,0.009,0.016,0.009c0,0.008,0.008,0.008,0.008,0.016
		c0.113,0.051,0.219,0.135,0.377,0.16c0.046-0.059,0.068-0.05,0.182-0.076c-0.204-0.16-0.053-0.303,0.122-0.403
		c-0.054-0.067-0.084-0.076-0.145-0.101l0.015,0.034l0.008,0.008L90.697,2.409z"/>
	<path clip-path="url(#SVGID_6_)" fill-rule="evenodd" clip-rule="evenodd" fill="#FFFFFF" d="M90.494,1.577
		c-0.061,0.042-0.092,0.059-0.128,0.126l0.007,0.202c0.105,0.025,0.271-0.084,0.363-0.109c0.182-0.067,0.271-0.101,0.34-0.151
		c-0.075-0.017-0.03-0.017-0.053-0.033l-0.008-0.034l-0.189-0.05C90.676,1.51,90.623,1.51,90.494,1.577"/>
	<path clip-path="url(#SVGID_6_)" fill-rule="evenodd" clip-rule="evenodd" fill="#88BF49" d="M93.208,5.417
		c0.038,0.076,0.113,0.076,0.174,0.092l0.212,0.076c0.099,0.042,0.318,0.143,0.401,0.134c0.015-0.034,0.008,0.008,0.015-0.042
		c0.015-0.05,0.008-0.025,0.008-0.076c0-0.067,0-0.067,0.015-0.118c-0.332-0.042-0.158-0.042-0.31-0.084
		c-0.038-0.008-0.272-0.05-0.28-0.092c0-0.009-0.007-0.009-0.015-0.009l0.046-0.033c0-0.009,0.006-0.009,0.006-0.017
		c-0.067,0.025-0.067,0.025-0.135,0.076C93.299,5.357,93.254,5.392,93.208,5.417"/>
	<path clip-path="url(#SVGID_6_)" fill-rule="evenodd" clip-rule="evenodd" fill="#FFFFFF" d="M91.296,4.627
		c-0.053,0.134-0.099,0.244-0.068,0.429c0.068,0.033,0.021,0.058,0.151-0.085c0.098-0.117,0.332-0.277,0.37-0.411l-0.061-0.051
		l-0.174-0.025C91.409,4.526,91.318,4.618,91.296,4.627"/>
	<path clip-path="url(#SVGID_6_)" fill-rule="evenodd" clip-rule="evenodd" fill="#BFD695" d="M91.591,5.005l-0.03,0.083
		l1.338-0.008c-0.031-0.008-0.022-0.016-0.015,0.025c-0.038-0.008-0.023-0.017-0.017,0.025c-0.029-0.007-0.021-0.017-0.021,0.018
		c-0.031-0.009-0.022-0.018-0.015,0.017C92.793,5.156,92.8,5.148,92.8,5.189c0.038,0,0.031,0.009,0.031-0.025
		c0.036,0.025,0.036,0.034,0.015-0.017c0.045,0.025,0.038,0.025,0.021-0.018c0.046,0.018,0.04,0.026,0.017-0.025
		c0.045,0.025,0.037,0.034,0.015-0.025c0.061-0.008,0.015,0.025,0.061-0.033c0.008,0,0.016-0.017,0.016-0.017
		c0.014-0.034,0.007-0.034,0.007-0.034c-0.174-0.025-0.394-0.017-0.582-0.017c-0.166-0.009-0.484,0.017-0.628,0l-0.12-0.009
		l0.021-0.066c-0.021,0.025,0,0-0.03,0.033c0,0.008-0.014,0.017-0.014,0.025C91.604,4.988,91.604,4.979,91.591,5.005"/>
	<path clip-path="url(#SVGID_6_)" fill-rule="evenodd" clip-rule="evenodd" fill="#A4CA7C" d="M91.771,4.979
		c0.144,0.017,0.462-0.009,0.628,0c0.188,0,0.408-0.009,0.582,0.017l0.038,0.009c0.029-0.067,0.068-0.109,0.098-0.168
		c0.076,0,0.122,0.008,0.175-0.025L93.104,4.82l-0.53-0.017c0.015,0.042-0.008,0.025,0.022,0.042l-0.4,0.076
		c-0.144,0.034-0.295,0.009-0.378,0.034C91.771,4.963,91.802,4.955,91.771,4.979"/>
	<path clip-path="url(#SVGID_6_)" fill-rule="evenodd" clip-rule="evenodd" fill="#2C8B43" d="M91.991,3.787
		c0.015,0.042,0.008,0.025-0.029,0.017c-0.009,0.025,0.021,0.016-0.039,0.016c-0.008,0.025,0.015,0.025-0.038,0.017
		c0.008,0.042,0.016,0.025-0.029,0.025l0.007-0.008l-0.016,0.042c0.016,0.017,0.621-0.017,0.696-0.025l0.28-0.092l0.053-0.034
		c-0.009,0,0.03,0.017-0.075-0.025c-0.038-0.017-0.069-0.025-0.114-0.033C92.339,3.619,92.111,3.787,91.991,3.787"/>
	<path clip-path="url(#SVGID_6_)" fill-rule="evenodd" clip-rule="evenodd" fill="#88BF49" d="M94.282,5.367
		c0.008,0.075,0.008,0.033-0.015,0.05c-0.017,0.075-0.039,0.126-0.068,0.184c-0.031,0.076-0.015,0.026-0.053,0.085
		c-0.016,0.025-0.031,0.066-0.046,0.084l-0.015,0.025l-0.017,0.025l-0.014,0.025c-0.023,0-0.023-0.008-0.016,0.025
		c-0.022-0.008-0.022-0.008-0.015,0.025c-0.03-0.008-0.022-0.017-0.016,0.017c-0.03-0.008-0.022-0.008-0.022,0.017
		c-0.03,0-0.023-0.009-0.015,0.025c-0.031-0.008-0.023-0.017-0.023,0.017c-0.022-0.009-0.022-0.009-0.015,0.017
		c-0.029,0-0.022-0.009-0.022,0.024c-0.046-0.033-0.046,0.026-0.024-0.066c-0.06,0.059-0.052,0.059-0.09,0.134l0.068-0.025
		c0.039-0.025,0.021-0.017,0.046-0.042c0.029,0,0.029,0.018,0.022-0.024c0.029,0.008,0.022,0.017,0.015-0.017
		c0.03,0.008,0.03,0.017,0.023-0.017c0.03,0,0.022,0.008,0.015-0.025c0.03,0.008,0.03,0.017,0.022-0.017
		c0.03,0.008,0.022,0.017,0.016-0.017c0.03,0,0.022,0.009,0.015-0.025c0.029,0,0.023,0.008,0.016-0.025
		c0.03,0,0.022,0.008,0.014-0.025l0.017-0.025c0.022,0,0.022,0.009,0.015-0.025l0.046,0.05c0.046,0.059,0.061,0.101,0.067,0.186
		c-0.029-0.009-0.021-0.017-0.015,0.016c-0.031-0.009-0.023-0.009-0.023,0.017c-0.022,0-0.015-0.008-0.015,0.024L94.139,6.08
		c-0.023-0.008-0.023-0.018-0.023,0.017c-0.022-0.008-0.022-0.017-0.015,0.017c-0.031-0.008-0.031-0.017-0.022,0.017
		c-0.03-0.008-0.022-0.017-0.022,0.017l-0.023,0.033c-0.029-0.008-0.022-0.017-0.022,0.017c-0.03-0.008-0.022-0.017-0.022,0.009
		c-0.038-0.009-0.03-0.017-0.03,0.033c0.038-0.008,0.03,0,0.03-0.033c0.03,0.008,0.022,0.017,0.022-0.009
		c0.03,0,0.022,0.009,0.022-0.017l0.023-0.033c0.03,0.008,0.022,0.017,0.022-0.017c0.03,0,0.022,0.008,0.022-0.017
		c0.022,0.009,0.022,0.017,0.015-0.017c0.031,0,0.023,0.009,0.023-0.017c0.029,0,0.022,0.009,0.022-0.018
		c0.031,0,0.023,0.009,0.015-0.024c0.031,0.009,0.023,0.017,0.023-0.017c0.022,0,0.015,0.009,0.015-0.016
		c0.091-0.068,0.196-0.244,0.258-0.378c-0.009-0.092,0.008-0.017-0.039-0.109L94.41,5.484c0-0.009,0-0.017-0.007-0.017
		c-0.037-0.059-0.037-0.042-0.076-0.118L94.282,5.367z M93.775,6.113c0,0,0.015-0.017,0.015-0.008c0,0,0.016-0.009-0.015-0.043
		V6.113z"/>
	<path clip-path="url(#SVGID_6_)" fill-rule="evenodd" clip-rule="evenodd" fill="#88BF49" d="M90.812,5.375l0.038-0.025
		c0,0,0.008-0.008,0.015-0.008l0.031-0.042c0.007,0,0.007-0.008,0.015-0.008l0.045-0.051c0.075-0.075,0.197-0.125,0.287-0.167
		l-0.015-0.017c-0.03-0.185,0.015-0.294,0.068-0.428c-0.076,0.067-0.037,0.059-0.158,0.059l0.029-0.092
		C91.068,4.719,90.834,5.165,90.812,5.375"/>
	<path clip-path="url(#SVGID_6_)" fill-rule="evenodd" clip-rule="evenodd" fill="#AFCB3A" d="M90.351,1.704
		c-0.022,0-0.022,0-0.017,0.025h-0.06l-0.067,0.067l-0.009,0.009c-0.021,0.067-0.119,0.227-0.075,0.293l0.031-0.008l0.196,0.033
		c0.068,0.034,0.09,0.068,0.174,0.102c0.022-0.051,0.008-0.034,0.045-0.059l0.137-0.076c-0.046-0.025-0.053-0.008-0.105-0.034
		c-0.031-0.008-0.031-0.017-0.054-0.034c0,0-0.015-0.008-0.022-0.008c-0.03-0.025-0.015-0.017-0.03-0.033
		c-0.136-0.017-0.16-0.101-0.16-0.252C90.366,1.737,90.358,1.746,90.351,1.704h0.016c0.036-0.067,0.067-0.084,0.128-0.126
		L90.351,1.704z"/>
	<path clip-path="url(#SVGID_6_)" fill-rule="evenodd" clip-rule="evenodd" fill="#C3E9FA" d="M90.366,1.704h-0.016
		c0.007,0.042,0.016,0.033-0.017,0.025c0,0.151,0.023,0.235,0.16,0.252l0.045,0.008h0.182c0.022-0.034-0.023-0.017,0.105-0.068
		c0.046-0.016,0.069-0.033,0.113-0.05c0.068-0.025,0.183-0.042,0.22-0.101c-0.007-0.058,0-0.058-0.037-0.1
		c-0.023-0.026,0,0-0.03-0.026c-0.023-0.025-0.016-0.008-0.038-0.033h-0.03C91.046,1.628,91,1.628,91.076,1.645
		c-0.068,0.05-0.159,0.084-0.341,0.151c-0.091,0.025-0.257,0.135-0.362,0.109L90.366,1.704z"/>
	<path clip-path="url(#SVGID_6_)" fill-rule="evenodd" clip-rule="evenodd" fill="#62A143" d="M93.48,5.249L93.48,5.249
		c0,0.008-0.007,0.008-0.007,0.017l-0.046,0.033c0.007,0,0.015,0,0.015,0.009c0.008,0.042,0.242,0.084,0.28,0.092
		c0.151,0.042-0.022,0.042,0.31,0.084c-0.016,0.05-0.016,0.05-0.016,0.117c0.076-0.008-0.014-0.252-0.045-0.286l-0.227-0.16
		c0-0.008,0.008-0.033,0.008-0.025l0.045-0.066C93.624,5.165,93.715,5.139,93.48,5.249"/>
	<path clip-path="url(#SVGID_6_)" fill-rule="evenodd" clip-rule="evenodd" fill="#E2ECB5" d="M90.751,2.115l0.008,0.008
		c0.022,0.025,0.007,0.016,0.03,0.034c0.007,0,0.03,0.025,0.037,0.034c0.031,0.025,0.031,0.025,0.061,0.042
		C90.88,2.266,90.88,2.258,90.91,2.25c-0.008,0.033-0.008,0.025,0.022,0.016c-0.008,0.034-0.008,0.026,0.03,0.017
		c0-0.042,0.008-0.033-0.03-0.017C90.94,2.233,90.94,2.241,90.91,2.25c0-0.034,0.008-0.026-0.023-0.017
		c0.068-0.051,0.054-0.025,0.152-0.009c0.173,0.026,0.468-0.033,0.565,0.026c0.068,0,0.054,0.008,0.114,0.033l-0.022-0.101
		l-0.008-0.025c-0.008-0.008-0.016-0.008-0.016-0.008S91.666,2.14,91.658,2.14c-0.067-0.042-0.037-0.042-0.144-0.075h-0.03
		l-0.021,0.042c-0.054-0.009-0.069-0.017-0.1-0.034c0.03,0.066,0.016,0.008,0,0.042l-0.491-0.008
		C90.796,2.107,90.781,2.09,90.751,2.115"/>
	<path clip-path="url(#SVGID_6_)" fill-rule="evenodd" clip-rule="evenodd" fill="#C3E9FA" d="M91.228,5.055l0.015,0.017
		c0.137,0.27,0.234,0.034,0.349-0.067c0.014-0.025,0.014-0.017,0.038-0.042c0-0.009,0.014-0.017,0.014-0.025
		c0.03-0.033,0.009-0.008,0.03-0.033c0.076-0.093,0.205-0.303,0.016-0.396l0.061,0.051c-0.038,0.134-0.272,0.294-0.37,0.411
		C91.25,5.113,91.296,5.088,91.228,5.055"/>
	<path clip-path="url(#SVGID_6_)" fill-rule="evenodd" clip-rule="evenodd" fill="#C0D962" d="M92.951,6.03l0.009,0.008
		c0.007,0.034,0,0.008,0.015,0.025c0.061,0.059,0.196,0.05,0.317,0.076c0.12,0.017,0.386,0.025,0.415,0.05
		c-0.022-0.008-0.015-0.008-0.015,0.017c-0.03-0.008-0.022-0.017-0.022,0.017l-0.022,0.017l-0.023,0.025l0.023-0.025
		c0.03,0,0.022,0.009,0.022-0.017c0.03,0.009,0.022,0.009,0.022-0.017c0.03,0.009,0.022,0.017,0.015-0.017
		c0.061-0.041,0.031-0.025,0.068-0.075v-0.05c-0.136-0.042-0.771-0.067-0.847-0.118L92.951,6.03z"/>
	<path clip-path="url(#SVGID_6_)" fill-rule="evenodd" clip-rule="evenodd" fill="#62A143" d="M90.826,1.527l0.189,0.05
		c0.068,0.018,0.03,0,0.038,0.034c0.068,0.008,0.105,0.033,0.144,0.075c0.038,0.026,0.03,0.026,0.053,0.059
		c0.053,0.06,0,0.042,0.076,0.051l0.12,0.009h0.069l-0.009-0.06l-0.083-0.101c-0.076-0.042-0.196-0.168-0.318-0.176
		C91.016,1.459,90.872,1.435,90.826,1.527"/>
	<path clip-path="url(#SVGID_6_)" fill-rule="evenodd" clip-rule="evenodd" fill="#BFD695" d="M90.721,1.989h-0.182L90.6,2.014
		c0.113,0.025,0.046,0.025,0.151,0.101c0.03-0.026,0.045-0.008,0.121-0.008l0.491,0.008c0.016-0.034,0.03,0.025,0-0.042
		l-0.067-0.109l0.037,0.084l-0.318-0.059l0.076-0.067L90.721,1.989z"/>
	<path clip-path="url(#SVGID_6_)" fill-rule="evenodd" clip-rule="evenodd" fill="#88BF49" d="M90.207,1.796l-0.009,0.009
		L90.207,1.796l0.067-0.067h0.061c-0.007-0.025-0.007-0.025,0.016-0.025l0.144-0.126c0.129-0.067,0.182-0.067,0.332-0.05
		c0.046-0.093,0.189-0.068,0.279-0.059c-0.112-0.126-0.392-0.034-0.506-0.092l0.023,0.05C90.44,1.459,90.274,1.645,90.207,1.796"/>
	<path clip-path="url(#SVGID_6_)" fill-rule="evenodd" clip-rule="evenodd" fill="#2C8B43" d="M91.817,2.552
		c-0.009,0.084-0.046,0.143-0.068,0.193l-0.03,0.059c-0.053,0.067-0.046,0.067-0.105,0.101l0.038,0.051
		c0.083,0.083,0.098,0.092,0.157,0.067c0.047-0.202,0.138-0.37,0.038-0.622C91.847,2.459,91.84,2.501,91.817,2.552"/>
	<path clip-path="url(#SVGID_6_)" fill-rule="evenodd" clip-rule="evenodd" fill="#BFD695" d="M93.541,6.324
		c0.053-0.034,0.046-0.025,0.083-0.059l0.023-0.025l0.022-0.017c0-0.034-0.008-0.025,0.022-0.018c0-0.024-0.008-0.024,0.015-0.017
		c-0.029-0.025-0.295-0.034-0.415-0.05c-0.122-0.025-0.257-0.016-0.317-0.076c-0.016-0.017-0.008,0.009-0.016-0.025l-0.008-0.009
		c0.113,0.387,0.582,0.118,0.703,0.194c0,0-0.053,0.033-0.061,0.033c0,0.008-0.015,0.017-0.022,0.025
		C93.541,6.315,93.579,6.265,93.541,6.324"/>
	<path clip-path="url(#SVGID_6_)" fill-rule="evenodd" clip-rule="evenodd" fill="#A4CA7C" d="M91.023,1.611h0.03
		c0.022,0.025,0.015,0.008,0.038,0.033c0.03,0.026,0.007,0,0.03,0.026c0.037,0.042,0.03,0.042,0.037,0.1
		c0.054,0.076-0.007,0.126-0.067,0.151l-0.077,0.067l0.319,0.059l-0.038-0.084c-0.03-0.075-0.046-0.075,0.015-0.134l0.016-0.034
		c-0.076-0.008-0.023,0.009-0.076-0.05c-0.022-0.034-0.015-0.034-0.054-0.059c-0.037-0.042-0.074-0.068-0.143-0.076
		c-0.008-0.034,0.03-0.017-0.039-0.034L91.023,1.611z"/>
	<path clip-path="url(#SVGID_6_)" fill-rule="evenodd" clip-rule="evenodd" fill="#C3E9FA" d="M90.91,2.25
		c0.03-0.009,0.03-0.017,0.022,0.017c0.038-0.017,0.03-0.025,0.03,0.017h-0.008c0.061,0.025,0.091,0.034,0.145,0.101
		c0.075-0.084,0.354-0.16,0.505-0.134c0.114,0.109,0.038,0.118,0.1,0.219c0.038-0.05,0.03-0.126,0.015-0.186
		c-0.061-0.025-0.046-0.033-0.114-0.033c-0.098-0.059-0.393,0-0.565-0.025c-0.099-0.017-0.084-0.042-0.152,0.009
		C90.918,2.224,90.91,2.216,90.91,2.25"/>
	<path clip-path="url(#SVGID_6_)" fill-rule="evenodd" clip-rule="evenodd" fill="#62A143" d="M90.229,2.443l-0.015-0.084
		c0.06-0.017,0.113-0.025,0.173-0.05c0.113-0.042,0.137-0.026,0.151-0.076l-0.015-0.008c-0.083-0.034-0.105-0.067-0.174-0.102
		c-0.038,0.084-0.182,0.144-0.159,0.27C90.215,2.493,90.198,2.426,90.229,2.443 M90.093,2.225L90.07,2.292l0.038,0.117
		c0.037-0.076-0.045-0.051,0.182,0.151c-0.038-0.05-0.029-0.034-0.046-0.109l-0.022,0.017c-0.03-0.017-0.007,0.016-0.045-0.034
		c-0.008-0.008-0.022-0.034-0.031-0.059C90.108,2.309,90.102,2.3,90.093,2.225"/>
	<path clip-path="url(#SVGID_6_)" fill-rule="evenodd" clip-rule="evenodd" fill="#88BF49" d="M91.281,4.232l-0.016,0.017
		l-0.023,0.025l-0.015,0.016l-0.016,0.017l0.016-0.017l0.015-0.016l0.023-0.025L91.281,4.232c0.09-0.042,0.015-0.042,0.143-0.042
		v0.025c-0.022,0-0.015-0.008-0.015,0.017c-0.03,0-0.022-0.008-0.016,0.025c-0.03,0-0.022-0.008-0.015,0.025
		c-0.031-0.008-0.022-0.008-0.016,0.017c-0.03,0-0.022-0.009-0.022,0.034c0.03,0,0.022,0.008,0.022-0.034
		c0.03,0.008,0.023,0.017,0.016-0.017c0.03,0,0.022,0.008,0.015-0.025c0.03,0.008,0.023,0.008,0.016-0.025
		c0.029,0.008,0.021,0.017,0.015-0.017c0.068-0.025,0.068-0.05,0.113-0.101l0.196-0.185c0.068-0.058,0.061-0.058,0.129-0.075
		l-0.007,0.008c0-0.042-0.008-0.034,0.029-0.025c0.016-0.025-0.022-0.025,0.038-0.017c0.015-0.025-0.022-0.034,0.039-0.017
		c0-0.042-0.009-0.025,0.029-0.017c-0.038-0.025,0.008-0.025-0.082-0.025l0.021-0.034C91.673,3.904,91.492,4.03,91.281,4.232"/>
	<path clip-path="url(#SVGID_6_)" fill-rule="evenodd" clip-rule="evenodd" fill="#C0D962" d="M90.524,2.225l0.015,0.008
		c0.023,0.017,0.046,0.034,0.068,0.059c0.007,0,0.03,0.024,0.03,0.024c0.046,0.034-0.015-0.008,0.038,0.025l0.015-0.05l0.159-0.051
		c-0.03-0.042-0.038-0.025-0.091-0.118l-0.007-0.008c-0.107-0.076-0.038-0.076-0.152-0.101l-0.061-0.025l-0.045-0.008
		c0.016,0.016,0,0.008,0.03,0.033c0.008,0,0.022,0.008,0.022,0.008c0.022,0.017,0.022,0.025,0.053,0.034
		c0.054,0.025,0.061,0.009,0.106,0.034l-0.137,0.076C90.532,2.191,90.547,2.174,90.524,2.225"/>
	<path clip-path="url(#SVGID_6_)" fill-rule="evenodd" clip-rule="evenodd" fill="#2C8B43" d="M90.123,2.099l-0.03,0.126
		c0.009,0.076,0.016,0.084,0.054,0.151c0.007,0.025,0.022,0.05,0.029,0.059c0.039,0.05,0.017,0.017,0.046,0.034l0.008-0.025
		c-0.031-0.017-0.015,0.05-0.037-0.051c-0.023-0.125,0.12-0.185,0.158-0.269l-0.197-0.034L90.123,2.099z"/>
	<path clip-path="url(#SVGID_6_)" fill-rule="evenodd" clip-rule="evenodd" fill="#8DA43C" d="M90.229,2.443l-0.008,0.025
		l0.022-0.018c0.023-0.008,0.053-0.008,0.084-0.025c0.038-0.017,0.074-0.025,0.112-0.042c0.092-0.025,0.121-0.05,0.235-0.042
		c-0.053-0.034,0.007,0.008-0.038-0.025c0,0-0.022-0.025-0.03-0.025c-0.022-0.026-0.046-0.042-0.068-0.059
		c-0.015,0.05-0.038,0.033-0.151,0.075c-0.06,0.025-0.113,0.034-0.173,0.05L90.229,2.443z"/>
	<path clip-path="url(#SVGID_6_)" fill-rule="evenodd" clip-rule="evenodd" fill="#88BF49" d="M91.446,1.805
		c0,0.008,0,0.008,0.008,0.016c0.068,0.093,0.075,0.093,0.062,0.227v0.017c0.105,0.034,0.075,0.034,0.143,0.076
		c0.008,0,0.015,0.009,0.015,0.009s0.008,0,0.016,0.008l0.009,0.025l-0.009-0.025c-0.022-0.126-0.098-0.218-0.106-0.336
		l-0.015-0.016l-0.015-0.025l-0.016-0.017l-0.03-0.017l0.009,0.059H91.446z"/>
	<path clip-path="url(#SVGID_6_)" fill-rule="evenodd" clip-rule="evenodd" fill="#FFFFFF" d="M91.311,1.83
		c-0.022,0.067,0.023,0.084,0.061,0.126c0.046,0.05,0.068,0.083,0.113,0.109l0.03-0.017c0.015-0.134,0.008-0.134-0.061-0.227
		c-0.008-0.008-0.008-0.008-0.008-0.016l-0.12-0.009L91.311,1.83z"/>
	<path clip-path="url(#SVGID_6_)" fill-rule="evenodd" clip-rule="evenodd" fill="#98DAF6" d="M90.721,1.989l0.37-0.067
		c0.061-0.025,0.121-0.076,0.068-0.151c-0.037,0.059-0.15,0.076-0.219,0.101c-0.046,0.017-0.068,0.034-0.113,0.051
		C90.697,1.972,90.743,1.956,90.721,1.989"/>
	<path clip-path="url(#SVGID_6_)" fill-rule="evenodd" clip-rule="evenodd" fill="#BFD695" d="M90.676,2.342L90.676,2.342
		l0.021,0.067l0.28-0.084l-0.007-0.009l-0.016-0.033h0.008c-0.038,0.009-0.038,0.017-0.03-0.017
		c-0.029,0.008-0.029,0.017-0.022-0.017c-0.031,0.008-0.031,0.017-0.023-0.018c-0.029-0.017-0.029-0.017-0.061-0.042
		c-0.007-0.008-0.03-0.033-0.038-0.033c-0.022-0.017-0.006-0.008-0.029-0.034c0.053,0.092,0.061,0.076,0.091,0.118L90.69,2.292
		L90.676,2.342z"/>
	<path clip-path="url(#SVGID_6_)" fill-rule="evenodd" clip-rule="evenodd" fill="#C0D962" d="M90.419,2.703
		c0-0.008-0.009-0.008-0.009-0.016c-0.007,0-0.007-0.009-0.015-0.009c0-0.008,0-0.017-0.008-0.017c0-0.008-0.007-0.008-0.007-0.017
		c0-0.017-0.008-0.017-0.008-0.025c0.204-0.017,0.25,0.008,0.311-0.126c-0.099,0.059-0.243-0.009-0.387,0.076
		c0.023,0.067,0.016,0.042,0.053,0.084L90.419,2.703z"/>
	<path clip-path="url(#SVGID_6_)" fill-rule="evenodd" clip-rule="evenodd" fill="#C3E9FA" d="M91.296,1.964l0.068,0.109
		c0.029,0.016,0.045,0.025,0.099,0.033l0.021-0.042h0.03V2.048l-0.03,0.017c-0.046-0.025-0.067-0.059-0.113-0.108
		c-0.037-0.042-0.083-0.06-0.061-0.126C91.249,1.888,91.266,1.888,91.296,1.964"/>
	<path clip-path="url(#SVGID_6_)" fill="#FFFFFF" d="M86.648,14.039h-0.264v1.855h-0.782v-4.49c0.158-0.014,0.337-0.025,0.536-0.035
		c0.198-0.009,0.39-0.015,0.571-0.015c0.465,0,0.818,0.1,1.061,0.298c0.241,0.199,0.362,0.51,0.362,0.933
		c0,0.189-0.021,0.353-0.062,0.493c-0.041,0.14-0.095,0.262-0.162,0.366c-0.068,0.105-0.146,0.192-0.232,0.265
		c-0.089,0.071-0.181,0.131-0.277,0.181c0.114,0.23,0.223,0.449,0.327,0.653c0.104,0.206,0.208,0.384,0.313,0.538
		c0.104,0.153,0.209,0.273,0.316,0.363c0.106,0.089,0.222,0.134,0.345,0.134h0.026v0.288c-0.063,0.023-0.134,0.042-0.214,0.057
		c-0.081,0.015-0.17,0.021-0.27,0.021c-0.144,0-0.27-0.015-0.376-0.043c-0.108-0.03-0.211-0.093-0.312-0.191
		c-0.102-0.098-0.206-0.241-0.314-0.429c-0.107-0.189-0.234-0.444-0.378-0.766L86.648,14.039z M86.525,13.595
		c0.107,0,0.212-0.016,0.313-0.047c0.103-0.031,0.182-0.069,0.241-0.115c0.028-0.022,0.059-0.052,0.087-0.088
		c0.029-0.036,0.056-0.083,0.08-0.141c0.023-0.059,0.042-0.134,0.057-0.225c0.016-0.091,0.021-0.205,0.021-0.342
		c0-0.153-0.015-0.281-0.046-0.386c-0.03-0.104-0.077-0.188-0.138-0.251c-0.062-0.064-0.139-0.109-0.229-0.137
		c-0.092-0.028-0.195-0.042-0.313-0.042c-0.032,0-0.067,0.001-0.107,0.002s-0.075,0.005-0.107,0.012v1.758H86.525z"/>
	<path clip-path="url(#SVGID_6_)" fill="#FFFFFF" d="M90.175,12.824c0.128,0,0.254,0.021,0.375,0.061
		c0.121,0.041,0.233,0.108,0.336,0.205c0.103,0.096,0.191,0.225,0.267,0.385c0.073,0.161,0.13,0.362,0.169,0.603v0.039
		c-0.024,0.036-0.055,0.068-0.096,0.097c-0.039,0.03-0.091,0.055-0.155,0.076c-0.064,0.022-0.144,0.041-0.236,0.059
		c-0.095,0.018-0.207,0.031-0.339,0.042l-0.853,0.073v0.127c0,0.234,0.056,0.428,0.167,0.581c0.111,0.153,0.278,0.229,0.501,0.229
		c0.091,0,0.186-0.01,0.285-0.032c0.1-0.021,0.194-0.046,0.283-0.076c0.09-0.03,0.172-0.059,0.246-0.09
		c0.075-0.031,0.132-0.058,0.17-0.081l0.065,0.22c-0.082,0.069-0.174,0.139-0.276,0.213c-0.103,0.073-0.213,0.139-0.33,0.198
		c-0.116,0.059-0.24,0.106-0.371,0.144c-0.13,0.038-0.265,0.057-0.401,0.057c-0.161,0-0.312-0.027-0.451-0.081
		c-0.139-0.054-0.259-0.139-0.36-0.256c-0.101-0.118-0.181-0.271-0.239-0.459c-0.059-0.189-0.088-0.418-0.088-0.688
		c0-0.302,0.035-0.559,0.102-0.769c0.067-0.209,0.16-0.378,0.28-0.508c0.121-0.128,0.262-0.222,0.425-0.281
		C89.812,12.853,89.986,12.824,90.175,12.824 M89.81,13.331c-0.021,0.02-0.04,0.057-0.06,0.11c-0.019,0.053-0.036,0.116-0.05,0.19
		c-0.016,0.073-0.026,0.149-0.036,0.229c-0.009,0.08-0.012,0.157-0.012,0.232l0.848-0.044c-0.01-0.088-0.023-0.179-0.04-0.273
		c-0.017-0.094-0.044-0.18-0.077-0.259c-0.034-0.078-0.075-0.143-0.125-0.195c-0.05-0.052-0.11-0.078-0.18-0.078
		c-0.051,0-0.097,0.006-0.141,0.019C89.893,13.275,89.851,13.299,89.81,13.331"/>
	<path clip-path="url(#SVGID_6_)" fill="#FFFFFF" d="M93.591,12.882c0-0.045-0.001-0.09-0.004-0.132
		c-0.004-0.035-0.005-0.072-0.005-0.109v-0.096v-1.581l0.765-0.175v5.105h-0.523l-0.215-0.283h-0.013
		c-0.105,0.084-0.22,0.163-0.341,0.234c-0.121,0.071-0.262,0.107-0.42,0.107c-0.14,0-0.276-0.026-0.406-0.081
		c-0.13-0.054-0.245-0.139-0.344-0.256c-0.101-0.117-0.181-0.27-0.241-0.458c-0.06-0.189-0.089-0.418-0.089-0.688
		c0-0.257,0.028-0.487,0.088-0.69c0.059-0.204,0.144-0.375,0.255-0.516c0.112-0.14,0.248-0.247,0.405-0.322
		c0.159-0.075,0.338-0.113,0.537-0.113c0.083,0,0.171,0.005,0.268,0.015C93.402,12.853,93.497,12.866,93.591,12.882 M92.554,14.419
		c0,0.345,0.052,0.598,0.153,0.759c0.104,0.161,0.239,0.241,0.41,0.241c0.084,0,0.167-0.013,0.248-0.039
		c0.081-0.026,0.15-0.056,0.213-0.092v-1.962c-0.117-0.029-0.233-0.044-0.352-0.044c-0.108,0-0.203,0.009-0.286,0.029
		c-0.082,0.02-0.146,0.053-0.193,0.098c-0.043,0.049-0.087,0.158-0.13,0.327C92.575,13.906,92.554,14.134,92.554,14.419"/>
	<path clip-path="url(#SVGID_6_)" fill="#FFFFFF" d="M95.869,12.887v2.016c0,0.179,0.026,0.311,0.078,0.398
		c0.051,0.086,0.14,0.129,0.263,0.129c0.045,0,0.094-0.007,0.147-0.022c0.053-0.015,0.106-0.034,0.164-0.058
		c0.056-0.024,0.109-0.053,0.16-0.083c0.053-0.031,0.101-0.064,0.146-0.1v-2.279h0.769v3.006h-0.689l-0.071-0.351h-0.008
		c-0.054,0.039-0.117,0.082-0.191,0.129c-0.075,0.047-0.155,0.092-0.241,0.137c-0.087,0.043-0.178,0.081-0.272,0.109
		c-0.097,0.03-0.188,0.044-0.279,0.044c-0.103,0-0.198-0.02-0.288-0.057c-0.089-0.038-0.168-0.092-0.234-0.166
		c-0.067-0.073-0.122-0.166-0.161-0.278c-0.039-0.112-0.06-0.242-0.06-0.388v-2.187H95.869z"/>
	<path clip-path="url(#SVGID_6_)" fill="#FFFFFF" d="M100.224,13.532c-0.097-0.056-0.212-0.109-0.345-0.162
		c-0.134-0.052-0.278-0.078-0.433-0.078c-0.064,0-0.129,0.007-0.193,0.022c-0.064,0.015-0.12,0.042-0.167,0.081
		c-0.053,0.042-0.096,0.143-0.128,0.302c-0.031,0.158-0.05,0.406-0.05,0.743c0,0.187,0.014,0.344,0.037,0.474
		c0.023,0.129,0.059,0.233,0.104,0.313c0.048,0.081,0.106,0.138,0.177,0.172c0.07,0.034,0.15,0.051,0.241,0.051
		c0.144,0,0.293-0.017,0.448-0.051s0.296-0.081,0.422-0.139l0.07,0.22c-0.149,0.135-0.32,0.248-0.512,0.338
		c-0.192,0.09-0.401,0.136-0.631,0.136c-0.161,0-0.313-0.027-0.454-0.081c-0.143-0.054-0.265-0.139-0.367-0.256
		c-0.103-0.118-0.184-0.271-0.244-0.459c-0.06-0.189-0.09-0.418-0.09-0.688c0-0.257,0.031-0.487,0.094-0.69
		c0.063-0.204,0.154-0.375,0.275-0.517c0.12-0.143,0.27-0.25,0.448-0.325s0.383-0.112,0.614-0.112c0.142,0,0.282,0.011,0.425,0.034
		s0.271,0.048,0.389,0.077L100.224,13.532z"/>
	<path clip-path="url(#SVGID_6_)" fill="#FFFFFF" d="M102.096,12.824c0.129,0,0.253,0.021,0.375,0.061
		c0.121,0.041,0.234,0.108,0.336,0.205c0.103,0.096,0.19,0.225,0.267,0.385c0.074,0.161,0.131,0.362,0.169,0.603v0.039
		c-0.023,0.036-0.056,0.068-0.095,0.097c-0.039,0.03-0.092,0.055-0.156,0.076c-0.063,0.022-0.144,0.041-0.237,0.059
		c-0.093,0.018-0.206,0.031-0.338,0.042l-0.853,0.073v0.127c0,0.234,0.056,0.428,0.167,0.581c0.112,0.153,0.278,0.229,0.501,0.229
		c0.091,0,0.187-0.01,0.285-0.032c0.101-0.021,0.194-0.046,0.284-0.076c0.089-0.03,0.171-0.059,0.246-0.09
		c0.074-0.031,0.13-0.058,0.168-0.081l0.066,0.22c-0.082,0.069-0.174,0.139-0.276,0.213c-0.103,0.073-0.213,0.139-0.33,0.198
		c-0.116,0.059-0.241,0.106-0.371,0.144c-0.13,0.038-0.265,0.057-0.402,0.057c-0.16,0-0.311-0.027-0.45-0.081
		c-0.139-0.054-0.259-0.139-0.36-0.256c-0.101-0.118-0.181-0.271-0.239-0.459c-0.059-0.189-0.088-0.418-0.088-0.688
		c0-0.302,0.034-0.559,0.102-0.769c0.067-0.209,0.16-0.378,0.281-0.508c0.12-0.128,0.262-0.222,0.423-0.281
		C101.732,12.853,101.908,12.824,102.096,12.824 M101.73,13.331c-0.021,0.02-0.041,0.057-0.06,0.11
		c-0.019,0.053-0.036,0.116-0.05,0.19c-0.015,0.073-0.027,0.149-0.035,0.229c-0.009,0.08-0.014,0.157-0.014,0.232l0.848-0.044
		c-0.009-0.088-0.021-0.179-0.039-0.273c-0.018-0.094-0.043-0.18-0.077-0.259c-0.033-0.078-0.075-0.143-0.125-0.195
		c-0.051-0.052-0.109-0.078-0.181-0.078c-0.05,0-0.097,0.006-0.141,0.019C101.814,13.275,101.771,13.299,101.73,13.331"/>
	<path clip-path="url(#SVGID_6_)" fill="#FFFFFF" d="M92.463,23.861l-4.319-5.016H88.13c0.01,0.419,0.019,0.804,0.027,1.155
		c0.006,0.149,0.009,0.3,0.011,0.449c0.002,0.15,0.005,0.288,0.007,0.415s0.003,0.239,0.003,0.338v0.209v2.411h-0.725v-7.194h0.545
		l4.325,4.992c-0.005-0.382-0.01-0.741-0.014-1.077c0-0.145-0.001-0.291-0.004-0.438c-0.002-0.146-0.004-0.287-0.007-0.422
		c-0.002-0.135-0.004-0.258-0.004-0.368v-0.268v-2.365h0.727v7.178H92.463z"/>
	<path clip-path="url(#SVGID_6_)" fill="#FFFFFF" d="M97.875,23.117c0.102,0,0.244-0.028,0.426-0.085v0.325
		c-0.065,0.067-0.143,0.133-0.23,0.198c-0.088,0.064-0.183,0.121-0.282,0.171c-0.101,0.049-0.204,0.088-0.311,0.115
		c-0.107,0.028-0.212,0.043-0.314,0.043c-0.111,0-0.207-0.018-0.286-0.055c-0.079-0.036-0.147-0.081-0.206-0.135
		c-0.058-0.055-0.106-0.118-0.146-0.19c-0.039-0.072-0.074-0.143-0.101-0.209c-0.103,0.077-0.204,0.153-0.304,0.228
		c-0.1,0.076-0.205,0.142-0.313,0.198c-0.109,0.058-0.225,0.104-0.346,0.14s-0.256,0.055-0.404,0.055c-0.336,0-0.6-0.116-0.792-0.35
		c-0.193-0.232-0.29-0.583-0.29-1.054c0-0.248,0.029-0.465,0.087-0.651c0.058-0.186,0.15-0.339,0.278-0.461
		c0.128-0.121,0.292-0.214,0.493-0.279c0.202-0.064,0.449-0.102,0.742-0.112l0.736-0.023v-0.693c0-0.188-0.045-0.326-0.136-0.414
		c-0.091-0.089-0.245-0.133-0.464-0.133c-0.153,0-0.331,0.021-0.534,0.062c-0.202,0.042-0.415,0.112-0.639,0.21l-0.167-0.494
		c0.149-0.072,0.304-0.142,0.464-0.211c0.161-0.069,0.323-0.131,0.488-0.185c0.166-0.054,0.333-0.098,0.503-0.13
		c0.17-0.034,0.338-0.05,0.506-0.05c0.191,0,0.362,0.019,0.513,0.058c0.149,0.038,0.274,0.104,0.375,0.197
		c0.101,0.094,0.177,0.218,0.231,0.372c0.054,0.155,0.082,0.347,0.082,0.574v2.201C97.534,22.861,97.647,23.117,97.875,23.117
		 M96.36,22.893c-0.004-0.021-0.01-0.074-0.014-0.159s-0.01-0.193-0.014-0.325c-0.005-0.132-0.009-0.282-0.011-0.449
		c-0.002-0.168-0.003-0.346-0.003-0.531c-0.299,0-0.524,0.019-0.675,0.058c-0.152,0.039-0.246,0.087-0.283,0.144
		c-0.017,0.021-0.033,0.06-0.044,0.116c-0.012,0.058-0.021,0.12-0.027,0.189c-0.008,0.07-0.012,0.143-0.015,0.218
		c-0.002,0.075-0.004,0.144-0.004,0.205c0,0.217,0.027,0.394,0.079,0.527c0.054,0.135,0.143,0.201,0.266,0.201
		c0.134,0,0.261-0.018,0.383-0.054C96.12,22.996,96.241,22.949,96.36,22.893"/>
	<path clip-path="url(#SVGID_6_)" fill="#FFFFFF" d="M99.104,19.706l-0.461-0.17v-0.287l1.324-1.039h0.338l0.013,0.838h1.306
		l-0.056,0.526c-0.098,0.021-0.218,0.039-0.36,0.055c-0.141,0.016-0.277,0.028-0.407,0.038c-0.153,0.017-0.313,0.032-0.475,0.047
		v2.683c0,0.171,0.028,0.314,0.084,0.43c0.056,0.117,0.172,0.175,0.349,0.175c0.047,0,0.109-0.003,0.188-0.007
		c0.078-0.006,0.161-0.014,0.248-0.023c0.085-0.012,0.169-0.022,0.251-0.035c0.081-0.014,0.149-0.024,0.205-0.035v0.396
		c-0.103,0.072-0.22,0.146-0.355,0.222c-0.135,0.074-0.278,0.142-0.429,0.2c-0.151,0.061-0.305,0.107-0.458,0.144
		c-0.154,0.036-0.301,0.055-0.441,0.055c-0.107,0-0.213-0.012-0.315-0.035s-0.194-0.068-0.277-0.136
		c-0.082-0.066-0.147-0.161-0.197-0.283c-0.049-0.121-0.073-0.28-0.073-0.477V19.706z"/>
</g>
</svg>
