<?xml version="1.0" encoding="utf-8"?>
<!-- Generator: Adobe Illustrator 15.0.0, SVG Export Plug-In . SVG Version: 6.00 Build 0)  -->
<!DOCTYPE svg PUBLIC "-//W3C//DTD SVG 1.1//EN" "http://www.w3.org/Graphics/SVG/1.1/DTD/svg11.dtd">
<svg version="1.1" id="Layer_1" xmlns="http://www.w3.org/2000/svg" xmlns:xlink="http://www.w3.org/1999/xlink" x="0px" y="0px"
	 width="107.341px" height="31.264px" viewBox="0 0 107.341 31.264" enable-background="new 0 0 107.341 31.264"
	 xml:space="preserve">
<g>
	<defs>
		<rect id="SVGID_1_" width="107.341" height="31.264"/>
	</defs>
	<clipPath id="SVGID_2_">
		<use xlink:href="#SVGID_1_"  overflow="visible"/>
	</clipPath>
	<path clip-path="url(#SVGID_2_)" fill="#8BC53F" d="M3.021,11.535H2.26v5.359H0V3.918c0.457-0.037,0.973-0.07,1.549-0.099
		c0.575-0.028,1.125-0.042,1.65-0.042c1.346,0,2.368,0.287,3.067,0.86c0.698,0.573,1.047,1.472,1.047,2.694
		c0,0.545-0.06,1.02-0.178,1.424C7.017,9.16,6.86,9.513,6.666,9.814c-0.195,0.301-0.42,0.555-0.674,0.761
		c-0.254,0.207-0.52,0.381-0.8,0.522c0.33,0.668,0.646,1.298,0.946,1.89c0.301,0.593,0.601,1.11,0.902,1.552
		c0.3,0.442,0.605,0.792,0.914,1.051s0.641,0.388,0.997,0.388h0.076v0.832c-0.178,0.066-0.383,0.12-0.616,0.162
		c-0.233,0.043-0.493,0.063-0.781,0.063c-0.415,0-0.777-0.042-1.085-0.127c-0.309-0.084-0.61-0.268-0.902-0.55
		s-0.595-0.695-0.908-1.241c-0.313-0.545-0.677-1.283-1.091-2.214L3.021,11.535z M2.666,10.251c0.313,0,0.616-0.044,0.908-0.134
		c0.292-0.089,0.522-0.199,0.692-0.331C4.35,9.72,4.435,9.636,4.52,9.532c0.084-0.104,0.16-0.24,0.228-0.409
		s0.123-0.386,0.165-0.649c0.043-0.263,0.064-0.592,0.064-0.987c0-0.441-0.045-0.813-0.134-1.114
		c-0.089-0.301-0.222-0.543-0.4-0.726c-0.177-0.184-0.398-0.315-0.66-0.396c-0.262-0.08-0.563-0.12-0.901-0.12
		c-0.093,0-0.197,0.003-0.311,0.008C2.457,5.144,2.353,5.155,2.26,5.174v5.077H2.666z"/>
	<path clip-path="url(#SVGID_2_)" fill="#8BC53F" d="M13.419,8.022c0.373,0,0.734,0.06,1.086,0.177
		c0.351,0.117,0.675,0.315,0.97,0.592c0.297,0.278,0.553,0.649,0.77,1.114c0.215,0.466,0.379,1.047,0.488,1.742v0.113
		c-0.068,0.104-0.158,0.197-0.273,0.282c-0.114,0.084-0.264,0.157-0.451,0.218c-0.186,0.062-0.414,0.118-0.686,0.17
		c-0.269,0.052-0.596,0.092-0.977,0.121l-2.462,0.21v0.367c0,0.677,0.16,1.236,0.482,1.678c0.32,0.442,0.803,0.663,1.447,0.663
		c0.262,0,0.537-0.03,0.824-0.092c0.29-0.061,0.561-0.134,0.821-0.219c0.258-0.084,0.494-0.171,0.711-0.261
		c0.215-0.089,0.379-0.167,0.488-0.232l0.189,0.636c-0.236,0.196-0.501,0.401-0.798,0.612c-0.297,0.212-0.614,0.402-0.953,0.571
		c-0.338,0.169-0.696,0.309-1.073,0.416c-0.377,0.109-0.763,0.162-1.162,0.162c-0.465,0-0.898-0.077-1.301-0.232
		c-0.402-0.154-0.749-0.402-1.041-0.74c-0.292-0.339-0.522-0.78-0.692-1.326c-0.169-0.545-0.253-1.208-0.253-1.988
		c0-0.875,0.097-1.615,0.292-2.222c0.194-0.606,0.465-1.096,0.812-1.467c0.347-0.372,0.755-0.642,1.226-0.812
		C12.372,8.107,12.878,8.022,13.419,8.022 M12.366,9.489c-0.061,0.057-0.117,0.162-0.172,0.317
		c-0.055,0.155-0.103,0.339-0.146,0.551c-0.041,0.211-0.077,0.433-0.102,0.662c-0.025,0.23-0.037,0.454-0.037,0.67l2.449-0.127
		c-0.025-0.253-0.062-0.517-0.113-0.789c-0.051-0.272-0.125-0.522-0.223-0.748c-0.097-0.226-0.219-0.413-0.361-0.564
		c-0.145-0.149-0.318-0.226-0.522-0.226c-0.142,0-0.279,0.02-0.406,0.057C12.606,9.33,12.483,9.396,12.366,9.489"/>
	<path clip-path="url(#SVGID_2_)" fill="#8BC53F" d="M23.449,8.192c0-0.132-0.004-0.259-0.013-0.381
		c-0.008-0.104-0.012-0.21-0.012-0.317V7.219v-4.57l2.209-0.508v14.754h-1.511L23.5,16.076h-0.038
		c-0.305,0.245-0.633,0.471-0.984,0.678c-0.351,0.206-0.755,0.31-1.213,0.31c-0.406,0-0.797-0.077-1.173-0.232
		c-0.377-0.155-0.709-0.402-0.997-0.74c-0.288-0.339-0.519-0.78-0.692-1.326c-0.174-0.545-0.261-1.208-0.261-1.988
		c0-0.743,0.085-1.408,0.255-1.995c0.169-0.589,0.415-1.085,0.738-1.489c0.323-0.404,0.713-0.714,1.171-0.931
		c0.458-0.216,0.975-0.324,1.552-0.324c0.238,0,0.494,0.014,0.771,0.042C22.904,8.107,23.178,8.146,23.449,8.192 M20.453,12.635
		c0,0.997,0.148,1.728,0.444,2.193s0.69,0.698,1.181,0.698c0.245,0,0.484-0.037,0.718-0.113c0.232-0.074,0.437-0.164,0.615-0.268
		v-5.67c-0.339-0.085-0.677-0.127-1.016-0.127c-0.313,0-0.588,0.028-0.825,0.085c-0.237,0.056-0.423,0.15-0.558,0.281
		c-0.127,0.142-0.252,0.457-0.374,0.945C20.515,11.149,20.453,11.808,20.453,12.635"/>
	<path clip-path="url(#SVGID_2_)" fill="#8BC53F" d="M30.292,8.206v5.825c0,0.518,0.074,0.9,0.225,1.149
		c0.149,0.249,0.403,0.374,0.761,0.374c0.129,0,0.27-0.021,0.423-0.063c0.154-0.042,0.313-0.098,0.475-0.169
		c0.162-0.071,0.317-0.15,0.468-0.24c0.149-0.089,0.288-0.186,0.416-0.289V8.206h2.221v8.688h-1.993l-0.203-1.016H33.06
		c-0.153,0.113-0.336,0.237-0.552,0.374c-0.216,0.137-0.449,0.268-0.698,0.395c-0.25,0.127-0.513,0.233-0.788,0.317
		c-0.275,0.085-0.543,0.127-0.806,0.127c-0.296,0-0.573-0.054-0.831-0.162c-0.259-0.107-0.486-0.268-0.68-0.479
		s-0.349-0.479-0.463-0.804c-0.114-0.324-0.172-0.698-0.172-1.121V8.206H30.292z"/>
	<path clip-path="url(#SVGID_2_)" fill="#8BC53F" d="M43.343,10.068c-0.279-0.16-0.611-0.315-0.996-0.466
		c-0.386-0.15-0.803-0.226-1.251-0.226c-0.187,0-0.372,0.021-0.559,0.063c-0.186,0.043-0.346,0.12-0.482,0.233
		c-0.152,0.124-0.275,0.414-0.368,0.872c-0.093,0.458-0.14,1.174-0.14,2.146c0,0.538,0.034,0.994,0.102,1.367
		c0.067,0.373,0.169,0.676,0.304,0.907c0.136,0.231,0.305,0.396,0.508,0.495c0.203,0.1,0.436,0.149,0.698,0.149
		c0.415,0,0.847-0.05,1.295-0.148c0.449-0.099,0.855-0.232,1.219-0.402l0.203,0.634c-0.431,0.392-0.925,0.718-1.478,0.979
		c-0.555,0.261-1.162,0.391-1.823,0.391c-0.465,0-0.903-0.077-1.313-0.232c-0.411-0.155-0.765-0.402-1.061-0.74
		c-0.295-0.339-0.531-0.78-0.704-1.326c-0.174-0.545-0.26-1.208-0.26-1.988c0-0.743,0.09-1.408,0.273-1.996
		c0.182-0.588,0.446-1.086,0.793-1.495s0.778-0.722,1.295-0.938c0.516-0.215,1.108-0.324,1.777-0.324
		c0.406,0,0.815,0.033,1.226,0.098c0.41,0.065,0.784,0.14,1.123,0.224L43.343,10.068z"/>
	<path clip-path="url(#SVGID_2_)" fill="#8BC53F" d="M48.751,8.022c0.372,0,0.734,0.06,1.086,0.177
		c0.35,0.117,0.674,0.315,0.97,0.592c0.296,0.278,0.553,0.649,0.769,1.114c0.216,0.466,0.379,1.047,0.488,1.742v0.113
		c-0.067,0.104-0.158,0.197-0.272,0.282c-0.115,0.084-0.265,0.157-0.451,0.218c-0.187,0.062-0.415,0.118-0.686,0.17
		c-0.27,0.052-0.597,0.092-0.978,0.121l-2.462,0.21v0.367c0,0.677,0.161,1.236,0.482,1.678c0.321,0.442,0.804,0.663,1.447,0.663
		c0.263,0,0.537-0.03,0.825-0.092c0.289-0.061,0.561-0.134,0.82-0.219c0.258-0.084,0.495-0.171,0.711-0.261
		c0.216-0.089,0.379-0.167,0.488-0.232l0.19,0.636c-0.236,0.196-0.502,0.401-0.799,0.612c-0.296,0.212-0.614,0.402-0.953,0.571
		c-0.338,0.169-0.696,0.309-1.072,0.416c-0.377,0.109-0.764,0.162-1.162,0.162c-0.466,0-0.899-0.077-1.301-0.232
		c-0.402-0.154-0.749-0.402-1.041-0.74c-0.292-0.339-0.523-0.78-0.692-1.326c-0.169-0.545-0.254-1.208-0.254-1.988
		c0-0.875,0.098-1.615,0.292-2.222s0.466-1.096,0.813-1.467c0.346-0.372,0.755-0.642,1.225-0.812
		C47.704,8.107,48.209,8.022,48.751,8.022 M47.697,9.489c-0.06,0.057-0.116,0.162-0.171,0.317c-0.056,0.155-0.104,0.339-0.146,0.551
		c-0.042,0.211-0.077,0.433-0.102,0.662c-0.025,0.23-0.038,0.454-0.038,0.67l2.45-0.127c-0.025-0.253-0.063-0.517-0.114-0.789
		c-0.051-0.272-0.125-0.522-0.222-0.748c-0.097-0.226-0.219-0.413-0.362-0.564c-0.144-0.149-0.317-0.226-0.521-0.226
		c-0.143,0-0.279,0.02-0.406,0.057C47.938,9.33,47.815,9.396,47.697,9.489"/>
	<path clip-path="url(#SVGID_2_)" fill="#8BC53F" d="M63.187,16.965L55.328,7.84h-0.025c0.017,0.761,0.033,1.462,0.051,2.102
		c0.009,0.272,0.016,0.544,0.02,0.817s0.008,0.524,0.013,0.755c0.004,0.23,0.006,0.435,0.006,0.613v0.381v4.387h-1.32V3.806h0.991
		l7.87,9.083c-0.009-0.695-0.017-1.349-0.024-1.96c0-0.264-0.003-0.529-0.007-0.797c-0.005-0.27-0.009-0.524-0.013-0.771
		c-0.006-0.243-0.008-0.467-0.008-0.669V8.206V3.903h1.322v13.062H63.187z"/>
	<path clip-path="url(#SVGID_2_)" fill="#8BC53F" d="M73.241,15.611c0.187,0,0.444-0.053,0.774-0.155v0.592
		c-0.118,0.123-0.258,0.242-0.42,0.36c-0.159,0.117-0.332,0.221-0.512,0.31c-0.184,0.089-0.371,0.16-0.566,0.212
		c-0.194,0.052-0.385,0.078-0.571,0.078c-0.203,0-0.377-0.034-0.521-0.1s-0.269-0.147-0.375-0.246
		c-0.105-0.099-0.194-0.214-0.266-0.346c-0.072-0.133-0.134-0.26-0.186-0.381c-0.186,0.141-0.369,0.279-0.551,0.415
		c-0.183,0.138-0.373,0.257-0.571,0.36c-0.199,0.104-0.409,0.188-0.63,0.254c-0.219,0.065-0.465,0.099-0.735,0.099
		c-0.608,0-1.09-0.211-1.44-0.635c-0.352-0.423-0.527-1.063-0.527-1.918c0-0.452,0.053-0.846,0.158-1.185s0.274-0.618,0.506-0.839
		c0.232-0.223,0.531-0.391,0.9-0.508c0.365-0.118,0.815-0.186,1.346-0.205l1.343-0.042v-1.264c0-0.34-0.082-0.591-0.247-0.752
		s-0.447-0.242-0.846-0.242c-0.278,0-0.602,0.038-0.969,0.113c-0.369,0.076-0.757,0.203-1.162,0.381L66.868,9.07
		c0.271-0.13,0.554-0.259,0.845-0.384c0.293-0.126,0.588-0.237,0.889-0.336c0.3-0.098,0.604-0.177,0.914-0.237
		c0.309-0.061,0.615-0.091,0.92-0.091c0.349,0,0.66,0.034,0.933,0.106c0.272,0.07,0.5,0.19,0.683,0.359
		c0.184,0.169,0.324,0.395,0.422,0.677s0.146,0.63,0.146,1.044v4.006C72.619,15.146,72.827,15.611,73.241,15.611 M70.486,15.202
		c-0.009-0.038-0.018-0.134-0.025-0.289c-0.009-0.155-0.017-0.353-0.025-0.593c-0.01-0.239-0.014-0.514-0.018-0.818
		c-0.006-0.305-0.008-0.627-0.008-0.966c-0.543,0-0.951,0.035-1.229,0.104c-0.275,0.072-0.446,0.159-0.512,0.263
		c-0.035,0.037-0.062,0.107-0.082,0.211c-0.021,0.104-0.039,0.219-0.051,0.346c-0.013,0.127-0.021,0.259-0.025,0.396
		c-0.004,0.136-0.006,0.261-0.006,0.373c0,0.396,0.047,0.715,0.145,0.959c0.096,0.244,0.257,0.367,0.482,0.367
		c0.242,0,0.474-0.033,0.695-0.099C70.049,15.39,70.268,15.306,70.486,15.202"/>
	<path clip-path="url(#SVGID_2_)" fill="#8BC53F" d="M75.349,9.405l-0.838-0.311V8.573l2.407-1.891h0.615l0.024,1.523h2.374
		L79.83,9.165c-0.178,0.038-0.396,0.07-0.653,0.099c-0.259,0.028-0.507,0.052-0.743,0.07c-0.279,0.028-0.566,0.057-0.863,0.085v4.88
		c0,0.311,0.051,0.571,0.152,0.783s0.314,0.317,0.635,0.317c0.085,0,0.199-0.005,0.344-0.014c0.143-0.01,0.293-0.023,0.45-0.044
		c0.156-0.018,0.308-0.039,0.457-0.063c0.147-0.023,0.272-0.044,0.374-0.063v0.72c-0.188,0.132-0.402,0.266-0.648,0.401
		c-0.244,0.137-0.506,0.259-0.779,0.367c-0.275,0.108-0.553,0.195-0.833,0.261c-0.279,0.065-0.547,0.099-0.804,0.099
		c-0.194,0-0.385-0.021-0.573-0.063c-0.187-0.042-0.354-0.124-0.505-0.246c-0.148-0.122-0.268-0.294-0.357-0.516
		c-0.089-0.221-0.134-0.51-0.134-0.867V9.405z"/>
	<polygon clip-path="url(#SVGID_2_)" fill="#8BC53F" points="0.431,19.499 1.392,19.499 6.784,26.815 6.805,26.815 6.805,19.499 
		7.604,19.499 7.604,28.062 6.675,28.062 1.251,20.746 1.23,20.746 1.23,28.062 0.431,28.062 	"/>
	<path clip-path="url(#SVGID_2_)" fill="#8BC53F" d="M8.888,23.745c0.119-1.308,0.756-2.111,2.679-2.111
		c1.88,0,2.571,0.647,2.571,1.848v3.262c0,0.516,0.13,0.695,0.444,0.695c0.14,0,0.28-0.012,0.421-0.023v0.6
		c-0.162,0.036-0.411,0.096-0.67,0.096c-0.81,0-0.854-0.611-0.865-1.104h-0.021c-0.248,0.408-0.788,1.247-2.625,1.247
		c-0.961,0-2.182-0.467-2.182-1.87c0-1.691,1.566-1.884,2.798-1.955c1.75-0.108,1.966-0.216,1.966-0.829
		c0-0.898-0.54-1.222-1.858-1.222c-1.264,0-1.869,0.371-1.923,1.367H8.888z M13.404,24.704c-0.356,0.252-0.896,0.3-2.495,0.468
		c-0.93,0.095-1.47,0.408-1.47,1.151c0,0.972,0.756,1.26,1.62,1.26c1.081,0,2.345-0.647,2.345-1.932V24.704z"/>
	<path clip-path="url(#SVGID_2_)" fill="#8BC53F" d="M16.072,19.859h0.799v1.967h1.589v0.672h-1.589v4.125
		c0,0.54,0.151,0.792,0.8,0.792c0.388,0,0.637-0.036,0.789-0.072v0.744c-0.303,0.048-0.617,0.071-0.876,0.071
		c-1.242,0-1.512-0.539-1.512-1.547v-4.113h-1.221v-0.672h1.221V19.859z"/>
	<path clip-path="url(#SVGID_2_)" fill="#8BC53F" d="M24.108,26.839h-0.021c-0.238,0.66-1.081,1.415-2.323,1.415
		c-1.869,0-2.43-1.079-2.43-2.566v-3.861h0.798v4.018c0,1.235,0.681,1.667,1.697,1.667c1.566,0,2.279-0.888,2.279-2.303v-3.382h0.8
		v6.236h-0.8V26.839z"/>
	<path clip-path="url(#SVGID_2_)" fill="#8BC53F" d="M26.139,21.826h0.799v1.427h0.021c0.292-0.743,0.822-1.619,2.151-1.619
		c0.226,0,0.356,0.024,0.475,0.048v0.912c-0.249-0.048-0.486-0.072-0.735-0.072c-0.864,0-1.912,0.588-1.912,2.362v3.179h-0.799
		V21.826z"/>
	<path clip-path="url(#SVGID_2_)" fill="#8BC53F" d="M30.09,23.745c0.12-1.308,0.757-2.111,2.68-2.111
		c1.88,0,2.571,0.647,2.571,1.848v3.262c0,0.516,0.129,0.695,0.443,0.695c0.14,0,0.281-0.012,0.422-0.023v0.6
		c-0.163,0.036-0.412,0.096-0.67,0.096c-0.811,0-0.854-0.611-0.865-1.104H34.65c-0.249,0.408-0.789,1.247-2.626,1.247
		c-0.961,0-2.182-0.467-2.182-1.87c0-1.691,1.567-1.884,2.798-1.955c1.75-0.108,1.966-0.216,1.966-0.829
		c0-0.898-0.54-1.222-1.857-1.222c-1.265,0-1.87,0.371-1.923,1.367H30.09z M34.606,24.704c-0.356,0.252-0.896,0.3-2.495,0.468
		c-0.929,0.095-1.47,0.408-1.47,1.151c0,0.972,0.757,1.26,1.621,1.26c1.08,0,2.344-0.647,2.344-1.932V24.704z"/>
	<rect x="36.712" y="19.428" clip-path="url(#SVGID_2_)" fill="#8BC53F" width="0.8" height="8.635"/>
	<polygon clip-path="url(#SVGID_2_)" fill="#8BC53F" points="41.951,19.499 48.087,19.499 48.087,20.314 42.751,20.314 
		42.751,23.217 47.892,23.217 47.892,24.033 42.751,24.033 42.751,27.247 48.174,27.247 48.174,28.062 41.951,28.062 	"/>
	<polygon clip-path="url(#SVGID_2_)" fill="#8BC53F" points="51.058,24.824 48.66,21.826 49.697,21.826 51.598,24.2 53.489,21.826 
		54.537,21.826 52.105,24.824 54.742,28.063 53.683,28.063 51.598,25.471 49.523,28.063 48.476,28.063 	"/>
	<path clip-path="url(#SVGID_2_)" fill="#8BC53F" d="M55.864,19.859h0.799v1.967h1.589v0.672h-1.589v4.125
		c0,0.54,0.151,0.792,0.8,0.792c0.389,0,0.637-0.036,0.789-0.072v0.744c-0.303,0.048-0.617,0.071-0.875,0.071
		c-1.242,0-1.513-0.539-1.513-1.547v-4.113h-1.222v-0.672h1.222V19.859z"/>
	<path clip-path="url(#SVGID_2_)" fill="#8BC53F" d="M59.126,21.826h0.799v1.427h0.021c0.293-0.743,0.822-1.619,2.152-1.619
		c0.226,0,0.355,0.024,0.473,0.048v0.912c-0.247-0.048-0.484-0.072-0.733-0.072c-0.864,0-1.912,0.588-1.912,2.362v3.179h-0.799
		V21.826z"/>
	<path clip-path="url(#SVGID_2_)" fill="#8BC53F" d="M63.078,23.745c0.119-1.308,0.757-2.111,2.68-2.111
		c1.88,0,2.57,0.647,2.57,1.848v3.262c0,0.516,0.13,0.695,0.443,0.695c0.141,0,0.281-0.012,0.422-0.023v0.6
		c-0.162,0.036-0.412,0.096-0.67,0.096c-0.811,0-0.854-0.611-0.865-1.104h-0.021c-0.249,0.408-0.789,1.247-2.625,1.247
		c-0.962,0-2.183-0.467-2.183-1.87c0-1.691,1.566-1.884,2.798-1.955c1.75-0.108,1.966-0.216,1.966-0.829
		c0-0.898-0.54-1.222-1.857-1.222c-1.265,0-1.869,0.371-1.922,1.367H63.078z M67.594,24.704c-0.355,0.252-0.896,0.3-2.495,0.468
		c-0.929,0.095-1.469,0.408-1.469,1.151c0,0.972,0.756,1.26,1.62,1.26c1.08,0,2.344-0.647,2.344-1.932V24.704z"/>
	<path clip-path="url(#SVGID_2_)" fill="#8BC53F" d="M75.437,25.832c-0.151,0.814-0.8,2.422-2.842,2.422
		c-2.031,0-3.165-1.354-3.165-3.31c0-1.871,1.037-3.311,3.165-3.311c1.923,0,2.669,1.331,2.798,2.231h-0.799
		c-0.249-1.067-1.006-1.487-1.999-1.487c-1.609,0-2.365,1.127-2.365,2.566c0,1.547,0.842,2.566,2.365,2.566
		c1.178,0,1.837-0.708,2.042-1.679H75.437z"/>
	<path clip-path="url(#SVGID_2_)" fill="#8BC53F" d="M76.861,19.859h0.799v1.967h1.59v0.672h-1.59v4.125
		c0,0.54,0.151,0.792,0.801,0.792c0.387,0,0.637-0.036,0.789-0.072v0.744c-0.304,0.048-0.617,0.071-0.877,0.071
		c-1.242,0-1.512-0.539-1.512-1.547v-4.113h-1.221v-0.672h1.221V19.859z"/>
	<path clip-path="url(#SVGID_2_)" fill-rule="evenodd" clip-rule="evenodd" fill="#FFFFFF" d="M90.566,8.803
		c-1.055-0.19-1.908-0.174-2.852,0.242c-1.039,0.464-2.079,1.527-2.625,2.559c-0.21,0.399-0.375,0.766-0.531,1.238
		c-0.666,1.955-0.428,4.29,0.119,6.244c0.405,1.438,0.868,2.554,1.504,3.816c0.172,0.322,0.547,0.946,0.627,1.121l0.018,0.025
		l0.015,0.032l0.022,0.025l0.51,0.78c0.201,0.342,0.874,1.191,1.129,1.438c0.209,0.216,0.418,0.425,0.671,0.616
		c0.495,0.373,0.991,0.698,1.738,0.797c0.807,0.11,1.382-0.149,2.028-0.439c0.637-0.283,1.137-0.532,1.928-0.563
		c1.545-0.06,2.643,0.788,4.289,0.063c0.74-0.323,1.533-1.153,1.984-1.87c0.342-0.555,0.618-1.071,0.881-1.71
		c0.127-0.325,0.246-0.624,0.367-0.965c0.928-2.627,1.549-6.492,0.958-9.286c-0.225-1.063-0.622-1.945-1.183-2.759
		c-0.151-0.2-0.575-0.656-0.6-0.7l-0.022-0.025c-0.097-0.073-0.187-0.173-0.291-0.266c-0.675-0.622-1.577-1.146-2.468-1.337
		c-1.775-0.382-1.984,0.34-3.01,0.424c0.803-2.145,1.16-2.227,1.931-3.217l-1.786-2.103c-0.592,0.63-0.975,1.122-1.587,1.746
		C91.915,0.806,89.992,0.489,85.98,0C86.466,5.961,87.738,7.249,90.566,8.803"/>
</g>
<g>
	<defs>
		<path id="SVGID_3_" d="M95.409,4.322c-0.21,0.266-0.621,0.923-0.771,1.215c-0.062,0.107-0.293,0.623-0.346,0.665l-0.134-0.323
			c0,0.008-0.015,0.041-0.024,0.041c-0.021,0.047,0.01,0.009-0.021,0.041c-0.008,0.183-0.202,0.541-0.284,0.656
			c-0.069,0.09-0.144,0.183-0.21,0.248c-0.066,0.075-0.15,0.143-0.217,0.22c-0.075,0.122-0.479,0.354-0.582,0.404
			c-0.549,0.291-1.356,0.44-1.961,0.299c-0.119-0.023-0.233-0.081-0.346-0.1l-0.037-0.016c-0.092,0-0.031-0.009-0.043-0.025
			c-0.068,0.01-0.023,0-0.039-0.016c-0.059,0-0.023,0-0.037-0.025c-0.029,0.019-0.021,0.025-0.021-0.008
			c-0.008,0-0.053,0.049-0.061,0.059l-0.211,0.207l-0.059-0.025c0.059,0.084,0.277,0.224,0.365,0.291
			c0.637,0.492,1.393,0.864,2.135,1.121c0.163,0.06,0.329,0.108,0.494,0.15c0.133,0.042,0.409,0.067,0.514,0.132l-2.67-0.322
			c-0.974-0.174-1.758-0.166-2.619,0.216c-0.966,0.424-1.916,1.405-2.41,2.353c-0.192,0.364-0.342,0.706-0.492,1.132
			c-0.616,1.795-0.391,3.946,0.111,5.734c0.367,1.322,0.793,2.343,1.377,3.5c0.156,0.308,0.508,0.873,0.582,1.031l0.01,0.025
			l0.014,0.022l0.023,0.034l0.465,0.708c0.186,0.314,0.807,1.095,1.031,1.329c0.203,0.191,0.39,0.39,0.621,0.563
			c0.457,0.333,0.912,0.64,1.596,0.732c0.74,0.093,1.269-0.14,1.859-0.406c0.586-0.258,1.049-0.492,1.776-0.516
			c0.517-0.021,0.981,0.07,1.437,0.162c0.783,0.158,1.539,0.316,2.498-0.104c0.682-0.3,1.405-1.064,1.817-1.721
			c0.323-0.517,0.569-0.98,0.81-1.57c0.118-0.291,0.231-0.573,0.336-0.881c0.854-2.412,1.422-5.961,0.883-8.529
			c-0.209-0.973-0.568-1.787-1.086-2.527c-0.133-0.191-0.523-0.607-0.553-0.641l-0.016-0.024c-0.09-0.075-0.172-0.158-0.268-0.248
			c-0.615-0.566-1.455-1.049-2.27-1.223c-0.889-0.191-1.682,0.025-2.498,0.332c-0.143,0.051-0.607,0.275-0.695,0.282L95.9,6.809
			c0.209-0.525,0.547-0.949,0.81-1.338c0.095-0.141,0.226-0.258,0.315-0.383l-1.139-1.307C95.707,3.981,95.578,4.106,95.409,4.322"
			/>
	</defs>
	<clipPath id="SVGID_4_">
		<use xlink:href="#SVGID_3_"  overflow="visible"/>
	</clipPath>
	<polygon clip-path="url(#SVGID_4_)" fill-rule="evenodd" clip-rule="evenodd" fill="#BDD649" points="81.387,14.872 95.655,2.319 
		95.788,2.511 81.521,15.062 	"/>
	<polygon clip-path="url(#SVGID_4_)" fill-rule="evenodd" clip-rule="evenodd" fill="#BDD649" points="81.453,14.972 95.723,2.411 
		95.855,2.603 81.58,15.154 	"/>
	<polygon clip-path="url(#SVGID_4_)" fill-rule="evenodd" clip-rule="evenodd" fill="#BDD649" points="81.521,15.062 95.789,2.511 
		95.923,2.692 81.65,15.245 	"/>
	<polygon clip-path="url(#SVGID_4_)" fill-rule="evenodd" clip-rule="evenodd" fill="#BDD649" points="81.58,15.154 95.855,2.603 
		95.99,2.785 81.716,15.338 	"/>
	<polygon clip-path="url(#SVGID_4_)" fill-rule="evenodd" clip-rule="evenodd" fill="#BDD648" points="81.65,15.245 95.923,2.692 
		96.05,2.876 81.783,15.429 	"/>
	<polygon clip-path="url(#SVGID_4_)" fill-rule="evenodd" clip-rule="evenodd" fill="#BDD648" points="81.715,15.338 95.99,2.785 
		96.118,2.967 81.852,15.52 	"/>
	<polygon clip-path="url(#SVGID_4_)" fill-rule="evenodd" clip-rule="evenodd" fill="#BDD649" points="81.783,15.429 96.051,2.876 
		96.186,3.06 81.91,15.617 	"/>
	<polygon clip-path="url(#SVGID_4_)" fill-rule="evenodd" clip-rule="evenodd" fill="#BDD649" points="81.852,15.52 96.119,2.967 
		96.253,3.158 81.979,15.711 	"/>
	<polygon clip-path="url(#SVGID_4_)" fill-rule="evenodd" clip-rule="evenodd" fill="#BBD649" points="81.91,15.618 96.186,3.06 
		96.32,3.251 82.045,15.804 	"/>
	<polygon clip-path="url(#SVGID_4_)" fill-rule="evenodd" clip-rule="evenodd" fill="#BBD649" points="81.979,15.711 96.253,3.158 
		96.381,3.344 82.111,15.893 	"/>
	<polygon clip-path="url(#SVGID_4_)" fill-rule="evenodd" clip-rule="evenodd" fill="#BBD649" points="82.045,15.804 96.319,3.251 
		96.446,3.433 82.18,15.985 	"/>
	<polygon clip-path="url(#SVGID_4_)" fill-rule="evenodd" clip-rule="evenodd" fill="#BBD649" points="82.111,15.893 96.381,3.344 
		96.516,3.523 82.246,16.076 	"/>
	<polygon clip-path="url(#SVGID_4_)" fill-rule="evenodd" clip-rule="evenodd" fill="#BBD649" points="82.18,15.985 96.447,3.433 
		96.582,3.616 82.305,16.168 	"/>
	<polygon clip-path="url(#SVGID_4_)" fill-rule="evenodd" clip-rule="evenodd" fill="#BBD649" points="82.246,16.076 96.517,3.523 
		96.648,3.707 82.375,16.27 	"/>
	<polygon clip-path="url(#SVGID_4_)" fill-rule="evenodd" clip-rule="evenodd" fill="#BAD549" points="82.305,16.168 96.582,3.616 
		96.717,3.808 82.441,16.358 	"/>
	<polygon clip-path="url(#SVGID_4_)" fill-rule="evenodd" clip-rule="evenodd" fill="#BAD549" points="82.375,16.27 96.648,3.706 
		96.775,3.898 82.508,16.451 	"/>
	<polygon clip-path="url(#SVGID_4_)" fill-rule="evenodd" clip-rule="evenodd" fill="#BAD54A" points="82.441,16.358 96.717,3.808 
		96.845,3.991 82.574,16.542 	"/>
	<polygon clip-path="url(#SVGID_4_)" fill-rule="evenodd" clip-rule="evenodd" fill="#BAD54A" points="82.508,16.451 96.776,3.898 
		96.911,4.082 82.637,16.633 	"/>
	<polygon clip-path="url(#SVGID_4_)" fill-rule="evenodd" clip-rule="evenodd" fill="#B9D549" points="82.574,16.542 96.845,3.991 
		96.978,4.173 82.703,16.726 	"/>
	<polygon clip-path="url(#SVGID_4_)" fill-rule="evenodd" clip-rule="evenodd" fill="#B9D549" points="82.637,16.633 96.911,4.082 
		97.045,4.266 82.77,16.816 	"/>
	<polygon clip-path="url(#SVGID_4_)" fill-rule="evenodd" clip-rule="evenodd" fill="#B9D549" points="82.703,16.726 96.978,4.173 
		97.104,4.355 82.84,16.917 	"/>
	<polygon clip-path="url(#SVGID_4_)" fill-rule="evenodd" clip-rule="evenodd" fill="#B9D549" points="82.77,16.816 97.045,4.266 
		97.174,4.455 82.904,17.006 	"/>
	<polygon clip-path="url(#SVGID_4_)" fill-rule="evenodd" clip-rule="evenodd" fill="#B9D549" points="82.84,16.917 97.105,4.354 
		97.239,4.546 82.973,17.099 	"/>
	<polygon clip-path="url(#SVGID_4_)" fill-rule="evenodd" clip-rule="evenodd" fill="#B9D549" points="82.904,17.006 97.175,4.455 
		97.308,4.639 83.033,17.191 	"/>
	<polygon clip-path="url(#SVGID_4_)" fill-rule="evenodd" clip-rule="evenodd" fill="#B9D549" points="82.973,17.099 97.24,4.546 
		97.375,4.731 83.1,17.281 	"/>
	<polygon clip-path="url(#SVGID_4_)" fill-rule="evenodd" clip-rule="evenodd" fill="#B7D44A" points="83.033,17.191 97.308,4.639 
		97.443,4.822 83.168,17.373 	"/>
	<polygon clip-path="url(#SVGID_4_)" fill-rule="evenodd" clip-rule="evenodd" fill="#B7D44A" points="83.1,17.281 97.375,4.731 
		97.502,4.913 83.232,17.466 	"/>
	<polygon clip-path="url(#SVGID_4_)" fill-rule="evenodd" clip-rule="evenodd" fill="#B7D44A" points="83.168,17.373 97.442,4.822 
		97.57,5.005 83.303,17.564 	"/>
	<polygon clip-path="url(#SVGID_4_)" fill-rule="evenodd" clip-rule="evenodd" fill="#B7D44A" points="83.232,17.466 97.503,4.913 
		97.636,5.104 83.369,17.654 	"/>
	<polygon clip-path="url(#SVGID_4_)" fill-rule="evenodd" clip-rule="evenodd" fill="#B7D44A" points="83.303,17.564 97.571,5.005 
		97.703,5.195 83.43,17.747 	"/>
	<polygon clip-path="url(#SVGID_4_)" fill-rule="evenodd" clip-rule="evenodd" fill="#B7D44A" points="83.369,17.655 97.637,5.104 
		97.772,5.287 83.496,17.839 	"/>
	<polygon clip-path="url(#SVGID_4_)" fill-rule="evenodd" clip-rule="evenodd" fill="#B6D44A" points="83.43,17.747 97.703,5.195 
		97.832,5.379 83.565,17.931 	"/>
	<polygon clip-path="url(#SVGID_4_)" fill-rule="evenodd" clip-rule="evenodd" fill="#B6D44A" points="83.496,17.839 97.772,5.287 
		97.898,5.471 83.631,18.021 	"/>
	<polygon clip-path="url(#SVGID_4_)" fill-rule="evenodd" clip-rule="evenodd" fill="#B6D44A" points="83.564,17.931 97.833,5.379 
		97.966,5.562 83.697,18.114 	"/>
	<polygon clip-path="url(#SVGID_4_)" fill-rule="evenodd" clip-rule="evenodd" fill="#B6D44A" points="83.631,18.021 97.898,5.471 
		98.033,5.654 83.758,18.213 	"/>
	<polygon clip-path="url(#SVGID_4_)" fill-rule="evenodd" clip-rule="evenodd" fill="#B6D44A" points="83.697,18.114 97.967,5.562 
		98.101,5.754 83.826,18.305 	"/>
	<polygon clip-path="url(#SVGID_4_)" fill-rule="evenodd" clip-rule="evenodd" fill="#B5D44A" points="83.758,18.213 98.033,5.654 
		98.168,5.844 83.893,18.396 	"/>
	<polygon clip-path="url(#SVGID_4_)" fill-rule="evenodd" clip-rule="evenodd" fill="#B5D44A" points="83.826,18.305 98.101,5.754 
		98.229,5.936 83.959,18.487 	"/>
	<polygon clip-path="url(#SVGID_4_)" fill-rule="evenodd" clip-rule="evenodd" fill="#B5D44A" points="83.893,18.396 98.168,5.844 
		98.296,6.027 84.029,18.578 	"/>
	<polygon clip-path="url(#SVGID_4_)" fill-rule="evenodd" clip-rule="evenodd" fill="#B5D44A" points="83.959,18.487 98.229,5.936 
		98.363,6.118 84.095,18.669 	"/>
	<polygon clip-path="url(#SVGID_4_)" fill-rule="evenodd" clip-rule="evenodd" fill="#B5D44A" points="84.029,18.578 98.297,6.027 
		98.431,6.209 84.154,18.762 	"/>
	<polygon clip-path="url(#SVGID_4_)" fill-rule="evenodd" clip-rule="evenodd" fill="#B5D44A" points="84.094,18.669 98.364,6.118 
		98.496,6.302 84.221,18.861 	"/>
	<polygon clip-path="url(#SVGID_4_)" fill-rule="evenodd" clip-rule="evenodd" fill="#B5D44A" points="84.154,18.762 98.431,6.209 
		98.564,6.401 84.29,18.953 	"/>
	<polygon clip-path="url(#SVGID_4_)" fill-rule="evenodd" clip-rule="evenodd" fill="#B5D44A" points="84.221,18.861 98.496,6.303 
		98.624,6.492 84.357,19.045 	"/>
	<polygon clip-path="url(#SVGID_4_)" fill-rule="evenodd" clip-rule="evenodd" fill="#B5D44A" points="84.289,18.953 98.564,6.401 
		98.691,6.584 84.422,19.137 	"/>
	<polygon clip-path="url(#SVGID_4_)" fill-rule="evenodd" clip-rule="evenodd" fill="#B5D44A" points="84.357,19.045 98.625,6.492 
		98.76,6.675 84.486,19.228 	"/>
	<polygon clip-path="url(#SVGID_4_)" fill-rule="evenodd" clip-rule="evenodd" fill="#B5D44A" points="84.422,19.137 98.692,6.584 
		98.826,6.768 84.549,19.318 	"/>
	<polygon clip-path="url(#SVGID_4_)" fill-rule="evenodd" clip-rule="evenodd" fill="#B4D34B" points="84.486,19.228 98.76,6.675 
		98.893,6.858 84.619,19.409 	"/>
	<polygon clip-path="url(#SVGID_4_)" fill-rule="evenodd" clip-rule="evenodd" fill="#B4D34B" points="84.549,19.318 98.826,6.768 
		98.954,6.949 84.686,19.51 	"/>
	<polygon clip-path="url(#SVGID_4_)" fill-rule="evenodd" clip-rule="evenodd" fill="#B4D34B" points="84.619,19.409 98.893,6.858 
		99.021,7.049 84.754,19.602 	"/>
	<polygon clip-path="url(#SVGID_4_)" fill-rule="evenodd" clip-rule="evenodd" fill="#B4D34B" points="84.686,19.51 98.955,6.949 
		99.089,7.141 84.82,19.693 	"/>
	<polygon clip-path="url(#SVGID_4_)" fill-rule="evenodd" clip-rule="evenodd" fill="#B4D34B" points="84.754,19.602 99.022,7.049 
		99.155,7.232 84.879,19.784 	"/>
	<polygon clip-path="url(#SVGID_4_)" fill-rule="evenodd" clip-rule="evenodd" fill="#B4D34B" points="84.82,19.693 99.089,7.141 
		99.223,7.322 84.947,19.875 	"/>
	<polygon clip-path="url(#SVGID_4_)" fill-rule="evenodd" clip-rule="evenodd" fill="#B3D34B" points="84.879,19.784 99.155,7.232 
		99.291,7.415 85.016,19.968 	"/>
	<polygon clip-path="url(#SVGID_4_)" fill-rule="evenodd" clip-rule="evenodd" fill="#B3D34B" points="84.947,19.875 99.223,7.322 
		99.35,7.506 85.082,20.059 	"/>
	<polygon clip-path="url(#SVGID_4_)" fill-rule="evenodd" clip-rule="evenodd" fill="#B3D34B" points="85.016,19.968 99.29,7.415 
		99.417,7.599 85.148,20.149 	"/>
	<polygon clip-path="url(#SVGID_4_)" fill-rule="evenodd" clip-rule="evenodd" fill="#B3D34B" points="85.082,20.059 99.351,7.506 
		99.485,7.698 85.209,20.25 	"/>
	<polygon clip-path="url(#SVGID_4_)" fill-rule="evenodd" clip-rule="evenodd" fill="#B3D34B" points="85.148,20.149 99.418,7.599 
		99.553,7.788 85.277,20.341 	"/>
	<polygon clip-path="url(#SVGID_4_)" fill-rule="evenodd" clip-rule="evenodd" fill="#B2D24B" points="85.209,20.25 99.485,7.698 
		99.621,7.881 85.344,20.434 	"/>
	<polygon clip-path="url(#SVGID_4_)" fill-rule="evenodd" clip-rule="evenodd" fill="#B2D24B" points="85.277,20.341 99.553,7.788 
		99.68,7.972 85.41,20.523 	"/>
	<polygon clip-path="url(#SVGID_4_)" fill-rule="evenodd" clip-rule="evenodd" fill="#B2D24B" points="85.344,20.434 99.62,7.881 
		99.747,8.063 85.48,20.615 	"/>
	<polygon clip-path="url(#SVGID_4_)" fill-rule="evenodd" clip-rule="evenodd" fill="#B2D24B" points="85.41,20.523 99.681,7.972 
		99.813,8.155 85.547,20.707 	"/>
	<polygon clip-path="url(#SVGID_4_)" fill-rule="evenodd" clip-rule="evenodd" fill="#B2D24B" points="85.48,20.615 99.748,8.063 
		99.881,8.246 85.605,20.798 	"/>
	<polygon clip-path="url(#SVGID_4_)" fill-rule="evenodd" clip-rule="evenodd" fill="#B2D24B" points="85.547,20.707 99.814,8.155 
		99.95,8.347 85.674,20.898 	"/>
	<polygon clip-path="url(#SVGID_4_)" fill-rule="evenodd" clip-rule="evenodd" fill="#B2D24B" points="85.605,20.798 99.881,8.246 
		100.016,8.438 85.741,20.988 	"/>
	<polygon clip-path="url(#SVGID_4_)" fill-rule="evenodd" clip-rule="evenodd" fill="#B2D24B" points="85.674,20.897 99.95,8.347 
		100.075,8.528 85.809,21.081 	"/>
	<polygon clip-path="url(#SVGID_4_)" fill-rule="evenodd" clip-rule="evenodd" fill="#B2D24B" points="85.74,20.988 100.016,8.438 
		100.144,8.621 85.875,21.171 	"/>
	<polygon clip-path="url(#SVGID_4_)" fill-rule="evenodd" clip-rule="evenodd" fill="#B2D24B" points="85.809,21.081 100.076,8.528 
		100.211,8.712 85.936,21.264 	"/>
	<polygon clip-path="url(#SVGID_4_)" fill-rule="evenodd" clip-rule="evenodd" fill="#B2D24B" points="85.875,21.171 100.144,8.621 
		100.278,8.803 86.004,21.355 	"/>
	<polygon clip-path="url(#SVGID_4_)" fill-rule="evenodd" clip-rule="evenodd" fill="#AFD14C" points="85.936,21.264 100.211,8.712 
		100.346,8.896 86.068,21.447 	"/>
	<polygon clip-path="url(#SVGID_4_)" fill-rule="evenodd" clip-rule="evenodd" fill="#AFD14C" points="86.004,21.355 100.278,8.803 
		100.406,8.986 86.139,21.547 	"/>
	<polygon clip-path="url(#SVGID_4_)" fill-rule="evenodd" clip-rule="evenodd" fill="#AFD14C" points="86.068,21.447 100.346,8.896 
		100.472,9.085 86.205,21.64 	"/>
	<polygon clip-path="url(#SVGID_4_)" fill-rule="evenodd" clip-rule="evenodd" fill="#AFD14C" points="86.139,21.547 100.407,8.986 
		100.539,9.176 86.271,21.729 	"/>
	<polygon clip-path="url(#SVGID_4_)" fill-rule="evenodd" clip-rule="evenodd" fill="#AFD14C" points="86.205,21.64 100.473,9.085 
		100.606,9.269 86.332,21.821 	"/>
	<polygon clip-path="url(#SVGID_4_)" fill-rule="evenodd" clip-rule="evenodd" fill="#AFD14C" points="86.271,21.729 100.54,9.176 
		100.675,9.359 86.398,21.911 	"/>
	<polygon clip-path="url(#SVGID_4_)" fill-rule="evenodd" clip-rule="evenodd" fill="#AED14C" points="86.332,21.821 100.606,9.269 
		100.742,9.451 86.467,22.004 	"/>
	<polygon clip-path="url(#SVGID_4_)" fill-rule="evenodd" clip-rule="evenodd" fill="#AED14C" points="86.398,21.911 100.675,9.359 
		100.802,9.543 86.533,22.095 	"/>
	<polygon clip-path="url(#SVGID_4_)" fill-rule="evenodd" clip-rule="evenodd" fill="#AED14C" points="86.467,22.004 100.742,9.451 
		100.869,9.635 86.603,22.194 	"/>
	<polygon clip-path="url(#SVGID_4_)" fill-rule="evenodd" clip-rule="evenodd" fill="#AED14C" points="86.533,22.095 100.802,9.543 
		100.937,9.734 86.67,22.287 	"/>
	<polygon clip-path="url(#SVGID_4_)" fill-rule="evenodd" clip-rule="evenodd" fill="#AED14C" points="86.602,22.194 100.87,9.634 
		101.004,9.825 86.729,22.377 	"/>
	<polygon clip-path="url(#SVGID_4_)" fill-rule="evenodd" clip-rule="evenodd" fill="#AED14C" points="86.67,22.287 100.938,9.734 
		101.07,9.917 86.795,22.469 	"/>
	<polygon clip-path="url(#SVGID_4_)" fill-rule="evenodd" clip-rule="evenodd" fill="#AED14C" points="86.729,22.377 101.004,9.825 
		101.13,10.009 86.863,22.561 	"/>
	<polygon clip-path="url(#SVGID_4_)" fill-rule="evenodd" clip-rule="evenodd" fill="#AED14C" points="86.795,22.469 101.07,9.917 
		101.199,10.101 86.93,22.651 	"/>
	<polygon clip-path="url(#SVGID_4_)" fill-rule="evenodd" clip-rule="evenodd" fill="#AED14C" points="86.863,22.561 
		101.131,10.009 101.265,10.191 86.998,22.743 	"/>
	<polygon clip-path="url(#SVGID_4_)" fill-rule="evenodd" clip-rule="evenodd" fill="#AED14C" points="86.93,22.651 101.2,10.101 
		101.333,10.284 87.057,22.843 	"/>
	<polygon clip-path="url(#SVGID_4_)" fill-rule="evenodd" clip-rule="evenodd" fill="#AED14D" points="86.998,22.744 
		101.266,10.191 101.4,10.383 87.125,22.936 	"/>
	<polygon clip-path="url(#SVGID_4_)" fill-rule="evenodd" clip-rule="evenodd" fill="#ACD04D" points="87.057,22.843 
		101.333,10.284 101.469,10.474 87.193,23.026 	"/>
	<polygon clip-path="url(#SVGID_4_)" fill-rule="evenodd" clip-rule="evenodd" fill="#ACD04D" points="87.125,22.935 101.4,10.383 
		101.526,10.566 87.258,23.117 	"/>
	<polygon clip-path="url(#SVGID_4_)" fill-rule="evenodd" clip-rule="evenodd" fill="#ACD04D" points="87.193,23.027 
		101.468,10.474 101.596,10.657 87.328,23.208 	"/>
	<polygon clip-path="url(#SVGID_4_)" fill-rule="evenodd" clip-rule="evenodd" fill="#AED14C" points="87.258,23.117 
		101.526,10.566 101.662,10.748 87.393,23.301 	"/>
	<polygon clip-path="url(#SVGID_4_)" fill-rule="evenodd" clip-rule="evenodd" fill="#AED14C" points="87.328,23.208 
		101.597,10.657 101.729,10.839 87.455,23.392 	"/>
	<polygon clip-path="url(#SVGID_4_)" fill-rule="evenodd" clip-rule="evenodd" fill="#AED14C" points="87.393,23.301 
		101.663,10.748 101.796,10.932 87.521,23.49 	"/>
	<polygon clip-path="url(#SVGID_4_)" fill-rule="evenodd" clip-rule="evenodd" fill="#ACD04C" points="87.455,23.392 
		101.729,10.839 101.865,11.031 87.588,23.583 	"/>
	<polygon clip-path="url(#SVGID_4_)" fill-rule="evenodd" clip-rule="evenodd" fill="#ACD04C" points="87.521,23.49 101.796,10.932 
		101.925,11.123 87.656,23.676 	"/>
	<polygon clip-path="url(#SVGID_4_)" fill-rule="evenodd" clip-rule="evenodd" fill="#ACD04C" points="87.588,23.583 
		101.864,11.031 101.99,11.215 87.724,23.767 	"/>
	<polygon clip-path="url(#SVGID_4_)" fill-rule="evenodd" clip-rule="evenodd" fill="#ACD04D" points="87.656,23.676 
		101.926,11.123 102.059,11.305 87.783,23.857 	"/>
	<polygon clip-path="url(#SVGID_4_)" fill-rule="evenodd" clip-rule="evenodd" fill="#ACD04D" points="87.723,23.767 
		101.991,11.215 102.126,11.397 87.852,23.95 	"/>
	<polygon clip-path="url(#SVGID_4_)" fill-rule="evenodd" clip-rule="evenodd" fill="#AAD04D" points="87.783,23.857 
		102.059,11.305 102.193,11.488 87.918,24.039 	"/>
	<polygon clip-path="url(#SVGID_4_)" fill-rule="evenodd" clip-rule="evenodd" fill="#AAD04D" points="87.852,23.95 102.126,11.397 
		102.254,11.579 87.984,24.141 	"/>
	<polygon clip-path="url(#SVGID_4_)" fill-rule="evenodd" clip-rule="evenodd" fill="#AAD04D" points="87.918,24.039 
		102.193,11.488 102.32,11.681 88.053,24.23 	"/>
	<polygon clip-path="url(#SVGID_4_)" fill-rule="evenodd" clip-rule="evenodd" fill="#AAD04D" points="87.984,24.141 
		102.254,11.578 102.389,11.771 88.12,24.323 	"/>
	<polygon clip-path="url(#SVGID_4_)" fill-rule="evenodd" clip-rule="evenodd" fill="#AAD04D" points="88.053,24.23 102.321,11.681 
		102.454,11.863 88.18,24.414 	"/>
	<polygon clip-path="url(#SVGID_4_)" fill-rule="evenodd" clip-rule="evenodd" fill="#AAD04D" points="88.119,24.323 102.39,11.771 
		102.521,11.954 88.246,24.505 	"/>
	<polygon clip-path="url(#SVGID_4_)" fill-rule="evenodd" clip-rule="evenodd" fill="#AAD04D" points="88.18,24.414 102.454,11.863 
		102.59,12.045 88.316,24.598 	"/>
	<polygon clip-path="url(#SVGID_4_)" fill-rule="evenodd" clip-rule="evenodd" fill="#AAD04D" points="88.246,24.505 
		102.521,11.954 102.649,12.138 88.383,24.688 	"/>
	<polygon clip-path="url(#SVGID_4_)" fill-rule="evenodd" clip-rule="evenodd" fill="#AAD04D" points="88.316,24.598 102.59,12.045 
		102.716,12.229 88.449,24.789 	"/>
	<polygon clip-path="url(#SVGID_4_)" fill-rule="evenodd" clip-rule="evenodd" fill="#AAD04D" points="88.383,24.688 102.65,12.138 
		102.785,12.328 88.51,24.88 	"/>
	<polygon clip-path="url(#SVGID_4_)" fill-rule="evenodd" clip-rule="evenodd" fill="#AAD04D" points="88.449,24.789 
		102.717,12.229 102.852,12.418 88.576,24.971 	"/>
	<polygon clip-path="url(#SVGID_4_)" fill-rule="evenodd" clip-rule="evenodd" fill="#A8CF4E" points="88.51,24.88 102.785,12.328 
		102.92,12.511 88.645,25.062 	"/>
	<polygon clip-path="url(#SVGID_4_)" fill-rule="evenodd" clip-rule="evenodd" fill="#A8CF4E" points="88.576,24.971 
		102.852,12.418 102.979,12.602 88.711,25.153 	"/>
	<polygon clip-path="url(#SVGID_4_)" fill-rule="evenodd" clip-rule="evenodd" fill="#A8CF4E" points="88.645,25.062 
		102.919,12.511 103.045,12.693 88.779,25.245 	"/>
	<polygon clip-path="url(#SVGID_4_)" fill-rule="evenodd" clip-rule="evenodd" fill="#A8CF4E" points="88.711,25.153 102.98,12.602 
		103.114,12.785 88.846,25.337 	"/>
	<polygon clip-path="url(#SVGID_4_)" fill-rule="evenodd" clip-rule="evenodd" fill="#A8CF4E" points="88.779,25.245 
		103.046,12.693 103.183,12.877 88.906,25.437 	"/>
	<polygon clip-path="url(#SVGID_4_)" fill-rule="evenodd" clip-rule="evenodd" fill="#A8CF4E" points="88.846,25.337 
		103.115,12.785 103.25,12.977 88.975,25.529 	"/>
	<polygon clip-path="url(#SVGID_4_)" fill-rule="evenodd" clip-rule="evenodd" fill="#A7CF4E" points="88.906,25.437 
		103.183,12.877 103.316,13.069 89.041,25.619 	"/>
	<polygon clip-path="url(#SVGID_4_)" fill-rule="evenodd" clip-rule="evenodd" fill="#A7CF4E" points="88.975,25.529 103.25,12.977 
		103.375,13.158 89.107,25.711 	"/>
	<polygon clip-path="url(#SVGID_4_)" fill-rule="evenodd" clip-rule="evenodd" fill="#A7CF4E" points="89.041,25.619 
		103.315,13.069 103.444,13.251 89.174,25.804 	"/>
	<polygon clip-path="url(#SVGID_4_)" fill-rule="evenodd" clip-rule="evenodd" fill="#A8CF4E" points="89.107,25.711 
		103.376,13.158 103.51,13.342 89.234,25.894 	"/>
	<polygon clip-path="url(#SVGID_4_)" fill-rule="evenodd" clip-rule="evenodd" fill="#A8CF4E" points="89.174,25.804 
		103.444,13.251 103.578,13.434 89.303,25.986 	"/>
	<polygon clip-path="url(#SVGID_4_)" fill-rule="evenodd" clip-rule="evenodd" fill="#A7CF4E" points="89.234,25.894 103.51,13.342 
		103.644,13.525 89.369,26.086 	"/>
	<polygon clip-path="url(#SVGID_4_)" fill-rule="evenodd" clip-rule="evenodd" fill="#A7CF4E" points="89.303,25.986 
		103.578,13.434 103.705,13.624 89.436,26.178 	"/>
	<polygon clip-path="url(#SVGID_4_)" fill-rule="evenodd" clip-rule="evenodd" fill="#A7CF4E" points="89.369,26.086 
		103.644,13.524 103.772,13.717 89.506,26.267 	"/>
	<polygon clip-path="url(#SVGID_4_)" fill-rule="evenodd" clip-rule="evenodd" fill="#A7CF4E" points="89.436,26.177 
		103.706,13.624 103.84,13.807 89.572,26.359 	"/>
	<polygon clip-path="url(#SVGID_4_)" fill-rule="evenodd" clip-rule="evenodd" fill="#A7CF4E" points="89.506,26.267 
		103.773,13.717 103.908,13.898 89.633,26.451 	"/>
	<polygon clip-path="url(#SVGID_4_)" fill-rule="evenodd" clip-rule="evenodd" fill="#A7CF4E" points="89.572,26.359 103.84,13.807 
		103.974,13.99 89.697,26.541 	"/>
	<polygon clip-path="url(#SVGID_4_)" fill-rule="evenodd" clip-rule="evenodd" fill="#A6CE4E" points="89.633,26.451 
		103.908,13.898 104.041,14.082 89.766,26.634 	"/>
	<polygon clip-path="url(#SVGID_4_)" fill-rule="evenodd" clip-rule="evenodd" fill="#A6CE4E" points="89.697,26.541 103.974,13.99 
		104.101,14.174 89.834,26.725 	"/>
	<polygon clip-path="url(#SVGID_4_)" fill-rule="evenodd" clip-rule="evenodd" fill="#A6CE4E" points="89.766,26.634 
		104.041,14.082 104.169,14.271 89.9,26.824 	"/>
	<polygon clip-path="url(#SVGID_4_)" fill-rule="evenodd" clip-rule="evenodd" fill="#A6CE4E" points="89.834,26.725 
		104.102,14.174 104.236,14.364 89.97,26.917 	"/>
	<polygon clip-path="url(#SVGID_4_)" fill-rule="evenodd" clip-rule="evenodd" fill="#A6CE4E" points="89.9,26.824 104.169,14.271 
		104.304,14.457 90.027,27.007 	"/>
	<polygon clip-path="url(#SVGID_4_)" fill-rule="evenodd" clip-rule="evenodd" fill="#A4CE4E" points="89.969,26.917 
		104.237,14.364 104.371,14.547 90.094,27.1 	"/>
	<polygon clip-path="url(#SVGID_4_)" fill-rule="evenodd" clip-rule="evenodd" fill="#A4CE4E" points="90.027,27.007 
		104.304,14.457 104.432,14.638 90.164,27.19 	"/>
	<polygon clip-path="url(#SVGID_4_)" fill-rule="evenodd" clip-rule="evenodd" fill="#A4CE4E" points="90.094,27.1 104.371,14.547 
		104.498,14.73 90.23,27.281 	"/>
	<polygon clip-path="url(#SVGID_4_)" fill-rule="evenodd" clip-rule="evenodd" fill="#A4CE4E" points="90.164,27.19 104.432,14.638 
		104.566,14.821 90.297,27.374 	"/>
	<polygon clip-path="url(#SVGID_4_)" fill-rule="evenodd" clip-rule="evenodd" fill="#A6CE4E" points="90.23,27.281 104.499,14.73 
		104.634,14.921 90.357,27.473 	"/>
	<polygon clip-path="url(#SVGID_4_)" fill-rule="evenodd" clip-rule="evenodd" fill="#A6CE4E" points="90.297,27.374 
		104.567,14.821 104.699,15.013 90.424,27.564 	"/>
	<polygon clip-path="url(#SVGID_4_)" fill-rule="evenodd" clip-rule="evenodd" fill="#A3CD4F" points="90.357,27.473 
		104.634,14.921 104.768,15.104 90.492,27.656 	"/>
	<polygon clip-path="url(#SVGID_4_)" fill-rule="evenodd" clip-rule="evenodd" fill="#A3CD4F" points="90.424,27.564 
		104.699,15.013 104.826,15.196 90.559,27.747 	"/>
	<polygon clip-path="url(#SVGID_4_)" fill-rule="evenodd" clip-rule="evenodd" fill="#A3CD4F" points="90.492,27.656 
		104.768,15.104 104.896,15.287 90.627,27.84 	"/>
	<polygon clip-path="url(#SVGID_4_)" fill-rule="evenodd" clip-rule="evenodd" fill="#A3CD4F" points="90.559,27.747 
		104.827,15.196 104.962,15.38 90.695,27.931 	"/>
	<polygon clip-path="url(#SVGID_4_)" fill-rule="evenodd" clip-rule="evenodd" fill="#A3CD4F" points="90.627,27.84 104.897,15.287 
		105.029,15.469 90.754,28.021 	"/>
	<polygon clip-path="url(#SVGID_4_)" fill-rule="evenodd" clip-rule="evenodd" fill="#A3CD4F" points="90.695,27.931 104.963,15.38 
		105.096,15.562 90.82,28.12 	"/>
	<polygon clip-path="url(#SVGID_4_)" fill-rule="evenodd" clip-rule="evenodd" fill="#A2CD4F" points="90.754,28.021 
		105.029,15.469 105.166,15.66 90.889,28.213 	"/>
	<polygon clip-path="url(#SVGID_4_)" fill-rule="evenodd" clip-rule="evenodd" fill="#A2CD4F" points="90.82,28.12 105.096,15.562 
		105.223,15.753 90.955,28.306 	"/>
	<polygon clip-path="url(#SVGID_4_)" fill-rule="evenodd" clip-rule="evenodd" fill="#A2CD50" points="90.889,28.213 105.165,15.66 
		105.292,15.846 91.023,28.395 	"/>
	<polygon clip-path="url(#SVGID_4_)" fill-rule="evenodd" clip-rule="evenodd" fill="#A2CD50" points="90.955,28.306 
		105.224,15.753 105.358,15.935 91.082,28.487 	"/>
	<polygon clip-path="url(#SVGID_4_)" fill-rule="evenodd" clip-rule="evenodd" fill="#A3CD4F" points="91.023,28.395 
		105.293,15.846 105.426,16.027 91.152,28.58 	"/>
	<polygon clip-path="url(#SVGID_4_)" fill-rule="evenodd" clip-rule="evenodd" fill="#A2CD4F" points="91.082,28.487 
		105.358,15.935 105.494,16.118 91.217,28.67 	"/>
	<polygon clip-path="url(#SVGID_4_)" fill-rule="evenodd" clip-rule="evenodd" fill="#A2CD4F" points="91.152,28.58 105.426,16.027 
		105.552,16.209 91.285,28.77 	"/>
	<polygon clip-path="url(#SVGID_4_)" fill-rule="evenodd" clip-rule="evenodd" fill="#A2CD4F" points="91.217,28.67 105.493,16.118 
		105.621,16.31 91.354,28.86 	"/>
	<polygon clip-path="url(#SVGID_4_)" fill-rule="evenodd" clip-rule="evenodd" fill="#A2CD4F" points="91.285,28.77 105.553,16.208 
		105.688,16.4 91.42,28.953 	"/>
	<polygon clip-path="url(#SVGID_4_)" fill-rule="evenodd" clip-rule="evenodd" fill="#A2CD4F" points="91.354,28.86 105.622,16.31 
		105.754,16.493 91.48,29.044 	"/>
	<polygon clip-path="url(#SVGID_4_)" fill-rule="evenodd" clip-rule="evenodd" fill="#A2CD4F" points="91.42,28.953 105.688,16.4 
		105.821,16.582 91.545,29.135 	"/>
	<polygon clip-path="url(#SVGID_4_)" fill-rule="evenodd" clip-rule="evenodd" fill="#A0CC50" points="91.48,29.044 105.754,16.493 
		105.891,16.675 91.616,29.228 	"/>
	<polygon clip-path="url(#SVGID_4_)" fill-rule="evenodd" clip-rule="evenodd" fill="#A0CC50" points="91.545,29.135 
		105.821,16.582 105.95,16.768 91.682,29.317 	"/>
	<polygon clip-path="url(#SVGID_4_)" fill-rule="evenodd" clip-rule="evenodd" fill="#A0CC50" points="91.615,29.228 
		105.891,16.675 106.016,16.857 91.75,29.419 	"/>
	<polygon clip-path="url(#SVGID_4_)" fill-rule="evenodd" clip-rule="evenodd" fill="#A0CC50" points="91.682,29.317 
		105.951,16.768 106.086,16.959 91.811,29.51 	"/>
	<polygon clip-path="url(#SVGID_4_)" fill-rule="evenodd" clip-rule="evenodd" fill="#A0CC50" points="91.75,29.419 106.017,16.857 
		106.151,17.05 91.877,29.601 	"/>
	<polygon clip-path="url(#SVGID_4_)" fill-rule="evenodd" clip-rule="evenodd" fill="#A0CC50" points="91.811,29.51 106.086,16.959 
		106.219,17.141 91.943,29.693 	"/>
	<polygon clip-path="url(#SVGID_4_)" fill-rule="evenodd" clip-rule="evenodd" fill="#A0CC50" points="91.877,29.601 106.151,17.05 
		106.278,17.233 92.01,29.783 	"/>
	<polygon clip-path="url(#SVGID_4_)" fill-rule="evenodd" clip-rule="evenodd" fill="#A0CC50" points="91.943,29.693 
		106.219,17.141 106.347,17.323 92.078,29.875 	"/>
	<polygon clip-path="url(#SVGID_4_)" fill-rule="evenodd" clip-rule="evenodd" fill="#A0CC50" points="92.01,29.783 106.279,17.233 
		106.413,17.415 92.146,29.968 	"/>
	<polygon clip-path="url(#SVGID_4_)" fill-rule="evenodd" clip-rule="evenodd" fill="#A0CC50" points="92.078,29.875 
		106.348,17.323 106.481,17.507 92.205,30.066 	"/>
	<polygon clip-path="url(#SVGID_4_)" fill-rule="evenodd" clip-rule="evenodd" fill="#A0CC50" points="92.145,29.968 
		106.414,17.415 106.549,17.606 92.271,30.157 	"/>
	<polygon clip-path="url(#SVGID_4_)" fill-rule="evenodd" clip-rule="evenodd" fill="#9FCC50" points="92.205,30.066 
		106.481,17.507 106.615,17.697 92.342,30.25 	"/>
	<polygon clip-path="url(#SVGID_4_)" fill-rule="evenodd" clip-rule="evenodd" fill="#9FCC50" points="92.271,30.157 
		106.549,17.606 106.675,17.788 92.408,30.341 	"/>
	<polygon clip-path="url(#SVGID_4_)" fill-rule="evenodd" clip-rule="evenodd" fill="#9FCC50" points="92.342,30.25 106.615,17.697 
		106.741,17.881 92.475,30.433 	"/>
	<polygon clip-path="url(#SVGID_4_)" fill-rule="evenodd" clip-rule="evenodd" fill="#9FCC50" points="92.408,30.341 
		106.676,17.788 106.81,17.972 92.533,30.523 	"/>
	<polygon clip-path="url(#SVGID_4_)" fill-rule="evenodd" clip-rule="evenodd" fill="#9FCC50" points="92.475,30.433 
		106.742,17.881 106.877,18.064 92.602,30.616 	"/>
	<polygon clip-path="url(#SVGID_4_)" fill-rule="evenodd" clip-rule="evenodd" fill="#9ECC50" points="92.533,30.523 106.81,17.972 
		106.945,18.155 92.67,30.715 	"/>
	<polygon clip-path="url(#SVGID_4_)" fill-rule="evenodd" clip-rule="evenodd" fill="#9ECC50" points="92.602,30.616 
		106.877,18.064 107.004,18.254 92.737,30.807 	"/>
	<polygon clip-path="url(#SVGID_4_)" fill-rule="evenodd" clip-rule="evenodd" fill="#9ECC50" points="92.67,30.715 106.944,18.156 
		107.072,18.347 92.805,30.899 	"/>
	<polygon clip-path="url(#SVGID_4_)" fill-rule="evenodd" clip-rule="evenodd" fill="#9ECC50" points="92.736,30.807 
		107.005,18.254 107.14,18.437 92.871,30.989 	"/>
	<polygon clip-path="url(#SVGID_4_)" fill-rule="evenodd" clip-rule="evenodd" fill="#9ECC52" points="92.805,30.899 
		107.073,18.347 107.207,18.529 92.93,31.082 	"/>
	<polygon clip-path="url(#SVGID_4_)" fill-rule="evenodd" clip-rule="evenodd" fill="#9ECC50" points="92.871,30.989 
		107.141,18.437 107.273,18.621 93,31.173 	"/>
	<polygon clip-path="url(#SVGID_4_)" fill-rule="evenodd" clip-rule="evenodd" fill="#9ECC50" points="92.93,31.082 107.207,18.529 
		107.342,18.711 93.066,31.264 	"/>
</g>
<g>
	<defs>
		<rect id="SVGID_5_" width="107.341" height="31.264"/>
	</defs>
	<clipPath id="SVGID_6_">
		<use xlink:href="#SVGID_5_"  overflow="visible"/>
	</clipPath>
	<path clip-path="url(#SVGID_6_)" fill-rule="evenodd" clip-rule="evenodd" fill="#8CA43C" d="M90.006,7.839l0.06,0.025l0.21-0.207
		c0.007-0.01,0.052-0.059,0.061-0.059c0,0.033-0.009,0.025,0.021,0.008c0.013,0.025-0.021,0.025,0.038,0.025
		c0.014,0.016-0.031,0.025,0.038,0.016c0.014,0.017-0.049,0.025,0.044,0.025l0.036,0.017l-0.036-0.017l-0.044-0.025l-0.038-0.016
		l-0.038-0.025l-0.021-0.008c-0.045-0.067-0.136-0.084-0.188-0.175C90.11,7.356,90.051,7.308,90,7.207
		c-0.039-0.075-0.078-0.167-0.099-0.258c-0.151-0.582,0.053-1.021,0.299-1.47c0.12-0.208,0.136-0.167,0.136-0.167
		c0.049-0.008-0.039-0.092,0.012,0.007c0.037,0,0.031,0.011,0.022-0.032c-0.028-0.024-0.043-0.016-0.006-0.016
		c0.045-0.026,0.015,0.006,0.045-0.042c0-0.009,0.015-0.041,0.024-0.05c0.058-0.159,0.336-0.508,0.447-0.592l0.018-0.017
		l0.012-0.016l0.023-0.024l0.015-0.018c0.21-0.2,0.388-0.322,0.644-0.499c0.18-0.074,0.308-0.158,0.531-0.224
		c0.256-0.067,0.404-0.042,0.649-0.074l0.024,0.007l-0.024-0.007c-0.074-0.175-1.077-1.146-1.315-1.265
		c-0.008,0.042,0.029,0.118,0.029,0.175c0.008,0.074,0,0.15-0.006,0.224c0.021-0.049,0.029-0.09,0.029-0.149
		c0.098,0.25,0.008,0.417-0.037,0.615c-0.053,0.093-0.016,0.042-0.092,0.142c-0.229,0.324-0.918,0.426-1.09,0.226
		c-0.181-0.06-0.337-0.232-0.421-0.4c-0.127-0.24-0.12-0.391-0.12-0.689l0.024-0.066l0.028-0.124l0.031-0.01l-0.031,0.01
		c-0.043-0.066,0.054-0.225,0.076-0.29l0.006-0.009c0.069-0.151,0.231-0.335,0.412-0.367l-0.021-0.051
		c-0.464-0.248-1.071-0.48-1.624-0.622l-1.976-0.24c-0.061,0.473,0.203,1.786,0.336,2.286c0.187,0.706,0.436,1.305,0.727,1.886
		c0.143,0.3,0.309,0.557,0.473,0.814c0.336,0.533,0.447,0.649,0.815,1.088c0.104,0.127,0.209,0.209,0.313,0.325
		C89.461,7.364,89.87,7.748,90.006,7.839"/>
	<path clip-path="url(#SVGID_6_)" fill-rule="evenodd" clip-rule="evenodd" fill="#FFFFFF" d="M90.492,5.687
		c0.021,0.05,0.029,0.04-0.023,0.033c-0.186,0.216-0.164,0.707,0.113,1.023c0.082,0.099,0.238,0.214,0.389,0.29
		c0.082,0.032,0.159,0.065,0.241,0.083c0.079,0.024,0.192,0.033,0.26,0.057c0.099-0.007,0.202,0,0.306-0.007
		c0.09-0.008,0.194-0.034,0.285-0.034l0.073-0.008l0.047-0.025c0,0,0.015-0.009,0.022-0.009c0.125-0.041,0.352-0.099,0.441-0.164
		c0.008-0.011,0.023-0.027,0.023-0.033c0-0.009,0.007-0.009,0.007-0.009c-0.218-0.068-0.321-0.136-0.435-0.167
		c-0.06-0.016-0.066-0.024-0.111-0.057c-0.008,0-0.016,0-0.016-0.01l-0.099-0.408c-0.088-0.092-0.194-0.149-0.299-0.189
		c0.06-0.092,0.092-0.117,0.196-0.175l0.045-0.019l0.193-0.148c0-0.05-0.008-0.041,0.03-0.024
		C92.131,5.661,90.591,5.67,90.492,5.687"/>
	<path clip-path="url(#SVGID_6_)" fill-rule="evenodd" clip-rule="evenodd" fill="#BBBFC4" d="M100.393,25.66l-0.018,0.025
		l-0.021,0.017l-0.023,0.017l-0.021,0.017l-0.016,0.018c0,0.024,0.008,0.024-0.021,0.017c0,0.033,0.008,0.025-0.023,0.025
		c-0.066,0.107-0.441,0.382-0.583,0.48c-0.179,0.125-0.442,0.266-0.674,0.367c-0.208,0.093-0.158,0.074-0.39,0.141
		c-0.252,0.074-0.599,0.148-0.86,0.158c-0.118,0-0.396-0.024-0.487,0.009c-0.051-0.027-0.229-0.042-0.32-0.027l-0.129-0.023
		c0.031,0.018-0.029,0.009,0.063,0.023c0.066,0.019,0.037,0.009,0.066,0c0.045,0.027,0.016,0.009,0.074,0.027
		c0.023,0,0.061,0.009,0.082,0.009c0.069,0.008,0.098,0.008,0.164-0.009c-0.066,0.099-0.26,0.14-0.342,0.19
		c-0.023,0.016-0.039,0.016-0.066,0.033c-0.121,0.051-0.277,0.141-0.392,0.2c-0.112,0.065-0.192,0.082-0.313,0.082
		c0.037,0.034,0.065,0.04,0.112,0.049c0.306,0.093,0.45,0.136,0.785,0.202c0.547,0.107,0.599,0.04,1.026,0.059
		c0.029-0.027,0.149-0.027,0.224-0.069l0.308-0.215c0.022-0.025,0.022-0.025,0.037-0.033c0.029-0.017,0.023-0.017,0.051-0.034
		l0.114-0.091c0.224-0.167,0.606-0.508,0.798-0.689l0.773-0.864c0.052-0.059,0.038-0.008,0.096-0.124l0.023-0.033
		c0.029-0.042,0.037-0.035,0.074-0.103l-0.125,0.118C100.414,25.646,100.414,25.646,100.393,25.66"/>
	<path clip-path="url(#SVGID_6_)" fill-rule="evenodd" clip-rule="evenodd" fill="#858A8E" d="M96.141,27.456
		c0.121,0,0.201-0.017,0.314-0.082c0.113-0.06,0.27-0.149,0.391-0.2c0.027-0.018,0.043-0.018,0.066-0.033
		c0.082-0.051,0.275-0.092,0.342-0.19c-0.066,0.017-0.095,0.017-0.164,0.009c-0.021,0-0.059-0.009-0.082-0.009
		c-0.059-0.02-0.029,0-0.074-0.027c-0.029,0.008,0,0.019-0.066,0c-0.092-0.015-0.031-0.006-0.063-0.023
		c-0.59,0.018-1.697-0.573-2.9-0.084c-1.167,0.483-1.28,0.724-2.658,0.749l0.646,0.075c1.076,0.067,1.959-0.673,3.104-0.499
		C95.446,27.216,95.96,27.431,96.141,27.456"/>
	<path clip-path="url(#SVGID_6_)" fill-rule="evenodd" clip-rule="evenodd" fill="#62A043" d="M90.148,7.424
		c0.053,0.091,0.143,0.107,0.187,0.175l0.022,0.008l0.037,0.025l0.039,0.016l0.043,0.025l0.037,0.017
		c0.113,0.017,0.227,0.075,0.346,0.099c0.604,0.142,1.412-0.007,1.961-0.298c0.103-0.051,0.508-0.283,0.582-0.406
		c-0.053-0.027-0.029-0.01-0.074-0.059c-0.075-0.1-0.084-0.16-0.127-0.192l0.037-0.065c-0.082,0.023-0.188,0.074-0.262,0.107
		c-0.218,0.107-0.652,0.25-0.841,0.25l-0.073,0.007c-0.091,0-0.195,0.026-0.285,0.035c-0.104,0.006-0.207,0-0.306,0.006
		c-0.239,0.034-0.516-0.032-0.71-0.116c-0.172-0.065-0.322-0.164-0.427-0.322l-0.044-0.06c0.044,0.134,0.088,0.167,0.173,0.224
		c-0.069,0.109-0.196,0.3-0.22,0.423c-0.006,0.052,0,0.061-0.03,0.094C90.178,7.449,90.23,7.457,90.148,7.424"/>
	<path clip-path="url(#SVGID_6_)" fill-rule="evenodd" clip-rule="evenodd" fill="#62A043" d="M91.592,4.015L91.57,4.048
		c0.088,0,0.045,0,0.082,0.026c-0.037-0.009-0.03-0.026-0.03,0.016c-0.06-0.016-0.022-0.008-0.04,0.018
		c-0.057-0.009-0.02-0.009-0.037,0.015c-0.035-0.006-0.027-0.015-0.027,0.025c0.045,0,0.035,0.017,0.027-0.025
		c0.055,0.009,0.03,0.009,0.037-0.015c0.063,0,0.033,0.009,0.04-0.018c0.036,0.009,0.044,0.026,0.03-0.016
		c0.119,0,0.342-0.167,0.689-0.102c0.043,0.01,0.072,0.019,0.109,0.033c0.105,0.042,0.068,0.027,0.076,0.027l-0.053,0.032
		c0.308-0.051,0.546-0.074,0.785,0.099c0.09,0.06,0.181,0.158,0.219,0.274c0.045,0.126,0.027,0.35-0.061,0.408
		c-0.031,0.058-0.031,0.058-0.076,0.1c-0.045,0.05-0.028,0.033-0.082,0.065l-0.017,0.034c0.084,0.008,0.084,0.059,0.152,0.108
		c0.059,0.049,0.095,0.083,0.133,0.158C93.49,5.296,93.5,5.277,93.5,5.319l0.028-0.007l0.345-0.017l0.038,0.065
		c0.054,0.144,0.015,0.158,0.007,0.274l-0.014,0.051c0.021-0.017,0.021,0.024,0.014-0.051l0.047-0.017
		c0.037,0.076,0.037,0.059,0.074,0.117c0.006,0,0.006,0.008,0.006,0.018l0.023,0.032c0.044,0.092,0.029,0.017,0.037,0.108
		l0.007,0.066c0.032-0.032,0,0.006,0.022-0.041c0.01,0,0.023-0.033,0.023-0.042c-0.053-0.116,0.135-0.31,0.051-0.807
		c-0.127-0.758-0.641-1.297-1.412-1.348l-0.024-0.007c-0.245,0.032-0.394,0.007-0.649,0.074C91.899,3.856,91.771,3.94,91.592,4.015"
		/>
	<path clip-path="url(#SVGID_6_)" fill-rule="evenodd" clip-rule="evenodd" fill="#FFFFFF" d="M92.475,4.065l-0.276,0.091
		c-0.062,0.075-0.142,0.075-0.181,0.133c0,0.01-0.008,0.01-0.008,0.019l-0.052,0.065c0.044,0.023,0.099,0.033,0.149,0.057
		c0.029,0.018,0.022,0.018,0.037,0.025l0.022,0.008c0.104,0.051,0.308,0.102,0.322,0.108c0.053,0.034,0.016-0.026,0.016,0.042
		l0.448,0.175c0.053,0.025,0.031,0.018,0.066,0.042c0,0.008,0.009,0.008,0.009,0.008c0.06,0.041,0.216,0.082,0.284,0.108l0.104-0.1
		c0.089-0.059,0.106-0.282,0.062-0.408c-0.039-0.116-0.129-0.215-0.219-0.274C93.02,3.991,92.783,4.015,92.475,4.065"/>
	<path clip-path="url(#SVGID_6_)" fill-rule="evenodd" clip-rule="evenodd" fill="#AFCA39" d="M92.684,5.844
		c0,0.025,0.01,0.025-0.015,0.016c-0.014,0.035-0.007,0.019-0.022,0.042L92.639,5.91c-0.006,0-0.006,0.01-0.015,0.01
		c0.009,0.041,0.022,0.032-0.015,0.032c-0.022,0.084-0.038,0.149-0.03,0.257c0.076,0.051,0.706,0.074,0.838,0.116
		c0.03,0.034,0.015,0.042,0.015,0.042c0-0.008-0.015,0.009-0.015,0.009c-0.036,0.051-0.007,0.033-0.067,0.075
		c0.008,0.032,0.016,0.025-0.015,0.016c0,0.025,0.007,0.025-0.022,0.017c0,0.025,0.008,0.019-0.021,0.019l-0.025,0.023
		c-0.035,0.033-0.027,0.025-0.082,0.059c-0.043,0.091-0.424,0.3-0.537,0.342c-0.09,0.065-0.316,0.123-0.441,0.164
		c-0.007,0-0.021,0.009-0.021,0.009l-0.047,0.026l-0.074,0.007l0.074-0.007c0.188,0,0.623-0.143,0.84-0.25
		c0.074-0.033,0.18-0.084,0.262-0.107c0.082-0.066,0.314-0.191,0.359-0.266c0-0.051-0.008-0.042,0.028-0.035
		c0-0.023-0.007-0.016,0.022-0.007c0-0.033-0.006-0.025,0.022-0.017l0.024-0.034c0-0.033-0.01-0.024,0.021-0.019
		c-0.009-0.031-0.009-0.023,0.021-0.015c-0.006-0.032-0.006-0.023,0.016-0.017c0-0.034,0-0.025,0.023-0.016l0.021-0.019
		c0-0.032-0.008-0.023,0.016-0.023c0-0.024-0.008-0.024,0.021-0.019c-0.006-0.032-0.014-0.023,0.016-0.015
		c-0.008-0.083-0.021-0.125-0.066-0.184l-0.047-0.049c0.008,0.032,0.008,0.023-0.014,0.023l-0.017,0.025
		c0.009,0.033,0.017,0.025-0.013,0.025c0.006,0.033,0.013,0.024-0.016,0.024c0.006,0.032,0.016,0.025-0.016,0.025
		c0.007,0.032,0.016,0.025-0.016,0.016c0.008,0.033,0.008,0.025-0.022,0.017c0.007,0.034,0.017,0.025-0.015,0.025
		c0.008,0.033,0.008,0.024-0.021,0.017c0.008,0.034,0.016,0.025-0.014,0.017c0.006,0.042,0.006,0.026-0.023,0.026
		c-0.023,0.024-0.008,0.016-0.047,0.041l-0.066,0.025c0.039-0.075,0.029-0.075,0.09-0.135l0.104-0.224
		c-0.08,0.009-0.298-0.091-0.395-0.135l-0.21-0.071c-0.06-0.018-0.136-0.018-0.173-0.093c-0.021,0.04-0.045,0.04-0.084,0.075
		C92.729,5.811,92.737,5.818,92.684,5.844"/>
	<path clip-path="url(#SVGID_6_)" fill-rule="evenodd" clip-rule="evenodd" fill="#AFCA39" d="M90.949,4.514l-0.017,0.018
		L90.91,4.556l-0.013,0.016l-0.016,0.017c-0.113,0.084-0.39,0.433-0.449,0.592c-0.008,0.009-0.022,0.041-0.022,0.05
		c-0.03,0.048,0,0.016-0.045,0.042l0.006,0.016c0.009,0.043,0.015,0.032-0.023,0.032c-0.087,0.151-0.169,0.435-0.184,0.642
		c-0.03,0.363,0.045,0.455,0.127,0.714l0.045,0.06c0.103,0.158,0.255,0.256,0.427,0.322c0.192,0.084,0.47,0.15,0.709,0.116
		c-0.067-0.023-0.181-0.032-0.26-0.058c-0.082-0.017-0.158-0.05-0.24-0.082c-0.151-0.075-0.308-0.191-0.39-0.291
		c-0.276-0.315-0.299-0.807-0.112-1.022c0-0.05-0.015-0.05,0.022-0.033l-0.008-0.042c0.022-0.209,0.256-0.648,0.352-0.772
		l0.173-0.259c0-0.042-0.009-0.033,0.022-0.033c-0.009-0.024-0.017-0.024,0.015-0.016c-0.009-0.033-0.015-0.024,0.016-0.024
		c-0.008-0.034-0.016-0.026,0.015-0.026c0-0.024-0.008-0.016,0.016-0.016V4.472C90.964,4.472,91.037,4.472,90.949,4.514"/>
	<path clip-path="url(#SVGID_6_)" fill-rule="evenodd" clip-rule="evenodd" fill="#E1EBB4" d="M92.646,6.926
		c0.112-0.042,0.494-0.251,0.537-0.342c0.039-0.059,0-0.008,0.03-0.041c0.009-0.009,0.024-0.018,0.024-0.026
		c0.006,0,0.059-0.033,0.059-0.033c-0.12-0.074-0.583,0.191-0.695-0.19l-0.022-0.084c-0.067,0-0.045,0-0.099-0.023
		c-0.022-0.019-0.051-0.035-0.072-0.042c-0.092-0.033-0.092-0.033-0.165-0.065c-0.06-0.035-0.113-0.042-0.173-0.076l-0.163-0.066
		l0.008-0.016c0.006,0,0.006,0,0.006-0.01l0.037-0.051l-0.043,0.019c-0.104,0.058-0.138,0.083-0.197,0.175
		c0.105,0.04,0.212,0.098,0.3,0.189l0.099,0.408c0,0.01,0.008,0.01,0.014,0.01c0.045,0.032,0.054,0.041,0.113,0.057
		c0.112,0.032,0.215,0.099,0.434,0.167c0,0-0.008,0-0.008,0.009C92.669,6.898,92.654,6.916,92.646,6.926"/>
	<path clip-path="url(#SVGID_6_)" fill-rule="evenodd" clip-rule="evenodd" fill="#2B8943" d="M90.371,5.287l-0.006-0.016
		C90.328,5.271,90.341,5.263,90.371,5.287 M90.148,7.424c0.082,0.033,0.029,0.025,0.065-0.009c0.03-0.033,0.024-0.042,0.03-0.094
		c0.023-0.123,0.15-0.313,0.22-0.423c-0.085-0.057-0.129-0.09-0.173-0.224c-0.082-0.259-0.158-0.35-0.127-0.714
		c0.014-0.207,0.096-0.49,0.184-0.642c-0.051-0.099,0.037-0.015-0.013-0.007c0,0-0.015-0.041-0.134,0.167
		c-0.246,0.449-0.451,0.888-0.301,1.47c0.021,0.091,0.061,0.183,0.1,0.258C90.05,7.308,90.109,7.356,90.148,7.424"/>
	<path clip-path="url(#SVGID_6_)" fill-rule="evenodd" clip-rule="evenodd" fill="#E1EBB4" d="M90.91,5.345
		c-0.09,0.042-0.209,0.091-0.283,0.167l-0.045,0.05c-0.008,0-0.008,0.007-0.017,0.007l-0.028,0.044
		c-0.008,0-0.016,0.007-0.016,0.007l-0.038,0.025l0.009,0.042C90.455,5.67,90.47,5.67,90.47,5.72
		c0.052,0.007,0.045,0.017,0.022-0.033c0.099-0.017,1.639-0.025,1.691,0c-0.039-0.017-0.031-0.025-0.031,0.024
		c0.053,0.009,0.045,0.025,0.031-0.024c0.068-0.017,0,0.009,0.068-0.042c0.041-0.041,0.033-0.032,0.09-0.058l0.109-0.124
		c0-0.042-0.008-0.036,0.029-0.027c-0.006-0.032-0.014-0.023,0.018-0.015c0-0.034-0.01-0.025,0.021-0.018
		c-0.007-0.042-0.021-0.033,0.015-0.024c-0.006-0.041-0.015-0.034,0.018-0.025l-1.326,0.008l0.032-0.084
		C91.141,5.379,91.045,5.612,90.91,5.345"/>
	<path clip-path="url(#SVGID_6_)" fill-rule="evenodd" clip-rule="evenodd" fill="#AFCA39" d="M91.174,2.054l0.029,0.015
		l0.014,0.019l0.016,0.026l0.014,0.015c0.01,0.117,0.082,0.209,0.107,0.333l0.007,0.025l0.021,0.099
		c0.018,0.06,0.023,0.135-0.014,0.184c-0.014,0.166-0.193,0.291-0.344,0.356c-0.21,0.084-0.337,0.067-0.555,0.033
		C90.313,3.135,90.209,3.051,90.094,3l-0.066-0.048C89.991,2.911,90,2.935,89.975,2.869c0.142-0.083,0.285-0.019,0.383-0.075
		l0.013-0.083l-0.022-0.066c-0.11-0.009-0.139,0.017-0.231,0.042c-0.037,0.016-0.073,0.024-0.11,0.04
		c-0.031,0.016-0.061,0.016-0.084,0.025c0.018,0.075,0.008,0.06,0.047,0.107c-0.226-0.198-0.144-0.224-0.181-0.148
		c0.046,0.349,0.339,0.73,0.681,0.722c0.209-0.009,0.345,0.02,0.547-0.083c0.195-0.09,0.23-0.123,0.345-0.257
		c0.021-0.019,0.038-0.033,0.052-0.05c0.023-0.049,0.061-0.108,0.068-0.192c0.006-0.074,0.014-0.148,0.006-0.224
		c0-0.057-0.037-0.133-0.029-0.175c-0.037-0.031-0.066-0.107-0.097-0.166c-0.039-0.06-0.084-0.091-0.114-0.158l-0.014-0.015
		l-0.016-0.026l-0.014-0.019l-0.111-0.115L91.174,2.054z"/>
	<path clip-path="url(#SVGID_6_)" fill-rule="evenodd" clip-rule="evenodd" fill="#C1E8FA" d="M91.764,4.522
		c-0.008,0.083,0,0.033-0.022,0.091c0.069,0.025,0.135,0.059,0.21,0.067c0.043,0.107,0.119,0.091,0.262,0.149
		c0.045,0.017,0.022,0.017,0.053,0.025c0.02,0.007,0.02,0.007,0.052,0.017c0.18,0.058,0.097,0.049,0.233,0.107
		c0.119,0.051,0.143,0.041,0.2,0.116l0.189-0.008c0.118,0,0.229-0.034,0.319-0.076c0.053-0.032,0.037-0.016,0.082-0.065
		c0.045-0.042,0.045-0.042,0.075-0.1l-0.104,0.1c-0.069-0.025-0.225-0.067-0.284-0.107c0,0-0.009,0-0.009-0.009
		c-0.035-0.024-0.014-0.017-0.067-0.042l-0.446-0.175c0-0.067,0.036-0.008-0.017-0.042c-0.015-0.007-0.218-0.058-0.322-0.107
		l-0.022-0.009c-0.014-0.008-0.008-0.008-0.036-0.025c-0.052-0.023-0.106-0.033-0.15-0.057l0.052-0.065
		c0-0.009,0.008-0.009,0.008-0.019c-0.11,0.075-0.088,0.084-0.172,0.141c-0.035,0.034-0.008,0-0.029,0.025
		C91.771,4.498,91.787,4.472,91.764,4.522"/>
	<path clip-path="url(#SVGID_6_)" fill-rule="evenodd" clip-rule="evenodd" fill="#62A043" d="M91.092,4.498
		c0.006,0.033,0.013,0.024-0.017,0.016c0.007,0.032,0.017,0.032-0.013,0.026c0.006,0.031,0.013,0.024-0.018,0.024
		c0.008,0.032,0.018,0.023-0.015,0.016c0,0.041,0.007,0.033-0.022,0.033l-0.172,0.259l-0.029,0.091c0.119,0,0.082,0.009,0.156-0.059
		c0.023-0.009,0.112-0.099,0.219-0.141c0.051-0.068,0.133-0.018,0.209-0.018h0.231l0.052-0.074c0.016-0.024,0.021-0.042,0.037-0.066
		c0.016-0.025,0.008-0.018,0.023-0.034c0.016-0.025,0.021-0.031,0.029-0.049c0.023-0.051,0.008-0.024,0.053-0.067
		c0.021-0.025-0.006,0.009,0.029-0.025c0.084-0.057,0.061-0.065,0.172-0.141c0.039-0.058,0.119-0.058,0.18-0.133
		c-0.074,0.008-0.672,0.042-0.688,0.024l0.016-0.041c-0.068,0.017-0.061,0.017-0.127,0.075l-0.195,0.182
		C91.158,4.447,91.158,4.472,91.092,4.498"/>
	<path clip-path="url(#SVGID_6_)" fill-rule="evenodd" clip-rule="evenodd" fill="#FFFFFF" d="M90.77,2.687
		c-0.174,0.099-0.322,0.239-0.121,0.397c-0.111,0.026-0.135,0.016-0.18,0.074c0.217,0.034,0.344,0.05,0.555-0.034
		c0.149-0.064,0.33-0.189,0.345-0.355c-0.06-0.1,0.013-0.108-0.099-0.216C91.12,2.527,90.844,2.603,90.77,2.687"/>
	<path clip-path="url(#SVGID_6_)" fill-rule="evenodd" clip-rule="evenodd" fill="#62A043" d="M90.469,3.433
		c-0.014,0.109-0.021,0.076-0.052,0.142c-0.022,0.05-0.022,0.076-0.038,0.124L90.29,3.684c0.173,0.2,0.862,0.099,1.091-0.226
		c0.076-0.1,0.039-0.049,0.092-0.142c-0.061,0.027-0.074,0.018-0.158-0.065L91.277,3.2c0.059-0.033,0.051-0.033,0.104-0.101
		l0.031-0.057c-0.014,0.017-0.031,0.031-0.051,0.05c-0.115,0.134-0.15,0.167-0.346,0.257C90.813,3.451,90.678,3.424,90.469,3.433"/>
	<path clip-path="url(#SVGID_6_)" fill-rule="evenodd" clip-rule="evenodd" fill="#2B8943" d="M93.852,6.269
		c0,0.024,0.008,0.015-0.016,0.015c0,0.035,0.008,0.027-0.021,0.019c0.008,0.032,0.016,0.023-0.016,0.023
		c0,0.027,0.008,0.019-0.021,0.019c0,0.023,0.008,0.016-0.023,0.016c0.006,0.031,0.006,0.025-0.016,0.017
		c0,0.025,0.008,0.015-0.021,0.015c0,0.036,0.008,0.025-0.021,0.019l-0.024,0.034c0,0.023,0.009,0.017-0.022,0.017
		c0,0.023,0.008,0.017-0.022,0.007c0,0.035,0.007,0.025-0.028,0.035c-0.045,0.074-0.277,0.199-0.359,0.266l-0.037,0.065
		c0.043,0.032,0.052,0.093,0.127,0.192c0.044,0.049,0.021,0.031,0.074,0.059c0.066-0.076,0.15-0.144,0.217-0.219
		C93.686,6.8,93.76,6.707,93.83,6.618c0.082-0.116,0.275-0.475,0.283-0.657l-0.008-0.066C94.045,6.027,93.939,6.201,93.852,6.269"/>
	<path clip-path="url(#SVGID_6_)" fill-rule="evenodd" clip-rule="evenodd" fill="#BDD494" d="M92.184,5.687
		c0.015,0.05,0.021,0.033-0.03,0.024l-0.195,0.148L91.921,5.91c0,0.01,0,0.01-0.007,0.01l-0.007,0.016l0.163,0.066
		c0.06,0.034,0.113,0.04,0.173,0.076c0.073,0.032,0.073,0.032,0.165,0.065c0.021,0.007,0.05,0.022,0.072,0.042
		c0.054,0.022,0.031,0.022,0.098,0.022c-0.007-0.106,0.009-0.172,0.031-0.256l0.015-0.032l0.045-0.061
		c-0.007-0.032-0.022-0.023,0.015-0.016c0.022-0.073,0.03-0.059-0.045-0.09l-0.313-0.135l0.017-0.032
		c-0.057,0.025-0.049,0.017-0.091,0.058C92.184,5.695,92.251,5.67,92.184,5.687"/>
	<path clip-path="url(#SVGID_6_)" fill-rule="evenodd" clip-rule="evenodd" fill="#AFCA39" d="M92.939,5.088
		c-0.054,0.033-0.098,0.025-0.174,0.025c-0.029,0.057-0.066,0.099-0.096,0.164c0.037,0.067,0.141,0.076,0.223,0.118
		c0.037,0.017,0.084,0.04,0.119,0.059c0.07,0.032,0.077,0.017,0.115,0.065c0.23-0.107,0.139-0.084,0.313-0.182l0.062-0.019
		c0-0.042-0.011-0.023,0.028-0.007c-0.039-0.075-0.074-0.109-0.135-0.158c-0.066-0.05-0.066-0.101-0.15-0.108l0.016-0.034
		C93.17,5.054,93.059,5.088,92.939,5.088"/>
	<path clip-path="url(#SVGID_6_)" fill-rule="evenodd" clip-rule="evenodd" fill="#97D9F5" d="M91.674,4.672L91.666,4.73
		c-0.021,0.148,0.045,0.225,0.172,0.281c0.113,0.042,0.271,0.067,0.391,0.067l0.523,0.017c-0.059-0.075-0.082-0.065-0.201-0.116
		c-0.137-0.059-0.054-0.05-0.233-0.107c-0.032-0.01-0.032-0.01-0.052-0.017c-0.031-0.009-0.008-0.009-0.053-0.025
		c-0.144-0.059-0.219-0.042-0.262-0.149c-0.074-0.009-0.141-0.042-0.211-0.067c0.023-0.058,0.016-0.008,0.023-0.091
		c-0.008,0.018-0.014,0.023-0.029,0.049c-0.016,0.017-0.008,0.009-0.023,0.034C91.695,4.63,91.689,4.647,91.674,4.672"/>
	<path clip-path="url(#SVGID_6_)" fill-rule="evenodd" clip-rule="evenodd" fill="#2B8943" d="M93.529,5.313l-0.028,0.007
		l-0.062,0.019l-0.045,0.065c0-0.008-0.008,0.018-0.008,0.023l0.225,0.16c0.03,0.032,0.121,0.272,0.045,0.282
		c0,0.051,0.008,0.025-0.008,0.074c-0.007,0.051,0,0.009-0.016,0.042l-0.104,0.223c-0.023,0.094-0.023,0.034,0.023,0.069
		c0-0.035-0.007-0.025,0.023-0.025c-0.008-0.025-0.008-0.025,0.014-0.018c0-0.033-0.007-0.026,0.021-0.017
		c-0.006-0.032-0.014-0.025,0.016-0.025c0-0.025-0.008-0.025,0.021-0.017c-0.007-0.032-0.016-0.025,0.016-0.016
		c-0.008-0.033-0.008-0.033,0.016-0.025c-0.008-0.033-0.008-0.024,0.016-0.024l0.014-0.024l0.015-0.026l0.015-0.023
		c0.017-0.019,0.03-0.059,0.047-0.084c0.037-0.058,0.021-0.009,0.052-0.083c0.03-0.059,0.052-0.107,0.067-0.183l0.015-0.051
		c0.007-0.116,0.046-0.131-0.007-0.274l-0.038-0.065L93.529,5.313z"/>
	<path clip-path="url(#SVGID_6_)" fill-rule="evenodd" clip-rule="evenodd" fill="#88BE49" d="M91.182,4.764l0.172,0.024
		c0.186,0.091,0.059,0.3-0.018,0.392l-0.021,0.065l0.121,0.009c0.028-0.024,0-0.017,0.045-0.024c0.082-0.026,0.23,0,0.373-0.034
		l0.397-0.074c-0.03-0.017-0.008,0-0.022-0.042c-0.121,0-0.277-0.025-0.391-0.067c-0.127-0.057-0.193-0.133-0.172-0.28l0.007-0.06
		l-0.051,0.074h-0.231C91.314,4.746,91.232,4.695,91.182,4.764"/>
	<path clip-path="url(#SVGID_6_)" fill-rule="evenodd" clip-rule="evenodd" fill="#BFD862" d="M92.551,5.354
		c0.02,0.059,0.027,0.05-0.018,0.025c0.023,0.048,0.032,0.042-0.014,0.024c0.014,0.042,0.023,0.042-0.022,0.018
		c0.022,0.05,0.022,0.042-0.016,0.015c0,0.035,0.007,0.027-0.03,0.027l-0.109,0.124l-0.018,0.032l0.314,0.135
		c0.076,0.031,0.067,0.017,0.045,0.09c-0.036-0.008-0.022-0.017-0.014,0.016L92.625,5.92l-0.016,0.032
		c0.038,0,0.023,0.009,0.016-0.032c0.008,0,0.008-0.01,0.014-0.01l0.009-0.009c0.014-0.023,0.007-0.007,0.022-0.042
		c0.023,0.01,0.014,0.01,0.014-0.016c0.053-0.025,0.045-0.033,0.089-0.082c0.039-0.035,0.063-0.035,0.084-0.075
		c0.045-0.025,0.089-0.06,0.134-0.093c0.068-0.049,0.068-0.049,0.137-0.074c-0.039-0.049-0.046-0.033-0.115-0.065
		c-0.034-0.019-0.082-0.042-0.119-0.059c-0.081-0.042-0.187-0.051-0.223-0.118l-0.037-0.006c0,0,0.006,0-0.008,0.033
		c0,0-0.009,0.015-0.016,0.015C92.565,5.379,92.609,5.345,92.551,5.354"/>
	<path clip-path="url(#SVGID_6_)" fill-rule="evenodd" clip-rule="evenodd" fill="#2B8943" d="M90.291,3.684l0.088,0.015
		c0.017-0.048,0.017-0.074,0.039-0.124c0.028-0.065,0.037-0.032,0.052-0.142c-0.343,0.009-0.636-0.373-0.681-0.722L89.75,2.594
		c0,0.299-0.006,0.449,0.121,0.689C89.955,3.451,90.109,3.624,90.291,3.684"/>
	<path clip-path="url(#SVGID_6_)" fill-rule="evenodd" clip-rule="evenodd" fill="#E1EBB4" d="M90.371,2.711l-0.015,0.083
		c-0.06,0.132-0.104,0.106-0.306,0.125c0,0.007,0.006,0.007,0.006,0.024c0,0.008,0.008,0.008,0.008,0.017
		c0.008,0,0.008,0.007,0.008,0.017c0.008,0,0.008,0.009,0.016,0.009c0,0.009,0.007,0.009,0.007,0.015
		c0.114,0.051,0.218,0.135,0.375,0.158c0.044-0.059,0.067-0.048,0.178-0.073c-0.2-0.159-0.051-0.3,0.121-0.398
		c-0.051-0.067-0.083-0.076-0.142-0.102l0.014,0.034l0.007,0.008L90.371,2.711z"/>
	<path clip-path="url(#SVGID_6_)" fill-rule="evenodd" clip-rule="evenodd" fill="#FFFFFF" d="M90.17,1.887
		c-0.061,0.042-0.09,0.06-0.127,0.125l0.008,0.2c0.104,0.025,0.269-0.084,0.358-0.107c0.181-0.067,0.269-0.102,0.337-0.151
		c-0.076-0.016-0.029-0.016-0.052-0.032l-0.008-0.034L90.5,1.839C90.349,1.82,90.297,1.82,90.17,1.887"/>
	<path clip-path="url(#SVGID_6_)" fill-rule="evenodd" clip-rule="evenodd" fill="#88BE49" d="M92.855,5.687
		c0.037,0.075,0.113,0.075,0.172,0.093l0.211,0.071c0.098,0.044,0.314,0.144,0.395,0.135c0.016-0.033,0.01,0.009,0.016-0.042
		c0.016-0.049,0.008-0.023,0.008-0.074c0-0.066,0-0.066,0.016-0.115c-0.33-0.043-0.158-0.043-0.307-0.084
		c-0.037-0.009-0.27-0.051-0.276-0.091c0-0.011-0.007-0.011-0.015-0.011l0.045-0.031c0-0.009,0.008-0.009,0.008-0.018
		c-0.068,0.025-0.068,0.025-0.137,0.074C92.945,5.627,92.9,5.661,92.855,5.687"/>
	<path clip-path="url(#SVGID_6_)" fill-rule="evenodd" clip-rule="evenodd" fill="#FFFFFF" d="M90.963,4.904
		c-0.053,0.135-0.097,0.242-0.065,0.426c0.065,0.031,0.021,0.057,0.147-0.085c0.097-0.116,0.33-0.273,0.367-0.406l-0.059-0.051
		l-0.172-0.024C91.075,4.806,90.985,4.896,90.963,4.904"/>
	<path clip-path="url(#SVGID_6_)" fill-rule="evenodd" clip-rule="evenodd" fill="#BDD494" d="M91.256,5.277l-0.031,0.084
		l1.326-0.008c-0.031-0.009-0.023-0.016-0.018,0.025c-0.036-0.009-0.021-0.018-0.014,0.024c-0.031-0.008-0.022-0.017-0.022,0.018
		c-0.03-0.009-0.022-0.018-0.016,0.015c-0.038-0.008-0.03-0.015-0.03,0.027c0.037,0,0.03,0.008,0.03-0.027
		c0.038,0.027,0.038,0.035,0.016-0.015c0.046,0.024,0.036,0.024,0.022-0.018c0.046,0.018,0.037,0.024,0.014-0.024
		c0.045,0.024,0.037,0.033,0.018-0.025c0.06-0.009,0.015,0.025,0.06-0.034c0.006,0,0.015-0.015,0.015-0.015
		c0.014-0.033,0.008-0.033,0.008-0.033c-0.174-0.026-0.391-0.018-0.576-0.018c-0.164-0.009-0.481,0.018-0.621,0l-0.121-0.009
		l0.021-0.065c-0.021,0.023,0,0-0.027,0.032c0,0.009-0.018,0.018-0.018,0.025C91.27,5.263,91.27,5.254,91.256,5.277"/>
	<path clip-path="url(#SVGID_6_)" fill-rule="evenodd" clip-rule="evenodd" fill="#A2C97C" d="M91.436,5.254
		c0.141,0.018,0.457-0.009,0.621,0c0.187,0,0.401-0.009,0.575,0.018l0.037,0.006c0.03-0.065,0.067-0.107,0.097-0.164
		c0.076,0,0.121,0.008,0.174-0.025l-0.188,0.008l-0.522-0.017c0.015,0.042-0.008,0.025,0.022,0.042l-0.397,0.074
		c-0.143,0.034-0.291,0.008-0.373,0.034C91.436,5.237,91.464,5.229,91.436,5.254"/>
	<path clip-path="url(#SVGID_6_)" fill-rule="evenodd" clip-rule="evenodd" fill="#2B8943" d="M91.652,4.074
		c0.015,0.042,0.006,0.024-0.029,0.016c-0.008,0.026,0.021,0.018-0.04,0.018c-0.007,0.023,0.016,0.023-0.037,0.015
		c0.007,0.042,0.017,0.025-0.029,0.025l0.009-0.007L91.51,4.182c0.016,0.017,0.614-0.018,0.688-0.025l0.276-0.091l0.054-0.032
		c-0.009,0,0.029,0.015-0.076-0.027c-0.036-0.015-0.066-0.023-0.109-0.033C91.994,3.907,91.771,4.074,91.652,4.074"/>
	<path clip-path="url(#SVGID_6_)" fill-rule="evenodd" clip-rule="evenodd" fill="#88BE49" d="M93.918,5.636
		c0.008,0.075,0.008,0.034-0.015,0.051c-0.014,0.075-0.036,0.124-0.067,0.183c-0.028,0.074-0.015,0.024-0.051,0.083
		c-0.016,0.025-0.031,0.065-0.048,0.084L93.725,6.06l-0.016,0.025L93.694,6.11c-0.022,0-0.022-0.009-0.014,0.024
		c-0.025-0.008-0.025-0.008-0.017,0.025c-0.031-0.01-0.021-0.017-0.016,0.016c-0.029-0.009-0.021-0.009-0.021,0.017
		c-0.028,0-0.022-0.007-0.017,0.025c-0.028-0.009-0.021-0.017-0.021,0.017c-0.022-0.008-0.022-0.008-0.014,0.017
		c-0.031,0-0.022-0.009-0.022,0.026c-0.048-0.035-0.048,0.024-0.025-0.068c-0.059,0.06-0.05,0.06-0.089,0.135l0.066-0.025
		c0.039-0.025,0.022-0.017,0.048-0.041c0.028,0,0.028,0.016,0.022-0.026c0.028,0.009,0.022,0.018,0.014-0.017
		c0.029,0.008,0.029,0.017,0.021-0.017c0.032,0,0.022,0.009,0.017-0.025c0.028,0.009,0.028,0.017,0.021-0.017
		c0.032,0.01,0.023,0.017,0.016-0.016c0.03,0,0.022,0.007,0.017-0.025c0.028,0,0.021,0.009,0.014-0.024
		c0.03,0,0.022,0.008,0.015-0.025l0.016-0.025c0.021,0,0.021,0.009,0.013-0.023l0.048,0.049c0.045,0.059,0.06,0.101,0.066,0.184
		c-0.03-0.009-0.021-0.018-0.016,0.015c-0.028-0.006-0.022-0.006-0.022,0.019c-0.022,0-0.015-0.009-0.015,0.023l-0.022,0.019
		c-0.022-0.01-0.022-0.019-0.022,0.016c-0.022-0.007-0.022-0.016-0.017,0.017c-0.028-0.009-0.028-0.017-0.021,0.015
		c-0.03-0.006-0.022-0.015-0.022,0.019l-0.022,0.034c-0.029-0.009-0.023-0.017-0.023,0.017c-0.029-0.009-0.021-0.017-0.021,0.007
		c-0.037-0.007-0.028-0.016-0.028,0.035c0.034-0.01,0.028,0,0.028-0.035c0.028,0.01,0.021,0.017,0.021-0.007
		c0.032,0,0.023,0.007,0.023-0.017l0.022-0.034c0.03,0.007,0.022,0.018,0.022-0.019c0.029,0,0.021,0.011,0.021-0.015
		c0.023,0.009,0.023,0.015,0.017-0.017c0.031,0,0.022,0.008,0.022-0.016c0.031,0,0.022,0.009,0.022-0.019
		c0.031,0,0.022,0.009,0.015-0.023c0.031,0.009,0.022,0.017,0.022-0.019c0.022,0,0.016,0.01,0.016-0.015
		c0.088-0.067,0.193-0.241,0.253-0.375c-0.006-0.091,0.008-0.016-0.037-0.108l-0.022-0.031c0-0.011,0-0.018-0.006-0.018
		c-0.037-0.059-0.037-0.041-0.074-0.117L93.918,5.636z M93.418,6.376c0,0,0.015-0.017,0.015-0.009c0,0,0.014-0.008-0.015-0.042
		V6.376z"/>
	<path clip-path="url(#SVGID_6_)" fill-rule="evenodd" clip-rule="evenodd" fill="#88BE49" d="M90.484,5.645l0.037-0.025
		c0,0,0.008-0.007,0.016-0.007l0.029-0.044c0.008,0,0.008-0.007,0.016-0.007l0.045-0.05c0.074-0.076,0.193-0.125,0.284-0.167
		L90.898,5.33c-0.031-0.184,0.013-0.291,0.065-0.426c-0.075,0.067-0.038,0.059-0.158,0.059l0.03-0.091
		C90.74,4.996,90.506,5.436,90.484,5.645"/>
	<path clip-path="url(#SVGID_6_)" fill-rule="evenodd" clip-rule="evenodd" fill="#AFCA39" d="M90.027,2.012
		c-0.021,0-0.021,0-0.014,0.025h-0.059l-0.07,0.067l-0.006,0.009c-0.023,0.065-0.119,0.224-0.076,0.29l0.031-0.01l0.193,0.033
		c0.066,0.034,0.09,0.067,0.174,0.101c0.02-0.05,0.008-0.033,0.043-0.059l0.136-0.075c-0.044-0.023-0.052-0.007-0.104-0.032
		c-0.031-0.009-0.031-0.017-0.055-0.033c0,0-0.012-0.009-0.02-0.009c-0.031-0.024-0.016-0.017-0.031-0.033
		c-0.135-0.016-0.156-0.1-0.156-0.249C90.043,2.045,90.035,2.054,90.027,2.012h0.016c0.037-0.065,0.066-0.083,0.127-0.125
		L90.027,2.012z"/>
	<path clip-path="url(#SVGID_6_)" fill-rule="evenodd" clip-rule="evenodd" fill="#C1E8FA" d="M90.043,2.012h-0.016
		c0.008,0.042,0.016,0.033-0.013,0.025c0,0.149,0.021,0.233,0.155,0.249l0.045,0.009h0.181c0.022-0.032-0.024-0.018,0.104-0.068
		c0.043-0.015,0.065-0.031,0.112-0.048c0.066-0.025,0.179-0.042,0.216-0.102c-0.009-0.057,0-0.057-0.037-0.099
		c-0.021-0.025,0,0-0.028-0.025c-0.023-0.024-0.017-0.007-0.038-0.032h-0.03c0.022,0.017-0.024,0.017,0.052,0.032
		c-0.067,0.05-0.156,0.084-0.336,0.151c-0.091,0.023-0.255,0.133-0.359,0.107L90.043,2.012z"/>
	<path clip-path="url(#SVGID_6_)" fill-rule="evenodd" clip-rule="evenodd" fill="#62A043" d="M93.127,5.52L93.127,5.52
		c0,0.009-0.009,0.009-0.009,0.018l-0.045,0.031c0.009,0,0.015,0,0.015,0.011c0.008,0.04,0.24,0.082,0.276,0.091
		c0.149,0.041-0.022,0.041,0.308,0.084c-0.017,0.049-0.017,0.049-0.017,0.115c0.076-0.01-0.013-0.25-0.045-0.282l-0.224-0.16
		c0-0.006,0.009-0.031,0.009-0.023l0.044-0.065C93.267,5.436,93.357,5.412,93.127,5.52"/>
	<path clip-path="url(#SVGID_6_)" fill-rule="evenodd" clip-rule="evenodd" fill="#E1EBB4" d="M90.424,2.421l0.01,0.006
		c0.021,0.025,0.006,0.018,0.029,0.034c0.006,0,0.028,0.025,0.037,0.033c0.029,0.025,0.029,0.025,0.059,0.043
		c-0.008,0.033-0.008,0.024,0.022,0.016c-0.008,0.032-0.008,0.024,0.023,0.018c-0.009,0.032-0.009,0.023,0.028,0.015
		c0-0.04,0.008-0.032-0.028-0.015c0.009-0.033,0.009-0.025-0.023-0.018c0-0.033,0.009-0.025-0.022-0.016
		c0.068-0.051,0.055-0.026,0.15-0.01c0.172,0.025,0.465-0.033,0.561,0.025c0.066,0,0.053,0.009,0.111,0.032l-0.02-0.099
		l-0.008-0.025c-0.008-0.009-0.018-0.009-0.018-0.009s-0.008-0.008-0.014-0.008c-0.066-0.041-0.037-0.041-0.141-0.074h-0.029
		l-0.023,0.04c-0.054-0.007-0.066-0.017-0.099-0.032c0.032,0.066,0.015,0.009,0,0.043L90.543,2.41
		C90.469,2.41,90.455,2.394,90.424,2.421"/>
	<path clip-path="url(#SVGID_6_)" fill-rule="evenodd" clip-rule="evenodd" fill="#C1E8FA" d="M90.898,5.33l0.013,0.015
		c0.134,0.268,0.229,0.034,0.345-0.067c0.014-0.023,0.014-0.015,0.036-0.04c0-0.008,0.017-0.017,0.017-0.025
		c0.027-0.032,0.006-0.009,0.027-0.032c0.077-0.092,0.204-0.301,0.018-0.392l0.06,0.051c-0.037,0.133-0.272,0.29-0.368,0.406
		C90.918,5.387,90.964,5.361,90.898,5.33"/>
	<path clip-path="url(#SVGID_6_)" fill-rule="evenodd" clip-rule="evenodd" fill="#BFD862" d="M92.602,6.293l0.008,0.009
		c0.008,0.032,0,0.009,0.015,0.023c0.06,0.06,0.196,0.051,0.315,0.076c0.119,0.015,0.381,0.025,0.41,0.05
		c-0.021-0.008-0.015-0.008-0.015,0.016c-0.03-0.007-0.022-0.016-0.022,0.017l-0.021,0.019l-0.025,0.023l0.025-0.023
		c0.029,0,0.021,0.007,0.021-0.019c0.029,0.009,0.022,0.009,0.022-0.017c0.03,0.01,0.022,0.017,0.015-0.016
		c0.061-0.042,0.031-0.024,0.067-0.075V6.325c-0.132-0.042-0.762-0.065-0.839-0.116L92.602,6.293z"/>
	<path clip-path="url(#SVGID_6_)" fill-rule="evenodd" clip-rule="evenodd" fill="#62A043" d="M90.5,1.839l0.187,0.048
		c0.067,0.018,0.03,0,0.038,0.034c0.066,0.008,0.104,0.032,0.143,0.076c0.036,0.023,0.03,0.023,0.051,0.057
		c0.054,0.06,0,0.042,0.076,0.051l0.116,0.009h0.071l-0.008-0.06l-0.082-0.101c-0.076-0.04-0.194-0.165-0.315-0.174
		C90.687,1.77,90.543,1.746,90.5,1.839"/>
	<path clip-path="url(#SVGID_6_)" fill-rule="evenodd" clip-rule="evenodd" fill="#BDD494" d="M90.395,2.295h-0.181l0.062,0.024
		c0.109,0.025,0.045,0.025,0.148,0.102c0.032-0.027,0.045-0.011,0.119-0.011l0.488,0.011c0.014-0.034,0.031,0.023,0-0.043
		l-0.068-0.107L91,2.353l-0.314-0.058l0.076-0.068L90.395,2.295z"/>
	<path clip-path="url(#SVGID_6_)" fill-rule="evenodd" clip-rule="evenodd" fill="#88BE49" d="M89.885,2.104l-0.006,0.009
		L89.885,2.104l0.069-0.067h0.06c-0.008-0.025-0.008-0.025,0.015-0.025l0.142-0.125c0.127-0.066,0.178-0.066,0.329-0.048
		c0.044-0.093,0.187-0.069,0.278-0.06c-0.114-0.126-0.393-0.033-0.502-0.093l0.021,0.051C90.117,1.77,89.954,1.953,89.885,2.104"/>
	<path clip-path="url(#SVGID_6_)" fill-rule="evenodd" clip-rule="evenodd" fill="#2B8943" d="M91.48,2.851
		c-0.008,0.084-0.045,0.143-0.067,0.192L91.381,3.1c-0.052,0.067-0.045,0.067-0.104,0.101l0.037,0.051
		c0.084,0.083,0.099,0.093,0.158,0.065c0.045-0.198,0.135-0.365,0.036-0.615C91.509,2.761,91.502,2.802,91.48,2.851"/>
	<path clip-path="url(#SVGID_6_)" fill-rule="evenodd" clip-rule="evenodd" fill="#BDD494" d="M93.184,6.584
		c0.055-0.033,0.047-0.025,0.082-0.059l0.025-0.023l0.021-0.019c0-0.032-0.008-0.023,0.022-0.017c0-0.023-0.007-0.023,0.015-0.016
		c-0.029-0.024-0.291-0.035-0.41-0.05c-0.119-0.025-0.256-0.017-0.315-0.076c-0.015-0.015-0.007,0.009-0.015-0.023l-0.008-0.009
		c0.112,0.382,0.576,0.116,0.695,0.19c0,0-0.053,0.033-0.059,0.033c0,0.009-0.016,0.018-0.024,0.026
		C93.184,6.576,93.223,6.525,93.184,6.584"/>
	<path clip-path="url(#SVGID_6_)" fill-rule="evenodd" clip-rule="evenodd" fill="#A2C97C" d="M90.695,1.921h0.028
		c0.022,0.025,0.017,0.008,0.038,0.032c0.03,0.025,0.007,0,0.03,0.025c0.036,0.042,0.028,0.042,0.036,0.099
		c0.053,0.076-0.008,0.126-0.066,0.149l-0.076,0.068l0.315,0.058l-0.037-0.082c-0.031-0.075-0.045-0.075,0.015-0.134l0.016-0.032
		c-0.075-0.009-0.023,0.009-0.075-0.051c-0.021-0.033-0.015-0.033-0.052-0.057c-0.039-0.044-0.075-0.068-0.144-0.076
		c-0.007-0.034,0.031-0.017-0.038-0.034L90.695,1.921z"/>
	<path clip-path="url(#SVGID_6_)" fill-rule="evenodd" clip-rule="evenodd" fill="#C1E8FA" d="M90.582,2.553
		c0.03-0.008,0.03-0.016,0.022,0.018c0.037-0.018,0.028-0.025,0.028,0.015h-0.006c0.06,0.025,0.09,0.034,0.142,0.102
		c0.076-0.084,0.351-0.159,0.5-0.134c0.112,0.107,0.04,0.116,0.099,0.216c0.037-0.049,0.03-0.124,0.014-0.184
		c-0.06-0.023-0.045-0.032-0.112-0.032c-0.095-0.059-0.388,0-0.56-0.025c-0.097-0.017-0.082-0.041-0.149,0.01
		C90.59,2.527,90.582,2.52,90.582,2.553"/>
	<path clip-path="url(#SVGID_6_)" fill-rule="evenodd" clip-rule="evenodd" fill="#62A043" d="M89.908,2.743L89.893,2.66
		c0.063-0.016,0.113-0.024,0.172-0.05c0.113-0.04,0.137-0.025,0.149-0.073l-0.013-0.01c-0.084-0.033-0.107-0.066-0.174-0.1
		c-0.035,0.083-0.18,0.143-0.156,0.265C89.893,2.794,89.879,2.727,89.908,2.743 M89.773,2.527L89.75,2.594l0.039,0.117
		c0.037-0.075-0.045-0.051,0.18,0.148c-0.04-0.048-0.029-0.032-0.047-0.107L89.9,2.769c-0.029-0.017-0.008,0.017-0.045-0.034
		c-0.008-0.008-0.021-0.033-0.029-0.057C89.789,2.61,89.781,2.603,89.773,2.527"/>
	<path clip-path="url(#SVGID_6_)" fill-rule="evenodd" clip-rule="evenodd" fill="#88BE49" d="M90.949,4.514l-0.017,0.018
		L90.91,4.556l-0.013,0.016l-0.016,0.017l0.016-0.017l0.013-0.016l0.022-0.024L90.949,4.514c0.088-0.042,0.015-0.042,0.143-0.042
		v0.026c-0.023,0-0.016-0.009-0.016,0.016c-0.03,0-0.022-0.008-0.015,0.026c-0.03,0-0.024-0.009-0.016,0.024
		c-0.031-0.009-0.023-0.009-0.015,0.016c-0.031,0-0.022-0.009-0.022,0.033c0.028,0,0.022,0.008,0.022-0.033
		c0.03,0.008,0.022,0.017,0.015-0.016c0.03,0,0.022,0.007,0.016-0.024c0.03,0.006,0.021,0.006,0.015-0.026
		c0.027,0.009,0.021,0.018,0.016-0.016c0.066-0.026,0.066-0.051,0.111-0.102l0.194-0.182c0.067-0.059,0.06-0.059,0.128-0.074
		l-0.009,0.007c0-0.04-0.007-0.032,0.029-0.025c0.016-0.023-0.021-0.023,0.036-0.015c0.017-0.025-0.021-0.033,0.041-0.018
		c0-0.042-0.008-0.024,0.029-0.016c-0.037-0.026,0.006-0.026-0.082-0.026l0.021-0.033C91.337,4.191,91.158,4.313,90.949,4.514"/>
	<path clip-path="url(#SVGID_6_)" fill-rule="evenodd" clip-rule="evenodd" fill="#BFD862" d="M90.201,2.527l0.014,0.01
		c0.023,0.016,0.045,0.033,0.068,0.057c0.008,0,0.029,0.025,0.029,0.025c0.045,0.031-0.015-0.009,0.035,0.025l0.018-0.051
		l0.156-0.049c-0.029-0.042-0.037-0.025-0.089-0.117l-0.008-0.007c-0.104-0.076-0.04-0.076-0.149-0.102l-0.061-0.024L90.17,2.286
		c0.016,0.017,0,0.009,0.031,0.033c0.008,0,0.02,0.009,0.02,0.009c0.023,0.017,0.023,0.024,0.055,0.033
		c0.053,0.025,0.061,0.009,0.104,0.032l-0.136,0.075C90.209,2.494,90.221,2.478,90.201,2.527"/>
	<path clip-path="url(#SVGID_6_)" fill-rule="evenodd" clip-rule="evenodd" fill="#2B8943" d="M89.803,2.403l-0.028,0.124
		c0.006,0.075,0.014,0.083,0.052,0.15c0.007,0.023,0.021,0.049,0.029,0.057c0.037,0.051,0.015,0.018,0.046,0.034l0.007-0.025
		c-0.029-0.017-0.016,0.051-0.038-0.051c-0.022-0.122,0.122-0.182,0.158-0.266l-0.195-0.033L89.803,2.403z"/>
	<path clip-path="url(#SVGID_6_)" fill-rule="evenodd" clip-rule="evenodd" fill="#8CA43C" d="M89.908,2.743L89.9,2.769l0.021-0.017
		c0.023-0.009,0.053-0.009,0.085-0.025c0.036-0.016,0.073-0.025,0.11-0.04c0.092-0.026,0.121-0.051,0.23-0.042
		c-0.05-0.034,0.01,0.006-0.035-0.025c0,0-0.021-0.025-0.029-0.025c-0.023-0.023-0.045-0.041-0.068-0.057
		c-0.014,0.048-0.037,0.033-0.15,0.073c-0.058,0.025-0.109,0.034-0.172,0.05L89.908,2.743z"/>
	<path clip-path="url(#SVGID_6_)" fill-rule="evenodd" clip-rule="evenodd" fill="#88BE49" d="M91.111,2.113
		c0,0.008,0,0.008,0.008,0.015c0.07,0.093,0.076,0.093,0.062,0.225V2.37c0.104,0.033,0.075,0.033,0.142,0.074
		c0.006,0,0.015,0.008,0.015,0.008s0.008,0,0.017,0.009l0.008,0.025l-0.008-0.025c-0.025-0.124-0.098-0.216-0.107-0.333
		l-0.014-0.015l-0.016-0.026l-0.014-0.019l-0.03-0.015l0.008,0.06H91.111z"/>
	<path clip-path="url(#SVGID_6_)" fill-rule="evenodd" clip-rule="evenodd" fill="#FFFFFF" d="M90.979,2.137
		c-0.022,0.066,0.022,0.084,0.06,0.126c0.045,0.048,0.065,0.082,0.114,0.107l0.029-0.018c0.014-0.132,0.008-0.132-0.062-0.225
		c-0.009-0.007-0.009-0.007-0.009-0.015l-0.117-0.009L90.979,2.137z"/>
	<path clip-path="url(#SVGID_6_)" fill-rule="evenodd" clip-rule="evenodd" fill="#97D9F5" d="M90.395,2.295l0.367-0.068
		c0.059-0.023,0.119-0.073,0.066-0.149c-0.037,0.06-0.15,0.076-0.215,0.102c-0.047,0.017-0.07,0.033-0.114,0.048
		C90.371,2.277,90.417,2.263,90.395,2.295"/>
	<path clip-path="url(#SVGID_6_)" fill-rule="evenodd" clip-rule="evenodd" fill="#BDD494" d="M90.348,2.645L90.348,2.645
		l0.023,0.066l0.277-0.084l-0.008-0.008l-0.015-0.033h0.007c-0.037,0.008-0.037,0.017-0.029-0.016
		c-0.029,0.007-0.029,0.016-0.022-0.018c-0.03,0.009-0.03,0.018-0.022-0.016c-0.029-0.018-0.029-0.018-0.06-0.043
		c-0.007-0.008-0.03-0.033-0.036-0.033c-0.023-0.017-0.008-0.009-0.029-0.034c0.051,0.093,0.059,0.076,0.088,0.118l-0.156,0.049
		L90.348,2.645z"/>
	<path clip-path="url(#SVGID_6_)" fill-rule="evenodd" clip-rule="evenodd" fill="#BFD862" d="M90.094,3
		c0-0.006-0.006-0.006-0.006-0.015c-0.009,0-0.009-0.009-0.016-0.009c0-0.01,0-0.017-0.007-0.017c0-0.009-0.009-0.009-0.009-0.017
		c0-0.018-0.006-0.018-0.006-0.024c0.201-0.018,0.246,0.007,0.307-0.125c-0.098,0.057-0.24-0.009-0.383,0.075
		c0.024,0.065,0.018,0.041,0.054,0.082L90.094,3z"/>
	<path clip-path="url(#SVGID_6_)" fill-rule="evenodd" clip-rule="evenodd" fill="#C1E8FA" d="M90.963,2.271l0.067,0.107
		c0.032,0.016,0.045,0.025,0.099,0.032l0.022-0.04h0.03V2.353l-0.03,0.018c-0.047-0.025-0.069-0.06-0.114-0.107
		C91,2.221,90.955,2.203,90.979,2.137C90.918,2.195,90.934,2.195,90.963,2.271"/>
	<path clip-path="url(#SVGID_6_)" fill="#FFFFFF" d="M86.365,14.219h-0.263v1.835h-0.774v-4.444
		c0.158-0.012,0.334-0.024,0.531-0.033s0.387-0.015,0.567-0.015c0.459,0,0.808,0.099,1.048,0.296
		c0.238,0.195,0.359,0.504,0.359,0.922c0,0.187-0.021,0.35-0.063,0.486c-0.039,0.141-0.093,0.26-0.158,0.364
		c-0.067,0.104-0.144,0.189-0.23,0.26c-0.09,0.072-0.18,0.132-0.275,0.18c0.114,0.228,0.221,0.444,0.324,0.646
		c0.104,0.204,0.204,0.38,0.309,0.532c0.103,0.15,0.209,0.271,0.313,0.358c0.106,0.09,0.22,0.134,0.341,0.134h0.026v0.285
		c-0.062,0.022-0.132,0.041-0.212,0.056c-0.078,0.015-0.168,0.021-0.268,0.021c-0.142,0-0.265-0.015-0.371-0.043
		s-0.207-0.09-0.31-0.188c-0.097-0.097-0.202-0.237-0.31-0.425c-0.106-0.188-0.233-0.439-0.373-0.759L86.365,14.219z M86.242,13.779
		c0.107,0,0.211-0.015,0.31-0.046c0.103-0.031,0.181-0.067,0.239-0.115c0.029-0.021,0.056-0.051,0.086-0.087
		c0.029-0.035,0.056-0.08,0.078-0.139c0.024-0.058,0.043-0.134,0.058-0.223s0.022-0.201,0.022-0.337
		c0-0.152-0.019-0.279-0.049-0.382c-0.029-0.104-0.076-0.187-0.136-0.251c-0.06-0.062-0.135-0.106-0.226-0.134
		c-0.09-0.027-0.193-0.039-0.309-0.039h-0.107c-0.038,0.003-0.073,0.006-0.106,0.014v1.738H86.242z"/>
	<path clip-path="url(#SVGID_6_)" fill="#FFFFFF" d="M89.853,13.017c0.128,0,0.252,0.02,0.373,0.06
		c0.119,0.041,0.229,0.109,0.333,0.202c0.1,0.097,0.188,0.224,0.262,0.382c0.074,0.159,0.129,0.358,0.168,0.597v0.039
		c-0.023,0.036-0.056,0.067-0.094,0.096c-0.041,0.029-0.091,0.055-0.154,0.074c-0.063,0.022-0.144,0.042-0.233,0.06
		c-0.095,0.019-0.205,0.031-0.336,0.042l-0.843,0.07v0.127c0,0.233,0.055,0.424,0.164,0.574c0.109,0.151,0.276,0.229,0.496,0.229
		c0.09,0,0.185-0.012,0.282-0.032c0.099-0.021,0.193-0.045,0.281-0.075c0.089-0.03,0.168-0.06,0.243-0.09
		c0.074-0.029,0.132-0.057,0.167-0.079l0.065,0.217c-0.08,0.068-0.174,0.138-0.272,0.209c-0.103,0.074-0.212,0.141-0.328,0.198
		c-0.114,0.057-0.237,0.104-0.367,0.142c-0.128,0.036-0.26,0.056-0.396,0.056c-0.161,0-0.311-0.026-0.448-0.079
		c-0.138-0.054-0.255-0.139-0.356-0.254c-0.099-0.116-0.179-0.269-0.234-0.453c-0.061-0.188-0.088-0.415-0.088-0.681
		c0-0.302,0.031-0.556,0.099-0.763c0.067-0.208,0.161-0.375,0.278-0.502c0.119-0.127,0.26-0.22,0.42-0.277
		C89.494,13.045,89.668,13.017,89.853,13.017 M89.492,13.519c-0.021,0.018-0.039,0.055-0.058,0.108s-0.037,0.116-0.05,0.188
		c-0.016,0.073-0.025,0.149-0.035,0.227c-0.008,0.079-0.013,0.155-0.013,0.229l0.839-0.044c-0.01-0.087-0.021-0.177-0.04-0.269
		c-0.017-0.095-0.044-0.18-0.076-0.257c-0.034-0.078-0.073-0.142-0.124-0.194c-0.048-0.051-0.107-0.078-0.176-0.078
		c-0.051,0-0.096,0.008-0.141,0.021C89.574,13.463,89.531,13.485,89.492,13.519"/>
	<path clip-path="url(#SVGID_6_)" fill="#FFFFFF" d="M93.234,13.074c0-0.046-0.001-0.089-0.004-0.131
		c-0.004-0.035-0.004-0.071-0.004-0.107V12.74v-1.563l0.756-0.175v5.052h-0.52l-0.209-0.28h-0.015
		c-0.104,0.084-0.218,0.161-0.339,0.232c-0.117,0.069-0.257,0.106-0.415,0.106c-0.137,0-0.272-0.026-0.399-0.08
		c-0.131-0.053-0.244-0.138-0.342-0.253c-0.099-0.116-0.179-0.269-0.238-0.454c-0.06-0.188-0.088-0.414-0.088-0.68
		c0-0.257,0.027-0.484,0.086-0.684c0.06-0.203,0.144-0.374,0.254-0.512c0.109-0.138,0.244-0.244,0.4-0.318
		c0.157-0.075,0.336-0.11,0.53-0.11c0.082,0,0.17,0.004,0.265,0.014C93.049,13.045,93.142,13.057,93.234,13.074 M92.209,14.596
		c0,0.342,0.051,0.591,0.151,0.751c0.103,0.158,0.238,0.239,0.405,0.239c0.085,0,0.165-0.014,0.247-0.039
		c0.079-0.025,0.147-0.057,0.209-0.092v-1.941c-0.117-0.029-0.231-0.043-0.349-0.043c-0.106,0-0.203,0.009-0.283,0.028
		s-0.144,0.051-0.189,0.097c-0.044,0.048-0.087,0.157-0.129,0.324S92.209,14.313,92.209,14.596"/>
	<path clip-path="url(#SVGID_6_)" fill="#FFFFFF" d="M95.488,13.078v1.994c0,0.179,0.025,0.311,0.076,0.396s0.141,0.128,0.264,0.128
		c0.041,0,0.093-0.008,0.143-0.022c0.053-0.015,0.107-0.034,0.163-0.058c0.056-0.022,0.108-0.053,0.161-0.082
		c0.05-0.03,0.098-0.063,0.143-0.099v-2.257h0.76v2.976h-0.682l-0.07-0.348h-0.008c-0.054,0.039-0.115,0.082-0.189,0.129
		c-0.073,0.046-0.153,0.091-0.239,0.136c-0.087,0.042-0.175,0.079-0.269,0.107c-0.099,0.029-0.189,0.045-0.276,0.045
		c-0.103,0-0.196-0.02-0.286-0.057c-0.087-0.037-0.165-0.093-0.232-0.164c-0.066-0.073-0.119-0.165-0.158-0.275
		c-0.038-0.111-0.059-0.24-0.059-0.383v-2.166H95.488z"/>
	<path clip-path="url(#SVGID_6_)" fill="#FFFFFF" d="M99.799,13.717c-0.097-0.056-0.209-0.107-0.343-0.16
		c-0.132-0.052-0.272-0.077-0.428-0.077c-0.063,0-0.127,0.007-0.192,0.022c-0.063,0.015-0.117,0.042-0.164,0.08
		c-0.052,0.042-0.096,0.141-0.127,0.297c-0.031,0.157-0.049,0.402-0.049,0.736c0,0.184,0.014,0.34,0.037,0.469
		c0.023,0.128,0.057,0.229,0.104,0.309s0.104,0.136,0.175,0.172c0.069,0.033,0.149,0.051,0.237,0.051
		c0.144,0,0.291-0.018,0.444-0.051c0.156-0.033,0.294-0.08,0.416-0.139l0.071,0.217c-0.148,0.136-0.317,0.246-0.506,0.336
		c-0.19,0.089-0.398,0.134-0.625,0.134c-0.157,0-0.309-0.026-0.45-0.079c-0.14-0.054-0.261-0.139-0.363-0.254
		c-0.099-0.116-0.18-0.269-0.241-0.453c-0.059-0.188-0.089-0.415-0.089-0.681c0-0.257,0.031-0.484,0.095-0.684
		c0.061-0.203,0.151-0.374,0.27-0.514c0.121-0.141,0.268-0.248,0.445-0.321c0.177-0.073,0.381-0.11,0.609-0.11
		c0.139,0,0.278,0.011,0.42,0.034c0.139,0.021,0.267,0.045,0.383,0.075L99.799,13.717z"/>
	<path clip-path="url(#SVGID_6_)" fill="#FFFFFF" d="M101.649,13.017c0.127,0,0.251,0.02,0.372,0.06
		c0.119,0.041,0.232,0.109,0.331,0.202c0.103,0.097,0.192,0.224,0.265,0.382c0.074,0.159,0.131,0.358,0.168,0.597v0.039
		c-0.023,0.036-0.055,0.067-0.094,0.096c-0.04,0.029-0.091,0.055-0.154,0.074c-0.063,0.022-0.143,0.042-0.234,0.06
		c-0.094,0.019-0.206,0.031-0.336,0.042l-0.844,0.07v0.127c0,0.233,0.056,0.424,0.166,0.574c0.11,0.151,0.274,0.229,0.494,0.229
		c0.092,0,0.186-0.012,0.284-0.032c0.099-0.021,0.193-0.045,0.282-0.075c0.085-0.03,0.168-0.06,0.241-0.09
		c0.075-0.029,0.13-0.057,0.169-0.079l0.064,0.217c-0.082,0.068-0.175,0.138-0.273,0.209c-0.102,0.074-0.211,0.141-0.328,0.198
		c-0.114,0.057-0.237,0.104-0.365,0.142c-0.13,0.036-0.262,0.056-0.4,0.056c-0.157,0-0.306-0.026-0.443-0.079
		c-0.139-0.054-0.256-0.139-0.355-0.254c-0.1-0.116-0.18-0.269-0.238-0.453c-0.059-0.188-0.088-0.415-0.088-0.681
		c0-0.302,0.035-0.556,0.102-0.763c0.066-0.208,0.159-0.375,0.277-0.502c0.117-0.127,0.259-0.22,0.418-0.277
		C101.293,13.045,101.466,13.017,101.649,13.017 M101.289,13.519c-0.021,0.018-0.041,0.055-0.059,0.108
		c-0.02,0.054-0.037,0.116-0.049,0.188c-0.016,0.073-0.027,0.149-0.035,0.227c-0.009,0.079-0.014,0.155-0.014,0.229l0.84-0.044
		c-0.01-0.087-0.021-0.177-0.041-0.269c-0.018-0.095-0.041-0.18-0.074-0.257c-0.033-0.078-0.076-0.142-0.126-0.194
		c-0.048-0.051-0.106-0.078-0.176-0.078c-0.05,0-0.099,0.008-0.14,0.021C101.371,13.463,101.33,13.485,101.289,13.519"/>
	<path clip-path="url(#SVGID_6_)" fill="#FFFFFF" d="M92.119,23.938l-4.274-4.961H87.83c0.01,0.413,0.018,0.794,0.026,1.141
		c0.007,0.149,0.011,0.298,0.013,0.446c0,0.147,0.004,0.285,0.008,0.41c0,0.126,0.002,0.234,0.002,0.334v0.206V23.9H87.16v-7.119
		h0.541l4.278,4.941c-0.005-0.379-0.008-0.734-0.013-1.068c0-0.144,0-0.287-0.004-0.433c-0.002-0.146-0.004-0.284-0.008-0.418
		c-0.002-0.133-0.004-0.254-0.004-0.364v-0.265v-2.339h0.719v7.102H92.119z"/>
	<path clip-path="url(#SVGID_6_)" fill="#FFFFFF" d="M97.475,23.203c0.102,0,0.24-0.029,0.42-0.086v0.322
		c-0.063,0.068-0.141,0.131-0.229,0.197c-0.086,0.063-0.178,0.119-0.279,0.167c-0.098,0.049-0.201,0.088-0.306,0.116
		c-0.106,0.028-0.211,0.042-0.312,0.042c-0.108,0-0.205-0.018-0.281-0.054c-0.079-0.036-0.149-0.081-0.205-0.135
		c-0.059-0.054-0.106-0.116-0.145-0.188c-0.039-0.072-0.074-0.141-0.1-0.208c-0.102,0.076-0.204,0.154-0.303,0.226
		c-0.098,0.074-0.201,0.141-0.31,0.197c-0.106,0.057-0.221,0.102-0.342,0.137c-0.12,0.036-0.254,0.055-0.399,0.055
		c-0.332,0-0.596-0.114-0.785-0.346c-0.191-0.231-0.287-0.577-0.287-1.043c0-0.245,0.029-0.46,0.088-0.646
		c0.056-0.182,0.146-0.335,0.273-0.456c0.127-0.119,0.291-0.21,0.488-0.274c0.201-0.064,0.446-0.103,0.737-0.11l0.727-0.024v-0.687
		c0-0.185-0.044-0.323-0.134-0.408c-0.09-0.089-0.245-0.132-0.46-0.132c-0.151,0-0.327,0.02-0.528,0.06
		c-0.201,0.042-0.41,0.11-0.631,0.209l-0.166-0.489c0.146-0.072,0.301-0.141,0.458-0.209c0.16-0.069,0.322-0.129,0.484-0.183
		c0.163-0.054,0.329-0.097,0.499-0.13c0.167-0.034,0.333-0.049,0.5-0.049c0.189,0,0.357,0.02,0.506,0.058s0.273,0.104,0.37,0.196
		c0.101,0.093,0.177,0.215,0.229,0.367c0.055,0.153,0.082,0.343,0.082,0.567v2.179C97.137,22.95,97.248,23.203,97.475,23.203
		 M95.977,22.979c-0.008-0.021-0.011-0.071-0.015-0.156c-0.006-0.085-0.009-0.192-0.013-0.323c-0.008-0.129-0.01-0.278-0.012-0.444
		c-0.002-0.165-0.004-0.342-0.004-0.525c-0.295,0-0.519,0.019-0.666,0.057c-0.151,0.037-0.244,0.085-0.279,0.142
		c-0.02,0.021-0.033,0.061-0.045,0.117c-0.012,0.055-0.022,0.117-0.028,0.188c-0.006,0.067-0.011,0.141-0.013,0.214
		s-0.004,0.142-0.004,0.203c0,0.215,0.025,0.39,0.078,0.522s0.141,0.199,0.264,0.199c0.131,0,0.257-0.02,0.378-0.055
		C95.736,23.083,95.857,23.036,95.977,22.979"/>
	<path clip-path="url(#SVGID_6_)" fill="#FFFFFF" d="M98.691,19.827l-0.457-0.17v-0.283l1.312-1.028h0.333l0.014,0.829h1.293
		l-0.058,0.521c-0.095,0.021-0.215,0.038-0.356,0.054c-0.138,0.017-0.273,0.029-0.401,0.039c-0.154,0.014-0.312,0.029-0.47,0.046
		v2.653c0,0.169,0.027,0.313,0.082,0.426c0.057,0.116,0.17,0.173,0.346,0.173c0.047,0,0.109-0.003,0.186-0.007
		c0.078-0.005,0.16-0.014,0.245-0.022c0.084-0.011,0.169-0.022,0.248-0.036c0.081-0.012,0.149-0.023,0.205-0.034v0.391
		c-0.103,0.073-0.218,0.146-0.354,0.22c-0.131,0.074-0.272,0.141-0.424,0.198c-0.147,0.06-0.3,0.106-0.451,0.142
		c-0.152,0.036-0.299,0.055-0.437,0.055c-0.106,0-0.21-0.011-0.313-0.035c-0.102-0.022-0.192-0.066-0.272-0.133
		c-0.082-0.068-0.147-0.161-0.198-0.28c-0.046-0.119-0.07-0.277-0.07-0.472V19.827z"/>
</g>
</svg>
